%TF.GenerationSoftware,KiCad,Pcbnew,(5.1.10)-1*%
%TF.CreationDate,2024-11-23T17:23:42+01:00*%
%TF.ProjectId,EFES_project,45464553-5f70-4726-9f6a-6563742e6b69,rev?*%
%TF.SameCoordinates,Original*%
%TF.FileFunction,Paste,Top*%
%TF.FilePolarity,Positive*%
%FSLAX46Y46*%
G04 Gerber Fmt 4.6, Leading zero omitted, Abs format (unit mm)*
G04 Created by KiCad (PCBNEW (5.1.10)-1) date 2024-11-23 17:23:42*
%MOMM*%
%LPD*%
G01*
G04 APERTURE LIST*
%ADD10R,1.600000X1.300000*%
%ADD11R,0.650000X1.060000*%
%ADD12R,1.100000X0.250000*%
%ADD13R,1.500000X2.000000*%
%ADD14R,3.800000X2.000000*%
%ADD15R,1.750000X0.450000*%
%ADD16R,1.600000X0.550000*%
%ADD17R,0.550000X1.600000*%
%ADD18R,1.550000X1.300000*%
%ADD19R,2.500000X1.430000*%
%ADD20R,1.650000X0.400000*%
%ADD21R,0.700000X1.825000*%
%ADD22R,2.000000X1.350000*%
%ADD23R,1.800000X2.500000*%
%ADD24R,2.500000X1.800000*%
G04 APERTURE END LIST*
%TO.C,U8*%
G36*
G01*
X160040000Y-116505000D02*
X160040000Y-116805000D01*
G75*
G02*
X159890000Y-116955000I-150000J0D01*
G01*
X158240000Y-116955000D01*
G75*
G02*
X158090000Y-116805000I0J150000D01*
G01*
X158090000Y-116505000D01*
G75*
G02*
X158240000Y-116355000I150000J0D01*
G01*
X159890000Y-116355000D01*
G75*
G02*
X160040000Y-116505000I0J-150000D01*
G01*
G37*
G36*
G01*
X160040000Y-115235000D02*
X160040000Y-115535000D01*
G75*
G02*
X159890000Y-115685000I-150000J0D01*
G01*
X158240000Y-115685000D01*
G75*
G02*
X158090000Y-115535000I0J150000D01*
G01*
X158090000Y-115235000D01*
G75*
G02*
X158240000Y-115085000I150000J0D01*
G01*
X159890000Y-115085000D01*
G75*
G02*
X160040000Y-115235000I0J-150000D01*
G01*
G37*
G36*
G01*
X160040000Y-113965000D02*
X160040000Y-114265000D01*
G75*
G02*
X159890000Y-114415000I-150000J0D01*
G01*
X158240000Y-114415000D01*
G75*
G02*
X158090000Y-114265000I0J150000D01*
G01*
X158090000Y-113965000D01*
G75*
G02*
X158240000Y-113815000I150000J0D01*
G01*
X159890000Y-113815000D01*
G75*
G02*
X160040000Y-113965000I0J-150000D01*
G01*
G37*
G36*
G01*
X160040000Y-112695000D02*
X160040000Y-112995000D01*
G75*
G02*
X159890000Y-113145000I-150000J0D01*
G01*
X158240000Y-113145000D01*
G75*
G02*
X158090000Y-112995000I0J150000D01*
G01*
X158090000Y-112695000D01*
G75*
G02*
X158240000Y-112545000I150000J0D01*
G01*
X159890000Y-112545000D01*
G75*
G02*
X160040000Y-112695000I0J-150000D01*
G01*
G37*
G36*
G01*
X164990000Y-112695000D02*
X164990000Y-112995000D01*
G75*
G02*
X164840000Y-113145000I-150000J0D01*
G01*
X163190000Y-113145000D01*
G75*
G02*
X163040000Y-112995000I0J150000D01*
G01*
X163040000Y-112695000D01*
G75*
G02*
X163190000Y-112545000I150000J0D01*
G01*
X164840000Y-112545000D01*
G75*
G02*
X164990000Y-112695000I0J-150000D01*
G01*
G37*
G36*
G01*
X164990000Y-113965000D02*
X164990000Y-114265000D01*
G75*
G02*
X164840000Y-114415000I-150000J0D01*
G01*
X163190000Y-114415000D01*
G75*
G02*
X163040000Y-114265000I0J150000D01*
G01*
X163040000Y-113965000D01*
G75*
G02*
X163190000Y-113815000I150000J0D01*
G01*
X164840000Y-113815000D01*
G75*
G02*
X164990000Y-113965000I0J-150000D01*
G01*
G37*
G36*
G01*
X164990000Y-115235000D02*
X164990000Y-115535000D01*
G75*
G02*
X164840000Y-115685000I-150000J0D01*
G01*
X163190000Y-115685000D01*
G75*
G02*
X163040000Y-115535000I0J150000D01*
G01*
X163040000Y-115235000D01*
G75*
G02*
X163190000Y-115085000I150000J0D01*
G01*
X164840000Y-115085000D01*
G75*
G02*
X164990000Y-115235000I0J-150000D01*
G01*
G37*
G36*
G01*
X164990000Y-116505000D02*
X164990000Y-116805000D01*
G75*
G02*
X164840000Y-116955000I-150000J0D01*
G01*
X163190000Y-116955000D01*
G75*
G02*
X163040000Y-116805000I0J150000D01*
G01*
X163040000Y-116505000D01*
G75*
G02*
X163190000Y-116355000I150000J0D01*
G01*
X164840000Y-116355000D01*
G75*
G02*
X164990000Y-116505000I0J-150000D01*
G01*
G37*
%TD*%
%TO.C,U7*%
G36*
G01*
X160040000Y-106865000D02*
X160040000Y-107165000D01*
G75*
G02*
X159890000Y-107315000I-150000J0D01*
G01*
X158240000Y-107315000D01*
G75*
G02*
X158090000Y-107165000I0J150000D01*
G01*
X158090000Y-106865000D01*
G75*
G02*
X158240000Y-106715000I150000J0D01*
G01*
X159890000Y-106715000D01*
G75*
G02*
X160040000Y-106865000I0J-150000D01*
G01*
G37*
G36*
G01*
X160040000Y-105595000D02*
X160040000Y-105895000D01*
G75*
G02*
X159890000Y-106045000I-150000J0D01*
G01*
X158240000Y-106045000D01*
G75*
G02*
X158090000Y-105895000I0J150000D01*
G01*
X158090000Y-105595000D01*
G75*
G02*
X158240000Y-105445000I150000J0D01*
G01*
X159890000Y-105445000D01*
G75*
G02*
X160040000Y-105595000I0J-150000D01*
G01*
G37*
G36*
G01*
X160040000Y-104325000D02*
X160040000Y-104625000D01*
G75*
G02*
X159890000Y-104775000I-150000J0D01*
G01*
X158240000Y-104775000D01*
G75*
G02*
X158090000Y-104625000I0J150000D01*
G01*
X158090000Y-104325000D01*
G75*
G02*
X158240000Y-104175000I150000J0D01*
G01*
X159890000Y-104175000D01*
G75*
G02*
X160040000Y-104325000I0J-150000D01*
G01*
G37*
G36*
G01*
X160040000Y-103055000D02*
X160040000Y-103355000D01*
G75*
G02*
X159890000Y-103505000I-150000J0D01*
G01*
X158240000Y-103505000D01*
G75*
G02*
X158090000Y-103355000I0J150000D01*
G01*
X158090000Y-103055000D01*
G75*
G02*
X158240000Y-102905000I150000J0D01*
G01*
X159890000Y-102905000D01*
G75*
G02*
X160040000Y-103055000I0J-150000D01*
G01*
G37*
G36*
G01*
X164990000Y-103055000D02*
X164990000Y-103355000D01*
G75*
G02*
X164840000Y-103505000I-150000J0D01*
G01*
X163190000Y-103505000D01*
G75*
G02*
X163040000Y-103355000I0J150000D01*
G01*
X163040000Y-103055000D01*
G75*
G02*
X163190000Y-102905000I150000J0D01*
G01*
X164840000Y-102905000D01*
G75*
G02*
X164990000Y-103055000I0J-150000D01*
G01*
G37*
G36*
G01*
X164990000Y-104325000D02*
X164990000Y-104625000D01*
G75*
G02*
X164840000Y-104775000I-150000J0D01*
G01*
X163190000Y-104775000D01*
G75*
G02*
X163040000Y-104625000I0J150000D01*
G01*
X163040000Y-104325000D01*
G75*
G02*
X163190000Y-104175000I150000J0D01*
G01*
X164840000Y-104175000D01*
G75*
G02*
X164990000Y-104325000I0J-150000D01*
G01*
G37*
G36*
G01*
X164990000Y-105595000D02*
X164990000Y-105895000D01*
G75*
G02*
X164840000Y-106045000I-150000J0D01*
G01*
X163190000Y-106045000D01*
G75*
G02*
X163040000Y-105895000I0J150000D01*
G01*
X163040000Y-105595000D01*
G75*
G02*
X163190000Y-105445000I150000J0D01*
G01*
X164840000Y-105445000D01*
G75*
G02*
X164990000Y-105595000I0J-150000D01*
G01*
G37*
G36*
G01*
X164990000Y-106865000D02*
X164990000Y-107165000D01*
G75*
G02*
X164840000Y-107315000I-150000J0D01*
G01*
X163190000Y-107315000D01*
G75*
G02*
X163040000Y-107165000I0J150000D01*
G01*
X163040000Y-106865000D01*
G75*
G02*
X163190000Y-106715000I150000J0D01*
G01*
X164840000Y-106715000D01*
G75*
G02*
X164990000Y-106865000I0J-150000D01*
G01*
G37*
%TD*%
%TO.C,U13*%
G36*
G01*
X231615000Y-59610000D02*
X231915000Y-59610000D01*
G75*
G02*
X232065000Y-59760000I0J-150000D01*
G01*
X232065000Y-61410000D01*
G75*
G02*
X231915000Y-61560000I-150000J0D01*
G01*
X231615000Y-61560000D01*
G75*
G02*
X231465000Y-61410000I0J150000D01*
G01*
X231465000Y-59760000D01*
G75*
G02*
X231615000Y-59610000I150000J0D01*
G01*
G37*
G36*
G01*
X230345000Y-59610000D02*
X230645000Y-59610000D01*
G75*
G02*
X230795000Y-59760000I0J-150000D01*
G01*
X230795000Y-61410000D01*
G75*
G02*
X230645000Y-61560000I-150000J0D01*
G01*
X230345000Y-61560000D01*
G75*
G02*
X230195000Y-61410000I0J150000D01*
G01*
X230195000Y-59760000D01*
G75*
G02*
X230345000Y-59610000I150000J0D01*
G01*
G37*
G36*
G01*
X229075000Y-59610000D02*
X229375000Y-59610000D01*
G75*
G02*
X229525000Y-59760000I0J-150000D01*
G01*
X229525000Y-61410000D01*
G75*
G02*
X229375000Y-61560000I-150000J0D01*
G01*
X229075000Y-61560000D01*
G75*
G02*
X228925000Y-61410000I0J150000D01*
G01*
X228925000Y-59760000D01*
G75*
G02*
X229075000Y-59610000I150000J0D01*
G01*
G37*
G36*
G01*
X227805000Y-59610000D02*
X228105000Y-59610000D01*
G75*
G02*
X228255000Y-59760000I0J-150000D01*
G01*
X228255000Y-61410000D01*
G75*
G02*
X228105000Y-61560000I-150000J0D01*
G01*
X227805000Y-61560000D01*
G75*
G02*
X227655000Y-61410000I0J150000D01*
G01*
X227655000Y-59760000D01*
G75*
G02*
X227805000Y-59610000I150000J0D01*
G01*
G37*
G36*
G01*
X227805000Y-54660000D02*
X228105000Y-54660000D01*
G75*
G02*
X228255000Y-54810000I0J-150000D01*
G01*
X228255000Y-56460000D01*
G75*
G02*
X228105000Y-56610000I-150000J0D01*
G01*
X227805000Y-56610000D01*
G75*
G02*
X227655000Y-56460000I0J150000D01*
G01*
X227655000Y-54810000D01*
G75*
G02*
X227805000Y-54660000I150000J0D01*
G01*
G37*
G36*
G01*
X229075000Y-54660000D02*
X229375000Y-54660000D01*
G75*
G02*
X229525000Y-54810000I0J-150000D01*
G01*
X229525000Y-56460000D01*
G75*
G02*
X229375000Y-56610000I-150000J0D01*
G01*
X229075000Y-56610000D01*
G75*
G02*
X228925000Y-56460000I0J150000D01*
G01*
X228925000Y-54810000D01*
G75*
G02*
X229075000Y-54660000I150000J0D01*
G01*
G37*
G36*
G01*
X230345000Y-54660000D02*
X230645000Y-54660000D01*
G75*
G02*
X230795000Y-54810000I0J-150000D01*
G01*
X230795000Y-56460000D01*
G75*
G02*
X230645000Y-56610000I-150000J0D01*
G01*
X230345000Y-56610000D01*
G75*
G02*
X230195000Y-56460000I0J150000D01*
G01*
X230195000Y-54810000D01*
G75*
G02*
X230345000Y-54660000I150000J0D01*
G01*
G37*
G36*
G01*
X231615000Y-54660000D02*
X231915000Y-54660000D01*
G75*
G02*
X232065000Y-54810000I0J-150000D01*
G01*
X232065000Y-56460000D01*
G75*
G02*
X231915000Y-56610000I-150000J0D01*
G01*
X231615000Y-56610000D01*
G75*
G02*
X231465000Y-56460000I0J150000D01*
G01*
X231465000Y-54810000D01*
G75*
G02*
X231615000Y-54660000I150000J0D01*
G01*
G37*
%TD*%
D10*
%TO.C,X1*%
X213605000Y-59650000D03*
X216905000Y-59650000D03*
X216905000Y-61650000D03*
X213605000Y-61650000D03*
%TD*%
%TO.C,U17*%
G36*
G01*
X133502500Y-54760000D02*
X133177500Y-54760000D01*
G75*
G02*
X133015000Y-54597500I0J162500D01*
G01*
X133015000Y-52572500D01*
G75*
G02*
X133177500Y-52410000I162500J0D01*
G01*
X133502500Y-52410000D01*
G75*
G02*
X133665000Y-52572500I0J-162500D01*
G01*
X133665000Y-54597500D01*
G75*
G02*
X133502500Y-54760000I-162500J0D01*
G01*
G37*
G36*
G01*
X136042500Y-54760000D02*
X135717500Y-54760000D01*
G75*
G02*
X135555000Y-54597500I0J162500D01*
G01*
X135555000Y-52572500D01*
G75*
G02*
X135717500Y-52410000I162500J0D01*
G01*
X136042500Y-52410000D01*
G75*
G02*
X136205000Y-52572500I0J-162500D01*
G01*
X136205000Y-54597500D01*
G75*
G02*
X136042500Y-54760000I-162500J0D01*
G01*
G37*
G36*
G01*
X138582500Y-54760000D02*
X138257500Y-54760000D01*
G75*
G02*
X138095000Y-54597500I0J162500D01*
G01*
X138095000Y-52572500D01*
G75*
G02*
X138257500Y-52410000I162500J0D01*
G01*
X138582500Y-52410000D01*
G75*
G02*
X138745000Y-52572500I0J-162500D01*
G01*
X138745000Y-54597500D01*
G75*
G02*
X138582500Y-54760000I-162500J0D01*
G01*
G37*
G36*
G01*
X141122500Y-54760000D02*
X140797500Y-54760000D01*
G75*
G02*
X140635000Y-54597500I0J162500D01*
G01*
X140635000Y-52572500D01*
G75*
G02*
X140797500Y-52410000I162500J0D01*
G01*
X141122500Y-52410000D01*
G75*
G02*
X141285000Y-52572500I0J-162500D01*
G01*
X141285000Y-54597500D01*
G75*
G02*
X141122500Y-54760000I-162500J0D01*
G01*
G37*
G36*
G01*
X141122500Y-63810000D02*
X140797500Y-63810000D01*
G75*
G02*
X140635000Y-63647500I0J162500D01*
G01*
X140635000Y-61622500D01*
G75*
G02*
X140797500Y-61460000I162500J0D01*
G01*
X141122500Y-61460000D01*
G75*
G02*
X141285000Y-61622500I0J-162500D01*
G01*
X141285000Y-63647500D01*
G75*
G02*
X141122500Y-63810000I-162500J0D01*
G01*
G37*
G36*
G01*
X138582500Y-63810000D02*
X138257500Y-63810000D01*
G75*
G02*
X138095000Y-63647500I0J162500D01*
G01*
X138095000Y-61622500D01*
G75*
G02*
X138257500Y-61460000I162500J0D01*
G01*
X138582500Y-61460000D01*
G75*
G02*
X138745000Y-61622500I0J-162500D01*
G01*
X138745000Y-63647500D01*
G75*
G02*
X138582500Y-63810000I-162500J0D01*
G01*
G37*
G36*
G01*
X136042500Y-63810000D02*
X135717500Y-63810000D01*
G75*
G02*
X135555000Y-63647500I0J162500D01*
G01*
X135555000Y-61622500D01*
G75*
G02*
X135717500Y-61460000I162500J0D01*
G01*
X136042500Y-61460000D01*
G75*
G02*
X136205000Y-61622500I0J-162500D01*
G01*
X136205000Y-63647500D01*
G75*
G02*
X136042500Y-63810000I-162500J0D01*
G01*
G37*
G36*
G01*
X133502500Y-63810000D02*
X133177500Y-63810000D01*
G75*
G02*
X133015000Y-63647500I0J162500D01*
G01*
X133015000Y-61622500D01*
G75*
G02*
X133177500Y-61460000I162500J0D01*
G01*
X133502500Y-61460000D01*
G75*
G02*
X133665000Y-61622500I0J-162500D01*
G01*
X133665000Y-63647500D01*
G75*
G02*
X133502500Y-63810000I-162500J0D01*
G01*
G37*
%TD*%
D11*
%TO.C,U16*%
X182870000Y-93840000D03*
X181920000Y-93840000D03*
X183820000Y-93840000D03*
X183820000Y-96040000D03*
X182870000Y-96040000D03*
X181920000Y-96040000D03*
%TD*%
%TO.C,U15*%
X176520000Y-93840000D03*
X175570000Y-93840000D03*
X177470000Y-93840000D03*
X177470000Y-96040000D03*
X176520000Y-96040000D03*
X175570000Y-96040000D03*
%TD*%
%TO.C,U14*%
G36*
G01*
X178585000Y-77210000D02*
X178285000Y-77210000D01*
G75*
G02*
X178135000Y-77060000I0J150000D01*
G01*
X178135000Y-75760000D01*
G75*
G02*
X178285000Y-75610000I150000J0D01*
G01*
X178585000Y-75610000D01*
G75*
G02*
X178735000Y-75760000I0J-150000D01*
G01*
X178735000Y-77060000D01*
G75*
G02*
X178585000Y-77210000I-150000J0D01*
G01*
G37*
G36*
G01*
X179855000Y-77210000D02*
X179555000Y-77210000D01*
G75*
G02*
X179405000Y-77060000I0J150000D01*
G01*
X179405000Y-75760000D01*
G75*
G02*
X179555000Y-75610000I150000J0D01*
G01*
X179855000Y-75610000D01*
G75*
G02*
X180005000Y-75760000I0J-150000D01*
G01*
X180005000Y-77060000D01*
G75*
G02*
X179855000Y-77210000I-150000J0D01*
G01*
G37*
G36*
G01*
X181125000Y-77210000D02*
X180825000Y-77210000D01*
G75*
G02*
X180675000Y-77060000I0J150000D01*
G01*
X180675000Y-75760000D01*
G75*
G02*
X180825000Y-75610000I150000J0D01*
G01*
X181125000Y-75610000D01*
G75*
G02*
X181275000Y-75760000I0J-150000D01*
G01*
X181275000Y-77060000D01*
G75*
G02*
X181125000Y-77210000I-150000J0D01*
G01*
G37*
G36*
G01*
X182395000Y-77210000D02*
X182095000Y-77210000D01*
G75*
G02*
X181945000Y-77060000I0J150000D01*
G01*
X181945000Y-75760000D01*
G75*
G02*
X182095000Y-75610000I150000J0D01*
G01*
X182395000Y-75610000D01*
G75*
G02*
X182545000Y-75760000I0J-150000D01*
G01*
X182545000Y-77060000D01*
G75*
G02*
X182395000Y-77210000I-150000J0D01*
G01*
G37*
G36*
G01*
X182395000Y-84410000D02*
X182095000Y-84410000D01*
G75*
G02*
X181945000Y-84260000I0J150000D01*
G01*
X181945000Y-82960000D01*
G75*
G02*
X182095000Y-82810000I150000J0D01*
G01*
X182395000Y-82810000D01*
G75*
G02*
X182545000Y-82960000I0J-150000D01*
G01*
X182545000Y-84260000D01*
G75*
G02*
X182395000Y-84410000I-150000J0D01*
G01*
G37*
G36*
G01*
X181125000Y-84410000D02*
X180825000Y-84410000D01*
G75*
G02*
X180675000Y-84260000I0J150000D01*
G01*
X180675000Y-82960000D01*
G75*
G02*
X180825000Y-82810000I150000J0D01*
G01*
X181125000Y-82810000D01*
G75*
G02*
X181275000Y-82960000I0J-150000D01*
G01*
X181275000Y-84260000D01*
G75*
G02*
X181125000Y-84410000I-150000J0D01*
G01*
G37*
G36*
G01*
X179855000Y-84410000D02*
X179555000Y-84410000D01*
G75*
G02*
X179405000Y-84260000I0J150000D01*
G01*
X179405000Y-82960000D01*
G75*
G02*
X179555000Y-82810000I150000J0D01*
G01*
X179855000Y-82810000D01*
G75*
G02*
X180005000Y-82960000I0J-150000D01*
G01*
X180005000Y-84260000D01*
G75*
G02*
X179855000Y-84410000I-150000J0D01*
G01*
G37*
G36*
G01*
X178585000Y-84410000D02*
X178285000Y-84410000D01*
G75*
G02*
X178135000Y-84260000I0J150000D01*
G01*
X178135000Y-82960000D01*
G75*
G02*
X178285000Y-82810000I150000J0D01*
G01*
X178585000Y-82810000D01*
G75*
G02*
X178735000Y-82960000I0J-150000D01*
G01*
X178735000Y-84260000D01*
G75*
G02*
X178585000Y-84410000I-150000J0D01*
G01*
G37*
%TD*%
D12*
%TO.C,U12*%
X198350000Y-53000000D03*
X198350000Y-52500000D03*
X198350000Y-52000000D03*
X198350000Y-51500000D03*
X198350000Y-51000000D03*
X202650000Y-51000000D03*
X202650000Y-51500000D03*
X202650000Y-52000000D03*
X202650000Y-52500000D03*
X202650000Y-53000000D03*
%TD*%
%TO.C,U11*%
X178350000Y-53000000D03*
X178350000Y-52500000D03*
X178350000Y-52000000D03*
X178350000Y-51500000D03*
X178350000Y-51000000D03*
X182650000Y-51000000D03*
X182650000Y-51500000D03*
X182650000Y-52000000D03*
X182650000Y-52500000D03*
X182650000Y-53000000D03*
%TD*%
D13*
%TO.C,U10*%
X81520000Y-109830000D03*
X86120000Y-109830000D03*
X83820000Y-109830000D03*
D14*
X83820000Y-103530000D03*
%TD*%
D13*
%TO.C,U9*%
X89140000Y-109830000D03*
X93740000Y-109830000D03*
X91440000Y-109830000D03*
D14*
X91440000Y-103530000D03*
%TD*%
D13*
%TO.C,U4*%
X96760000Y-109830000D03*
X101360000Y-109830000D03*
X99060000Y-109830000D03*
D14*
X99060000Y-103530000D03*
%TD*%
D15*
%TO.C,U3*%
X132290000Y-79155000D03*
X132290000Y-78505000D03*
X132290000Y-77855000D03*
X132290000Y-77205000D03*
X132290000Y-76555000D03*
X132290000Y-75905000D03*
X132290000Y-75255000D03*
X132290000Y-74605000D03*
X132290000Y-73955000D03*
X132290000Y-73305000D03*
X132290000Y-72655000D03*
X132290000Y-72005000D03*
X132290000Y-71355000D03*
X132290000Y-70705000D03*
X139490000Y-70705000D03*
X139490000Y-71355000D03*
X139490000Y-72005000D03*
X139490000Y-72655000D03*
X139490000Y-73305000D03*
X139490000Y-73955000D03*
X139490000Y-74605000D03*
X139490000Y-75255000D03*
X139490000Y-75905000D03*
X139490000Y-76555000D03*
X139490000Y-77205000D03*
X139490000Y-77855000D03*
X139490000Y-78505000D03*
X139490000Y-79155000D03*
%TD*%
D16*
%TO.C,U2*%
X148150000Y-75190000D03*
X148150000Y-74390000D03*
X148150000Y-73590000D03*
X148150000Y-72790000D03*
X148150000Y-71990000D03*
X148150000Y-71190000D03*
X148150000Y-70390000D03*
X148150000Y-69590000D03*
D17*
X149600000Y-68140000D03*
X150400000Y-68140000D03*
X151200000Y-68140000D03*
X152000000Y-68140000D03*
X152800000Y-68140000D03*
X153600000Y-68140000D03*
X154400000Y-68140000D03*
X155200000Y-68140000D03*
D16*
X156650000Y-69590000D03*
X156650000Y-70390000D03*
X156650000Y-71190000D03*
X156650000Y-71990000D03*
X156650000Y-72790000D03*
X156650000Y-73590000D03*
X156650000Y-74390000D03*
X156650000Y-75190000D03*
D17*
X155200000Y-76640000D03*
X154400000Y-76640000D03*
X153600000Y-76640000D03*
X152800000Y-76640000D03*
X152000000Y-76640000D03*
X151200000Y-76640000D03*
X150400000Y-76640000D03*
X149600000Y-76640000D03*
%TD*%
%TO.C,U1*%
G36*
G01*
X223275000Y-100105000D02*
X223485000Y-100105000D01*
G75*
G02*
X223520000Y-100140000I0J-35000D01*
G01*
X223520000Y-101540000D01*
G75*
G02*
X223485000Y-101575000I-35000J0D01*
G01*
X223275000Y-101575000D01*
G75*
G02*
X223240000Y-101540000I0J35000D01*
G01*
X223240000Y-100140000D01*
G75*
G02*
X223275000Y-100105000I35000J0D01*
G01*
G37*
G36*
G01*
X222775000Y-100105000D02*
X222985000Y-100105000D01*
G75*
G02*
X223020000Y-100140000I0J-35000D01*
G01*
X223020000Y-101540000D01*
G75*
G02*
X222985000Y-101575000I-35000J0D01*
G01*
X222775000Y-101575000D01*
G75*
G02*
X222740000Y-101540000I0J35000D01*
G01*
X222740000Y-100140000D01*
G75*
G02*
X222775000Y-100105000I35000J0D01*
G01*
G37*
G36*
G01*
X222275000Y-100105000D02*
X222485000Y-100105000D01*
G75*
G02*
X222520000Y-100140000I0J-35000D01*
G01*
X222520000Y-101540000D01*
G75*
G02*
X222485000Y-101575000I-35000J0D01*
G01*
X222275000Y-101575000D01*
G75*
G02*
X222240000Y-101540000I0J35000D01*
G01*
X222240000Y-100140000D01*
G75*
G02*
X222275000Y-100105000I35000J0D01*
G01*
G37*
G36*
G01*
X221775000Y-100105000D02*
X221985000Y-100105000D01*
G75*
G02*
X222020000Y-100140000I0J-35000D01*
G01*
X222020000Y-101540000D01*
G75*
G02*
X221985000Y-101575000I-35000J0D01*
G01*
X221775000Y-101575000D01*
G75*
G02*
X221740000Y-101540000I0J35000D01*
G01*
X221740000Y-100140000D01*
G75*
G02*
X221775000Y-100105000I35000J0D01*
G01*
G37*
G36*
G01*
X221275000Y-100105000D02*
X221485000Y-100105000D01*
G75*
G02*
X221520000Y-100140000I0J-35000D01*
G01*
X221520000Y-101540000D01*
G75*
G02*
X221485000Y-101575000I-35000J0D01*
G01*
X221275000Y-101575000D01*
G75*
G02*
X221240000Y-101540000I0J35000D01*
G01*
X221240000Y-100140000D01*
G75*
G02*
X221275000Y-100105000I35000J0D01*
G01*
G37*
G36*
G01*
X220775000Y-100105000D02*
X220985000Y-100105000D01*
G75*
G02*
X221020000Y-100140000I0J-35000D01*
G01*
X221020000Y-101540000D01*
G75*
G02*
X220985000Y-101575000I-35000J0D01*
G01*
X220775000Y-101575000D01*
G75*
G02*
X220740000Y-101540000I0J35000D01*
G01*
X220740000Y-100140000D01*
G75*
G02*
X220775000Y-100105000I35000J0D01*
G01*
G37*
G36*
G01*
X220275000Y-100105000D02*
X220485000Y-100105000D01*
G75*
G02*
X220520000Y-100140000I0J-35000D01*
G01*
X220520000Y-101540000D01*
G75*
G02*
X220485000Y-101575000I-35000J0D01*
G01*
X220275000Y-101575000D01*
G75*
G02*
X220240000Y-101540000I0J35000D01*
G01*
X220240000Y-100140000D01*
G75*
G02*
X220275000Y-100105000I35000J0D01*
G01*
G37*
G36*
G01*
X219775000Y-100105000D02*
X219985000Y-100105000D01*
G75*
G02*
X220020000Y-100140000I0J-35000D01*
G01*
X220020000Y-101540000D01*
G75*
G02*
X219985000Y-101575000I-35000J0D01*
G01*
X219775000Y-101575000D01*
G75*
G02*
X219740000Y-101540000I0J35000D01*
G01*
X219740000Y-100140000D01*
G75*
G02*
X219775000Y-100105000I35000J0D01*
G01*
G37*
G36*
G01*
X219275000Y-100105000D02*
X219485000Y-100105000D01*
G75*
G02*
X219520000Y-100140000I0J-35000D01*
G01*
X219520000Y-101540000D01*
G75*
G02*
X219485000Y-101575000I-35000J0D01*
G01*
X219275000Y-101575000D01*
G75*
G02*
X219240000Y-101540000I0J35000D01*
G01*
X219240000Y-100140000D01*
G75*
G02*
X219275000Y-100105000I35000J0D01*
G01*
G37*
G36*
G01*
X218775000Y-100105000D02*
X218985000Y-100105000D01*
G75*
G02*
X219020000Y-100140000I0J-35000D01*
G01*
X219020000Y-101540000D01*
G75*
G02*
X218985000Y-101575000I-35000J0D01*
G01*
X218775000Y-101575000D01*
G75*
G02*
X218740000Y-101540000I0J35000D01*
G01*
X218740000Y-100140000D01*
G75*
G02*
X218775000Y-100105000I35000J0D01*
G01*
G37*
G36*
G01*
X218275000Y-100105000D02*
X218485000Y-100105000D01*
G75*
G02*
X218520000Y-100140000I0J-35000D01*
G01*
X218520000Y-101540000D01*
G75*
G02*
X218485000Y-101575000I-35000J0D01*
G01*
X218275000Y-101575000D01*
G75*
G02*
X218240000Y-101540000I0J35000D01*
G01*
X218240000Y-100140000D01*
G75*
G02*
X218275000Y-100105000I35000J0D01*
G01*
G37*
G36*
G01*
X217775000Y-100105000D02*
X217985000Y-100105000D01*
G75*
G02*
X218020000Y-100140000I0J-35000D01*
G01*
X218020000Y-101540000D01*
G75*
G02*
X217985000Y-101575000I-35000J0D01*
G01*
X217775000Y-101575000D01*
G75*
G02*
X217740000Y-101540000I0J35000D01*
G01*
X217740000Y-100140000D01*
G75*
G02*
X217775000Y-100105000I35000J0D01*
G01*
G37*
G36*
G01*
X217275000Y-100105000D02*
X217485000Y-100105000D01*
G75*
G02*
X217520000Y-100140000I0J-35000D01*
G01*
X217520000Y-101540000D01*
G75*
G02*
X217485000Y-101575000I-35000J0D01*
G01*
X217275000Y-101575000D01*
G75*
G02*
X217240000Y-101540000I0J35000D01*
G01*
X217240000Y-100140000D01*
G75*
G02*
X217275000Y-100105000I35000J0D01*
G01*
G37*
G36*
G01*
X216775000Y-100105000D02*
X216985000Y-100105000D01*
G75*
G02*
X217020000Y-100140000I0J-35000D01*
G01*
X217020000Y-101540000D01*
G75*
G02*
X216985000Y-101575000I-35000J0D01*
G01*
X216775000Y-101575000D01*
G75*
G02*
X216740000Y-101540000I0J35000D01*
G01*
X216740000Y-100140000D01*
G75*
G02*
X216775000Y-100105000I35000J0D01*
G01*
G37*
G36*
G01*
X216275000Y-100105000D02*
X216485000Y-100105000D01*
G75*
G02*
X216520000Y-100140000I0J-35000D01*
G01*
X216520000Y-101540000D01*
G75*
G02*
X216485000Y-101575000I-35000J0D01*
G01*
X216275000Y-101575000D01*
G75*
G02*
X216240000Y-101540000I0J35000D01*
G01*
X216240000Y-100140000D01*
G75*
G02*
X216275000Y-100105000I35000J0D01*
G01*
G37*
G36*
G01*
X215775000Y-100105000D02*
X215985000Y-100105000D01*
G75*
G02*
X216020000Y-100140000I0J-35000D01*
G01*
X216020000Y-101540000D01*
G75*
G02*
X215985000Y-101575000I-35000J0D01*
G01*
X215775000Y-101575000D01*
G75*
G02*
X215740000Y-101540000I0J35000D01*
G01*
X215740000Y-100140000D01*
G75*
G02*
X215775000Y-100105000I35000J0D01*
G01*
G37*
G36*
G01*
X215275000Y-100105000D02*
X215485000Y-100105000D01*
G75*
G02*
X215520000Y-100140000I0J-35000D01*
G01*
X215520000Y-101540000D01*
G75*
G02*
X215485000Y-101575000I-35000J0D01*
G01*
X215275000Y-101575000D01*
G75*
G02*
X215240000Y-101540000I0J35000D01*
G01*
X215240000Y-100140000D01*
G75*
G02*
X215275000Y-100105000I35000J0D01*
G01*
G37*
G36*
G01*
X214775000Y-100105000D02*
X214985000Y-100105000D01*
G75*
G02*
X215020000Y-100140000I0J-35000D01*
G01*
X215020000Y-101540000D01*
G75*
G02*
X214985000Y-101575000I-35000J0D01*
G01*
X214775000Y-101575000D01*
G75*
G02*
X214740000Y-101540000I0J35000D01*
G01*
X214740000Y-100140000D01*
G75*
G02*
X214775000Y-100105000I35000J0D01*
G01*
G37*
G36*
G01*
X214275000Y-100105000D02*
X214485000Y-100105000D01*
G75*
G02*
X214520000Y-100140000I0J-35000D01*
G01*
X214520000Y-101540000D01*
G75*
G02*
X214485000Y-101575000I-35000J0D01*
G01*
X214275000Y-101575000D01*
G75*
G02*
X214240000Y-101540000I0J35000D01*
G01*
X214240000Y-100140000D01*
G75*
G02*
X214275000Y-100105000I35000J0D01*
G01*
G37*
G36*
G01*
X213775000Y-100105000D02*
X213985000Y-100105000D01*
G75*
G02*
X214020000Y-100140000I0J-35000D01*
G01*
X214020000Y-101540000D01*
G75*
G02*
X213985000Y-101575000I-35000J0D01*
G01*
X213775000Y-101575000D01*
G75*
G02*
X213740000Y-101540000I0J35000D01*
G01*
X213740000Y-100140000D01*
G75*
G02*
X213775000Y-100105000I35000J0D01*
G01*
G37*
G36*
G01*
X213275000Y-100105000D02*
X213485000Y-100105000D01*
G75*
G02*
X213520000Y-100140000I0J-35000D01*
G01*
X213520000Y-101540000D01*
G75*
G02*
X213485000Y-101575000I-35000J0D01*
G01*
X213275000Y-101575000D01*
G75*
G02*
X213240000Y-101540000I0J35000D01*
G01*
X213240000Y-100140000D01*
G75*
G02*
X213275000Y-100105000I35000J0D01*
G01*
G37*
G36*
G01*
X212775000Y-100105000D02*
X212985000Y-100105000D01*
G75*
G02*
X213020000Y-100140000I0J-35000D01*
G01*
X213020000Y-101540000D01*
G75*
G02*
X212985000Y-101575000I-35000J0D01*
G01*
X212775000Y-101575000D01*
G75*
G02*
X212740000Y-101540000I0J35000D01*
G01*
X212740000Y-100140000D01*
G75*
G02*
X212775000Y-100105000I35000J0D01*
G01*
G37*
G36*
G01*
X212275000Y-100105000D02*
X212485000Y-100105000D01*
G75*
G02*
X212520000Y-100140000I0J-35000D01*
G01*
X212520000Y-101540000D01*
G75*
G02*
X212485000Y-101575000I-35000J0D01*
G01*
X212275000Y-101575000D01*
G75*
G02*
X212240000Y-101540000I0J35000D01*
G01*
X212240000Y-100140000D01*
G75*
G02*
X212275000Y-100105000I35000J0D01*
G01*
G37*
G36*
G01*
X211775000Y-100105000D02*
X211985000Y-100105000D01*
G75*
G02*
X212020000Y-100140000I0J-35000D01*
G01*
X212020000Y-101540000D01*
G75*
G02*
X211985000Y-101575000I-35000J0D01*
G01*
X211775000Y-101575000D01*
G75*
G02*
X211740000Y-101540000I0J35000D01*
G01*
X211740000Y-100140000D01*
G75*
G02*
X211775000Y-100105000I35000J0D01*
G01*
G37*
G36*
G01*
X211275000Y-100105000D02*
X211485000Y-100105000D01*
G75*
G02*
X211520000Y-100140000I0J-35000D01*
G01*
X211520000Y-101540000D01*
G75*
G02*
X211485000Y-101575000I-35000J0D01*
G01*
X211275000Y-101575000D01*
G75*
G02*
X211240000Y-101540000I0J35000D01*
G01*
X211240000Y-100140000D01*
G75*
G02*
X211275000Y-100105000I35000J0D01*
G01*
G37*
G36*
G01*
X210775000Y-100105000D02*
X210985000Y-100105000D01*
G75*
G02*
X211020000Y-100140000I0J-35000D01*
G01*
X211020000Y-101540000D01*
G75*
G02*
X210985000Y-101575000I-35000J0D01*
G01*
X210775000Y-101575000D01*
G75*
G02*
X210740000Y-101540000I0J35000D01*
G01*
X210740000Y-100140000D01*
G75*
G02*
X210775000Y-100105000I35000J0D01*
G01*
G37*
G36*
G01*
X210275000Y-100105000D02*
X210485000Y-100105000D01*
G75*
G02*
X210520000Y-100140000I0J-35000D01*
G01*
X210520000Y-101540000D01*
G75*
G02*
X210485000Y-101575000I-35000J0D01*
G01*
X210275000Y-101575000D01*
G75*
G02*
X210240000Y-101540000I0J35000D01*
G01*
X210240000Y-100140000D01*
G75*
G02*
X210275000Y-100105000I35000J0D01*
G01*
G37*
G36*
G01*
X209775000Y-100105000D02*
X209985000Y-100105000D01*
G75*
G02*
X210020000Y-100140000I0J-35000D01*
G01*
X210020000Y-101540000D01*
G75*
G02*
X209985000Y-101575000I-35000J0D01*
G01*
X209775000Y-101575000D01*
G75*
G02*
X209740000Y-101540000I0J35000D01*
G01*
X209740000Y-100140000D01*
G75*
G02*
X209775000Y-100105000I35000J0D01*
G01*
G37*
G36*
G01*
X209275000Y-100105000D02*
X209485000Y-100105000D01*
G75*
G02*
X209520000Y-100140000I0J-35000D01*
G01*
X209520000Y-101540000D01*
G75*
G02*
X209485000Y-101575000I-35000J0D01*
G01*
X209275000Y-101575000D01*
G75*
G02*
X209240000Y-101540000I0J35000D01*
G01*
X209240000Y-100140000D01*
G75*
G02*
X209275000Y-100105000I35000J0D01*
G01*
G37*
G36*
G01*
X208775000Y-100105000D02*
X208985000Y-100105000D01*
G75*
G02*
X209020000Y-100140000I0J-35000D01*
G01*
X209020000Y-101540000D01*
G75*
G02*
X208985000Y-101575000I-35000J0D01*
G01*
X208775000Y-101575000D01*
G75*
G02*
X208740000Y-101540000I0J35000D01*
G01*
X208740000Y-100140000D01*
G75*
G02*
X208775000Y-100105000I35000J0D01*
G01*
G37*
G36*
G01*
X208275000Y-100105000D02*
X208485000Y-100105000D01*
G75*
G02*
X208520000Y-100140000I0J-35000D01*
G01*
X208520000Y-101540000D01*
G75*
G02*
X208485000Y-101575000I-35000J0D01*
G01*
X208275000Y-101575000D01*
G75*
G02*
X208240000Y-101540000I0J35000D01*
G01*
X208240000Y-100140000D01*
G75*
G02*
X208275000Y-100105000I35000J0D01*
G01*
G37*
G36*
G01*
X207775000Y-100105000D02*
X207985000Y-100105000D01*
G75*
G02*
X208020000Y-100140000I0J-35000D01*
G01*
X208020000Y-101540000D01*
G75*
G02*
X207985000Y-101575000I-35000J0D01*
G01*
X207775000Y-101575000D01*
G75*
G02*
X207740000Y-101540000I0J35000D01*
G01*
X207740000Y-100140000D01*
G75*
G02*
X207775000Y-100105000I35000J0D01*
G01*
G37*
G36*
G01*
X207275000Y-100105000D02*
X207485000Y-100105000D01*
G75*
G02*
X207520000Y-100140000I0J-35000D01*
G01*
X207520000Y-101540000D01*
G75*
G02*
X207485000Y-101575000I-35000J0D01*
G01*
X207275000Y-101575000D01*
G75*
G02*
X207240000Y-101540000I0J35000D01*
G01*
X207240000Y-100140000D01*
G75*
G02*
X207275000Y-100105000I35000J0D01*
G01*
G37*
G36*
G01*
X206775000Y-100105000D02*
X206985000Y-100105000D01*
G75*
G02*
X207020000Y-100140000I0J-35000D01*
G01*
X207020000Y-101540000D01*
G75*
G02*
X206985000Y-101575000I-35000J0D01*
G01*
X206775000Y-101575000D01*
G75*
G02*
X206740000Y-101540000I0J35000D01*
G01*
X206740000Y-100140000D01*
G75*
G02*
X206775000Y-100105000I35000J0D01*
G01*
G37*
G36*
G01*
X206275000Y-100105000D02*
X206485000Y-100105000D01*
G75*
G02*
X206520000Y-100140000I0J-35000D01*
G01*
X206520000Y-101540000D01*
G75*
G02*
X206485000Y-101575000I-35000J0D01*
G01*
X206275000Y-101575000D01*
G75*
G02*
X206240000Y-101540000I0J35000D01*
G01*
X206240000Y-100140000D01*
G75*
G02*
X206275000Y-100105000I35000J0D01*
G01*
G37*
G36*
G01*
X205775000Y-100105000D02*
X205985000Y-100105000D01*
G75*
G02*
X206020000Y-100140000I0J-35000D01*
G01*
X206020000Y-101540000D01*
G75*
G02*
X205985000Y-101575000I-35000J0D01*
G01*
X205775000Y-101575000D01*
G75*
G02*
X205740000Y-101540000I0J35000D01*
G01*
X205740000Y-100140000D01*
G75*
G02*
X205775000Y-100105000I35000J0D01*
G01*
G37*
G36*
G01*
X205775000Y-78765000D02*
X205985000Y-78765000D01*
G75*
G02*
X206020000Y-78800000I0J-35000D01*
G01*
X206020000Y-80200000D01*
G75*
G02*
X205985000Y-80235000I-35000J0D01*
G01*
X205775000Y-80235000D01*
G75*
G02*
X205740000Y-80200000I0J35000D01*
G01*
X205740000Y-78800000D01*
G75*
G02*
X205775000Y-78765000I35000J0D01*
G01*
G37*
G36*
G01*
X206275000Y-78765000D02*
X206485000Y-78765000D01*
G75*
G02*
X206520000Y-78800000I0J-35000D01*
G01*
X206520000Y-80200000D01*
G75*
G02*
X206485000Y-80235000I-35000J0D01*
G01*
X206275000Y-80235000D01*
G75*
G02*
X206240000Y-80200000I0J35000D01*
G01*
X206240000Y-78800000D01*
G75*
G02*
X206275000Y-78765000I35000J0D01*
G01*
G37*
G36*
G01*
X206775000Y-78765000D02*
X206985000Y-78765000D01*
G75*
G02*
X207020000Y-78800000I0J-35000D01*
G01*
X207020000Y-80200000D01*
G75*
G02*
X206985000Y-80235000I-35000J0D01*
G01*
X206775000Y-80235000D01*
G75*
G02*
X206740000Y-80200000I0J35000D01*
G01*
X206740000Y-78800000D01*
G75*
G02*
X206775000Y-78765000I35000J0D01*
G01*
G37*
G36*
G01*
X207275000Y-78765000D02*
X207485000Y-78765000D01*
G75*
G02*
X207520000Y-78800000I0J-35000D01*
G01*
X207520000Y-80200000D01*
G75*
G02*
X207485000Y-80235000I-35000J0D01*
G01*
X207275000Y-80235000D01*
G75*
G02*
X207240000Y-80200000I0J35000D01*
G01*
X207240000Y-78800000D01*
G75*
G02*
X207275000Y-78765000I35000J0D01*
G01*
G37*
G36*
G01*
X207775000Y-78765000D02*
X207985000Y-78765000D01*
G75*
G02*
X208020000Y-78800000I0J-35000D01*
G01*
X208020000Y-80200000D01*
G75*
G02*
X207985000Y-80235000I-35000J0D01*
G01*
X207775000Y-80235000D01*
G75*
G02*
X207740000Y-80200000I0J35000D01*
G01*
X207740000Y-78800000D01*
G75*
G02*
X207775000Y-78765000I35000J0D01*
G01*
G37*
G36*
G01*
X208275000Y-78765000D02*
X208485000Y-78765000D01*
G75*
G02*
X208520000Y-78800000I0J-35000D01*
G01*
X208520000Y-80200000D01*
G75*
G02*
X208485000Y-80235000I-35000J0D01*
G01*
X208275000Y-80235000D01*
G75*
G02*
X208240000Y-80200000I0J35000D01*
G01*
X208240000Y-78800000D01*
G75*
G02*
X208275000Y-78765000I35000J0D01*
G01*
G37*
G36*
G01*
X208775000Y-78765000D02*
X208985000Y-78765000D01*
G75*
G02*
X209020000Y-78800000I0J-35000D01*
G01*
X209020000Y-80200000D01*
G75*
G02*
X208985000Y-80235000I-35000J0D01*
G01*
X208775000Y-80235000D01*
G75*
G02*
X208740000Y-80200000I0J35000D01*
G01*
X208740000Y-78800000D01*
G75*
G02*
X208775000Y-78765000I35000J0D01*
G01*
G37*
G36*
G01*
X209275000Y-78765000D02*
X209485000Y-78765000D01*
G75*
G02*
X209520000Y-78800000I0J-35000D01*
G01*
X209520000Y-80200000D01*
G75*
G02*
X209485000Y-80235000I-35000J0D01*
G01*
X209275000Y-80235000D01*
G75*
G02*
X209240000Y-80200000I0J35000D01*
G01*
X209240000Y-78800000D01*
G75*
G02*
X209275000Y-78765000I35000J0D01*
G01*
G37*
G36*
G01*
X209775000Y-78765000D02*
X209985000Y-78765000D01*
G75*
G02*
X210020000Y-78800000I0J-35000D01*
G01*
X210020000Y-80200000D01*
G75*
G02*
X209985000Y-80235000I-35000J0D01*
G01*
X209775000Y-80235000D01*
G75*
G02*
X209740000Y-80200000I0J35000D01*
G01*
X209740000Y-78800000D01*
G75*
G02*
X209775000Y-78765000I35000J0D01*
G01*
G37*
G36*
G01*
X210275000Y-78765000D02*
X210485000Y-78765000D01*
G75*
G02*
X210520000Y-78800000I0J-35000D01*
G01*
X210520000Y-80200000D01*
G75*
G02*
X210485000Y-80235000I-35000J0D01*
G01*
X210275000Y-80235000D01*
G75*
G02*
X210240000Y-80200000I0J35000D01*
G01*
X210240000Y-78800000D01*
G75*
G02*
X210275000Y-78765000I35000J0D01*
G01*
G37*
G36*
G01*
X210775000Y-78765000D02*
X210985000Y-78765000D01*
G75*
G02*
X211020000Y-78800000I0J-35000D01*
G01*
X211020000Y-80200000D01*
G75*
G02*
X210985000Y-80235000I-35000J0D01*
G01*
X210775000Y-80235000D01*
G75*
G02*
X210740000Y-80200000I0J35000D01*
G01*
X210740000Y-78800000D01*
G75*
G02*
X210775000Y-78765000I35000J0D01*
G01*
G37*
G36*
G01*
X211275000Y-78765000D02*
X211485000Y-78765000D01*
G75*
G02*
X211520000Y-78800000I0J-35000D01*
G01*
X211520000Y-80200000D01*
G75*
G02*
X211485000Y-80235000I-35000J0D01*
G01*
X211275000Y-80235000D01*
G75*
G02*
X211240000Y-80200000I0J35000D01*
G01*
X211240000Y-78800000D01*
G75*
G02*
X211275000Y-78765000I35000J0D01*
G01*
G37*
G36*
G01*
X211775000Y-78765000D02*
X211985000Y-78765000D01*
G75*
G02*
X212020000Y-78800000I0J-35000D01*
G01*
X212020000Y-80200000D01*
G75*
G02*
X211985000Y-80235000I-35000J0D01*
G01*
X211775000Y-80235000D01*
G75*
G02*
X211740000Y-80200000I0J35000D01*
G01*
X211740000Y-78800000D01*
G75*
G02*
X211775000Y-78765000I35000J0D01*
G01*
G37*
G36*
G01*
X212275000Y-78765000D02*
X212485000Y-78765000D01*
G75*
G02*
X212520000Y-78800000I0J-35000D01*
G01*
X212520000Y-80200000D01*
G75*
G02*
X212485000Y-80235000I-35000J0D01*
G01*
X212275000Y-80235000D01*
G75*
G02*
X212240000Y-80200000I0J35000D01*
G01*
X212240000Y-78800000D01*
G75*
G02*
X212275000Y-78765000I35000J0D01*
G01*
G37*
G36*
G01*
X212775000Y-78765000D02*
X212985000Y-78765000D01*
G75*
G02*
X213020000Y-78800000I0J-35000D01*
G01*
X213020000Y-80200000D01*
G75*
G02*
X212985000Y-80235000I-35000J0D01*
G01*
X212775000Y-80235000D01*
G75*
G02*
X212740000Y-80200000I0J35000D01*
G01*
X212740000Y-78800000D01*
G75*
G02*
X212775000Y-78765000I35000J0D01*
G01*
G37*
G36*
G01*
X213275000Y-78765000D02*
X213485000Y-78765000D01*
G75*
G02*
X213520000Y-78800000I0J-35000D01*
G01*
X213520000Y-80200000D01*
G75*
G02*
X213485000Y-80235000I-35000J0D01*
G01*
X213275000Y-80235000D01*
G75*
G02*
X213240000Y-80200000I0J35000D01*
G01*
X213240000Y-78800000D01*
G75*
G02*
X213275000Y-78765000I35000J0D01*
G01*
G37*
G36*
G01*
X213775000Y-78765000D02*
X213985000Y-78765000D01*
G75*
G02*
X214020000Y-78800000I0J-35000D01*
G01*
X214020000Y-80200000D01*
G75*
G02*
X213985000Y-80235000I-35000J0D01*
G01*
X213775000Y-80235000D01*
G75*
G02*
X213740000Y-80200000I0J35000D01*
G01*
X213740000Y-78800000D01*
G75*
G02*
X213775000Y-78765000I35000J0D01*
G01*
G37*
G36*
G01*
X214275000Y-78765000D02*
X214485000Y-78765000D01*
G75*
G02*
X214520000Y-78800000I0J-35000D01*
G01*
X214520000Y-80200000D01*
G75*
G02*
X214485000Y-80235000I-35000J0D01*
G01*
X214275000Y-80235000D01*
G75*
G02*
X214240000Y-80200000I0J35000D01*
G01*
X214240000Y-78800000D01*
G75*
G02*
X214275000Y-78765000I35000J0D01*
G01*
G37*
G36*
G01*
X214775000Y-78765000D02*
X214985000Y-78765000D01*
G75*
G02*
X215020000Y-78800000I0J-35000D01*
G01*
X215020000Y-80200000D01*
G75*
G02*
X214985000Y-80235000I-35000J0D01*
G01*
X214775000Y-80235000D01*
G75*
G02*
X214740000Y-80200000I0J35000D01*
G01*
X214740000Y-78800000D01*
G75*
G02*
X214775000Y-78765000I35000J0D01*
G01*
G37*
G36*
G01*
X215275000Y-78765000D02*
X215485000Y-78765000D01*
G75*
G02*
X215520000Y-78800000I0J-35000D01*
G01*
X215520000Y-80200000D01*
G75*
G02*
X215485000Y-80235000I-35000J0D01*
G01*
X215275000Y-80235000D01*
G75*
G02*
X215240000Y-80200000I0J35000D01*
G01*
X215240000Y-78800000D01*
G75*
G02*
X215275000Y-78765000I35000J0D01*
G01*
G37*
G36*
G01*
X215775000Y-78765000D02*
X215985000Y-78765000D01*
G75*
G02*
X216020000Y-78800000I0J-35000D01*
G01*
X216020000Y-80200000D01*
G75*
G02*
X215985000Y-80235000I-35000J0D01*
G01*
X215775000Y-80235000D01*
G75*
G02*
X215740000Y-80200000I0J35000D01*
G01*
X215740000Y-78800000D01*
G75*
G02*
X215775000Y-78765000I35000J0D01*
G01*
G37*
G36*
G01*
X216275000Y-78765000D02*
X216485000Y-78765000D01*
G75*
G02*
X216520000Y-78800000I0J-35000D01*
G01*
X216520000Y-80200000D01*
G75*
G02*
X216485000Y-80235000I-35000J0D01*
G01*
X216275000Y-80235000D01*
G75*
G02*
X216240000Y-80200000I0J35000D01*
G01*
X216240000Y-78800000D01*
G75*
G02*
X216275000Y-78765000I35000J0D01*
G01*
G37*
G36*
G01*
X216775000Y-78765000D02*
X216985000Y-78765000D01*
G75*
G02*
X217020000Y-78800000I0J-35000D01*
G01*
X217020000Y-80200000D01*
G75*
G02*
X216985000Y-80235000I-35000J0D01*
G01*
X216775000Y-80235000D01*
G75*
G02*
X216740000Y-80200000I0J35000D01*
G01*
X216740000Y-78800000D01*
G75*
G02*
X216775000Y-78765000I35000J0D01*
G01*
G37*
G36*
G01*
X217275000Y-78765000D02*
X217485000Y-78765000D01*
G75*
G02*
X217520000Y-78800000I0J-35000D01*
G01*
X217520000Y-80200000D01*
G75*
G02*
X217485000Y-80235000I-35000J0D01*
G01*
X217275000Y-80235000D01*
G75*
G02*
X217240000Y-80200000I0J35000D01*
G01*
X217240000Y-78800000D01*
G75*
G02*
X217275000Y-78765000I35000J0D01*
G01*
G37*
G36*
G01*
X217775000Y-78765000D02*
X217985000Y-78765000D01*
G75*
G02*
X218020000Y-78800000I0J-35000D01*
G01*
X218020000Y-80200000D01*
G75*
G02*
X217985000Y-80235000I-35000J0D01*
G01*
X217775000Y-80235000D01*
G75*
G02*
X217740000Y-80200000I0J35000D01*
G01*
X217740000Y-78800000D01*
G75*
G02*
X217775000Y-78765000I35000J0D01*
G01*
G37*
G36*
G01*
X218275000Y-78765000D02*
X218485000Y-78765000D01*
G75*
G02*
X218520000Y-78800000I0J-35000D01*
G01*
X218520000Y-80200000D01*
G75*
G02*
X218485000Y-80235000I-35000J0D01*
G01*
X218275000Y-80235000D01*
G75*
G02*
X218240000Y-80200000I0J35000D01*
G01*
X218240000Y-78800000D01*
G75*
G02*
X218275000Y-78765000I35000J0D01*
G01*
G37*
G36*
G01*
X218775000Y-78765000D02*
X218985000Y-78765000D01*
G75*
G02*
X219020000Y-78800000I0J-35000D01*
G01*
X219020000Y-80200000D01*
G75*
G02*
X218985000Y-80235000I-35000J0D01*
G01*
X218775000Y-80235000D01*
G75*
G02*
X218740000Y-80200000I0J35000D01*
G01*
X218740000Y-78800000D01*
G75*
G02*
X218775000Y-78765000I35000J0D01*
G01*
G37*
G36*
G01*
X219275000Y-78765000D02*
X219485000Y-78765000D01*
G75*
G02*
X219520000Y-78800000I0J-35000D01*
G01*
X219520000Y-80200000D01*
G75*
G02*
X219485000Y-80235000I-35000J0D01*
G01*
X219275000Y-80235000D01*
G75*
G02*
X219240000Y-80200000I0J35000D01*
G01*
X219240000Y-78800000D01*
G75*
G02*
X219275000Y-78765000I35000J0D01*
G01*
G37*
G36*
G01*
X219775000Y-78765000D02*
X219985000Y-78765000D01*
G75*
G02*
X220020000Y-78800000I0J-35000D01*
G01*
X220020000Y-80200000D01*
G75*
G02*
X219985000Y-80235000I-35000J0D01*
G01*
X219775000Y-80235000D01*
G75*
G02*
X219740000Y-80200000I0J35000D01*
G01*
X219740000Y-78800000D01*
G75*
G02*
X219775000Y-78765000I35000J0D01*
G01*
G37*
G36*
G01*
X220275000Y-78765000D02*
X220485000Y-78765000D01*
G75*
G02*
X220520000Y-78800000I0J-35000D01*
G01*
X220520000Y-80200000D01*
G75*
G02*
X220485000Y-80235000I-35000J0D01*
G01*
X220275000Y-80235000D01*
G75*
G02*
X220240000Y-80200000I0J35000D01*
G01*
X220240000Y-78800000D01*
G75*
G02*
X220275000Y-78765000I35000J0D01*
G01*
G37*
G36*
G01*
X220775000Y-78765000D02*
X220985000Y-78765000D01*
G75*
G02*
X221020000Y-78800000I0J-35000D01*
G01*
X221020000Y-80200000D01*
G75*
G02*
X220985000Y-80235000I-35000J0D01*
G01*
X220775000Y-80235000D01*
G75*
G02*
X220740000Y-80200000I0J35000D01*
G01*
X220740000Y-78800000D01*
G75*
G02*
X220775000Y-78765000I35000J0D01*
G01*
G37*
G36*
G01*
X221275000Y-78765000D02*
X221485000Y-78765000D01*
G75*
G02*
X221520000Y-78800000I0J-35000D01*
G01*
X221520000Y-80200000D01*
G75*
G02*
X221485000Y-80235000I-35000J0D01*
G01*
X221275000Y-80235000D01*
G75*
G02*
X221240000Y-80200000I0J35000D01*
G01*
X221240000Y-78800000D01*
G75*
G02*
X221275000Y-78765000I35000J0D01*
G01*
G37*
G36*
G01*
X221775000Y-78765000D02*
X221985000Y-78765000D01*
G75*
G02*
X222020000Y-78800000I0J-35000D01*
G01*
X222020000Y-80200000D01*
G75*
G02*
X221985000Y-80235000I-35000J0D01*
G01*
X221775000Y-80235000D01*
G75*
G02*
X221740000Y-80200000I0J35000D01*
G01*
X221740000Y-78800000D01*
G75*
G02*
X221775000Y-78765000I35000J0D01*
G01*
G37*
G36*
G01*
X222275000Y-78765000D02*
X222485000Y-78765000D01*
G75*
G02*
X222520000Y-78800000I0J-35000D01*
G01*
X222520000Y-80200000D01*
G75*
G02*
X222485000Y-80235000I-35000J0D01*
G01*
X222275000Y-80235000D01*
G75*
G02*
X222240000Y-80200000I0J35000D01*
G01*
X222240000Y-78800000D01*
G75*
G02*
X222275000Y-78765000I35000J0D01*
G01*
G37*
G36*
G01*
X222775000Y-78765000D02*
X222985000Y-78765000D01*
G75*
G02*
X223020000Y-78800000I0J-35000D01*
G01*
X223020000Y-80200000D01*
G75*
G02*
X222985000Y-80235000I-35000J0D01*
G01*
X222775000Y-80235000D01*
G75*
G02*
X222740000Y-80200000I0J35000D01*
G01*
X222740000Y-78800000D01*
G75*
G02*
X222775000Y-78765000I35000J0D01*
G01*
G37*
G36*
G01*
X223275000Y-78765000D02*
X223485000Y-78765000D01*
G75*
G02*
X223520000Y-78800000I0J-35000D01*
G01*
X223520000Y-80200000D01*
G75*
G02*
X223485000Y-80235000I-35000J0D01*
G01*
X223275000Y-80235000D01*
G75*
G02*
X223240000Y-80200000I0J35000D01*
G01*
X223240000Y-78800000D01*
G75*
G02*
X223275000Y-78765000I35000J0D01*
G01*
G37*
G36*
G01*
X224600000Y-81280000D02*
X226000000Y-81280000D01*
G75*
G02*
X226035000Y-81315000I0J-35000D01*
G01*
X226035000Y-81525000D01*
G75*
G02*
X226000000Y-81560000I-35000J0D01*
G01*
X224600000Y-81560000D01*
G75*
G02*
X224565000Y-81525000I0J35000D01*
G01*
X224565000Y-81315000D01*
G75*
G02*
X224600000Y-81280000I35000J0D01*
G01*
G37*
G36*
G01*
X224600000Y-81780000D02*
X226000000Y-81780000D01*
G75*
G02*
X226035000Y-81815000I0J-35000D01*
G01*
X226035000Y-82025000D01*
G75*
G02*
X226000000Y-82060000I-35000J0D01*
G01*
X224600000Y-82060000D01*
G75*
G02*
X224565000Y-82025000I0J35000D01*
G01*
X224565000Y-81815000D01*
G75*
G02*
X224600000Y-81780000I35000J0D01*
G01*
G37*
G36*
G01*
X224600000Y-82280000D02*
X226000000Y-82280000D01*
G75*
G02*
X226035000Y-82315000I0J-35000D01*
G01*
X226035000Y-82525000D01*
G75*
G02*
X226000000Y-82560000I-35000J0D01*
G01*
X224600000Y-82560000D01*
G75*
G02*
X224565000Y-82525000I0J35000D01*
G01*
X224565000Y-82315000D01*
G75*
G02*
X224600000Y-82280000I35000J0D01*
G01*
G37*
G36*
G01*
X224600000Y-82780000D02*
X226000000Y-82780000D01*
G75*
G02*
X226035000Y-82815000I0J-35000D01*
G01*
X226035000Y-83025000D01*
G75*
G02*
X226000000Y-83060000I-35000J0D01*
G01*
X224600000Y-83060000D01*
G75*
G02*
X224565000Y-83025000I0J35000D01*
G01*
X224565000Y-82815000D01*
G75*
G02*
X224600000Y-82780000I35000J0D01*
G01*
G37*
G36*
G01*
X224600000Y-83280000D02*
X226000000Y-83280000D01*
G75*
G02*
X226035000Y-83315000I0J-35000D01*
G01*
X226035000Y-83525000D01*
G75*
G02*
X226000000Y-83560000I-35000J0D01*
G01*
X224600000Y-83560000D01*
G75*
G02*
X224565000Y-83525000I0J35000D01*
G01*
X224565000Y-83315000D01*
G75*
G02*
X224600000Y-83280000I35000J0D01*
G01*
G37*
G36*
G01*
X224600000Y-83780000D02*
X226000000Y-83780000D01*
G75*
G02*
X226035000Y-83815000I0J-35000D01*
G01*
X226035000Y-84025000D01*
G75*
G02*
X226000000Y-84060000I-35000J0D01*
G01*
X224600000Y-84060000D01*
G75*
G02*
X224565000Y-84025000I0J35000D01*
G01*
X224565000Y-83815000D01*
G75*
G02*
X224600000Y-83780000I35000J0D01*
G01*
G37*
G36*
G01*
X224600000Y-84280000D02*
X226000000Y-84280000D01*
G75*
G02*
X226035000Y-84315000I0J-35000D01*
G01*
X226035000Y-84525000D01*
G75*
G02*
X226000000Y-84560000I-35000J0D01*
G01*
X224600000Y-84560000D01*
G75*
G02*
X224565000Y-84525000I0J35000D01*
G01*
X224565000Y-84315000D01*
G75*
G02*
X224600000Y-84280000I35000J0D01*
G01*
G37*
G36*
G01*
X224600000Y-84780000D02*
X226000000Y-84780000D01*
G75*
G02*
X226035000Y-84815000I0J-35000D01*
G01*
X226035000Y-85025000D01*
G75*
G02*
X226000000Y-85060000I-35000J0D01*
G01*
X224600000Y-85060000D01*
G75*
G02*
X224565000Y-85025000I0J35000D01*
G01*
X224565000Y-84815000D01*
G75*
G02*
X224600000Y-84780000I35000J0D01*
G01*
G37*
G36*
G01*
X224600000Y-85280000D02*
X226000000Y-85280000D01*
G75*
G02*
X226035000Y-85315000I0J-35000D01*
G01*
X226035000Y-85525000D01*
G75*
G02*
X226000000Y-85560000I-35000J0D01*
G01*
X224600000Y-85560000D01*
G75*
G02*
X224565000Y-85525000I0J35000D01*
G01*
X224565000Y-85315000D01*
G75*
G02*
X224600000Y-85280000I35000J0D01*
G01*
G37*
G36*
G01*
X224600000Y-85780000D02*
X226000000Y-85780000D01*
G75*
G02*
X226035000Y-85815000I0J-35000D01*
G01*
X226035000Y-86025000D01*
G75*
G02*
X226000000Y-86060000I-35000J0D01*
G01*
X224600000Y-86060000D01*
G75*
G02*
X224565000Y-86025000I0J35000D01*
G01*
X224565000Y-85815000D01*
G75*
G02*
X224600000Y-85780000I35000J0D01*
G01*
G37*
G36*
G01*
X224600000Y-86280000D02*
X226000000Y-86280000D01*
G75*
G02*
X226035000Y-86315000I0J-35000D01*
G01*
X226035000Y-86525000D01*
G75*
G02*
X226000000Y-86560000I-35000J0D01*
G01*
X224600000Y-86560000D01*
G75*
G02*
X224565000Y-86525000I0J35000D01*
G01*
X224565000Y-86315000D01*
G75*
G02*
X224600000Y-86280000I35000J0D01*
G01*
G37*
G36*
G01*
X224600000Y-86780000D02*
X226000000Y-86780000D01*
G75*
G02*
X226035000Y-86815000I0J-35000D01*
G01*
X226035000Y-87025000D01*
G75*
G02*
X226000000Y-87060000I-35000J0D01*
G01*
X224600000Y-87060000D01*
G75*
G02*
X224565000Y-87025000I0J35000D01*
G01*
X224565000Y-86815000D01*
G75*
G02*
X224600000Y-86780000I35000J0D01*
G01*
G37*
G36*
G01*
X224600000Y-87280000D02*
X226000000Y-87280000D01*
G75*
G02*
X226035000Y-87315000I0J-35000D01*
G01*
X226035000Y-87525000D01*
G75*
G02*
X226000000Y-87560000I-35000J0D01*
G01*
X224600000Y-87560000D01*
G75*
G02*
X224565000Y-87525000I0J35000D01*
G01*
X224565000Y-87315000D01*
G75*
G02*
X224600000Y-87280000I35000J0D01*
G01*
G37*
G36*
G01*
X224600000Y-87780000D02*
X226000000Y-87780000D01*
G75*
G02*
X226035000Y-87815000I0J-35000D01*
G01*
X226035000Y-88025000D01*
G75*
G02*
X226000000Y-88060000I-35000J0D01*
G01*
X224600000Y-88060000D01*
G75*
G02*
X224565000Y-88025000I0J35000D01*
G01*
X224565000Y-87815000D01*
G75*
G02*
X224600000Y-87780000I35000J0D01*
G01*
G37*
G36*
G01*
X224600000Y-88280000D02*
X226000000Y-88280000D01*
G75*
G02*
X226035000Y-88315000I0J-35000D01*
G01*
X226035000Y-88525000D01*
G75*
G02*
X226000000Y-88560000I-35000J0D01*
G01*
X224600000Y-88560000D01*
G75*
G02*
X224565000Y-88525000I0J35000D01*
G01*
X224565000Y-88315000D01*
G75*
G02*
X224600000Y-88280000I35000J0D01*
G01*
G37*
G36*
G01*
X224600000Y-88780000D02*
X226000000Y-88780000D01*
G75*
G02*
X226035000Y-88815000I0J-35000D01*
G01*
X226035000Y-89025000D01*
G75*
G02*
X226000000Y-89060000I-35000J0D01*
G01*
X224600000Y-89060000D01*
G75*
G02*
X224565000Y-89025000I0J35000D01*
G01*
X224565000Y-88815000D01*
G75*
G02*
X224600000Y-88780000I35000J0D01*
G01*
G37*
G36*
G01*
X224600000Y-89280000D02*
X226000000Y-89280000D01*
G75*
G02*
X226035000Y-89315000I0J-35000D01*
G01*
X226035000Y-89525000D01*
G75*
G02*
X226000000Y-89560000I-35000J0D01*
G01*
X224600000Y-89560000D01*
G75*
G02*
X224565000Y-89525000I0J35000D01*
G01*
X224565000Y-89315000D01*
G75*
G02*
X224600000Y-89280000I35000J0D01*
G01*
G37*
G36*
G01*
X224600000Y-89780000D02*
X226000000Y-89780000D01*
G75*
G02*
X226035000Y-89815000I0J-35000D01*
G01*
X226035000Y-90025000D01*
G75*
G02*
X226000000Y-90060000I-35000J0D01*
G01*
X224600000Y-90060000D01*
G75*
G02*
X224565000Y-90025000I0J35000D01*
G01*
X224565000Y-89815000D01*
G75*
G02*
X224600000Y-89780000I35000J0D01*
G01*
G37*
G36*
G01*
X224600000Y-90280000D02*
X226000000Y-90280000D01*
G75*
G02*
X226035000Y-90315000I0J-35000D01*
G01*
X226035000Y-90525000D01*
G75*
G02*
X226000000Y-90560000I-35000J0D01*
G01*
X224600000Y-90560000D01*
G75*
G02*
X224565000Y-90525000I0J35000D01*
G01*
X224565000Y-90315000D01*
G75*
G02*
X224600000Y-90280000I35000J0D01*
G01*
G37*
G36*
G01*
X224600000Y-90780000D02*
X226000000Y-90780000D01*
G75*
G02*
X226035000Y-90815000I0J-35000D01*
G01*
X226035000Y-91025000D01*
G75*
G02*
X226000000Y-91060000I-35000J0D01*
G01*
X224600000Y-91060000D01*
G75*
G02*
X224565000Y-91025000I0J35000D01*
G01*
X224565000Y-90815000D01*
G75*
G02*
X224600000Y-90780000I35000J0D01*
G01*
G37*
G36*
G01*
X224600000Y-91280000D02*
X226000000Y-91280000D01*
G75*
G02*
X226035000Y-91315000I0J-35000D01*
G01*
X226035000Y-91525000D01*
G75*
G02*
X226000000Y-91560000I-35000J0D01*
G01*
X224600000Y-91560000D01*
G75*
G02*
X224565000Y-91525000I0J35000D01*
G01*
X224565000Y-91315000D01*
G75*
G02*
X224600000Y-91280000I35000J0D01*
G01*
G37*
G36*
G01*
X224600000Y-91780000D02*
X226000000Y-91780000D01*
G75*
G02*
X226035000Y-91815000I0J-35000D01*
G01*
X226035000Y-92025000D01*
G75*
G02*
X226000000Y-92060000I-35000J0D01*
G01*
X224600000Y-92060000D01*
G75*
G02*
X224565000Y-92025000I0J35000D01*
G01*
X224565000Y-91815000D01*
G75*
G02*
X224600000Y-91780000I35000J0D01*
G01*
G37*
G36*
G01*
X224600000Y-92280000D02*
X226000000Y-92280000D01*
G75*
G02*
X226035000Y-92315000I0J-35000D01*
G01*
X226035000Y-92525000D01*
G75*
G02*
X226000000Y-92560000I-35000J0D01*
G01*
X224600000Y-92560000D01*
G75*
G02*
X224565000Y-92525000I0J35000D01*
G01*
X224565000Y-92315000D01*
G75*
G02*
X224600000Y-92280000I35000J0D01*
G01*
G37*
G36*
G01*
X224600000Y-92780000D02*
X226000000Y-92780000D01*
G75*
G02*
X226035000Y-92815000I0J-35000D01*
G01*
X226035000Y-93025000D01*
G75*
G02*
X226000000Y-93060000I-35000J0D01*
G01*
X224600000Y-93060000D01*
G75*
G02*
X224565000Y-93025000I0J35000D01*
G01*
X224565000Y-92815000D01*
G75*
G02*
X224600000Y-92780000I35000J0D01*
G01*
G37*
G36*
G01*
X224600000Y-93280000D02*
X226000000Y-93280000D01*
G75*
G02*
X226035000Y-93315000I0J-35000D01*
G01*
X226035000Y-93525000D01*
G75*
G02*
X226000000Y-93560000I-35000J0D01*
G01*
X224600000Y-93560000D01*
G75*
G02*
X224565000Y-93525000I0J35000D01*
G01*
X224565000Y-93315000D01*
G75*
G02*
X224600000Y-93280000I35000J0D01*
G01*
G37*
G36*
G01*
X224600000Y-93780000D02*
X226000000Y-93780000D01*
G75*
G02*
X226035000Y-93815000I0J-35000D01*
G01*
X226035000Y-94025000D01*
G75*
G02*
X226000000Y-94060000I-35000J0D01*
G01*
X224600000Y-94060000D01*
G75*
G02*
X224565000Y-94025000I0J35000D01*
G01*
X224565000Y-93815000D01*
G75*
G02*
X224600000Y-93780000I35000J0D01*
G01*
G37*
G36*
G01*
X224600000Y-94280000D02*
X226000000Y-94280000D01*
G75*
G02*
X226035000Y-94315000I0J-35000D01*
G01*
X226035000Y-94525000D01*
G75*
G02*
X226000000Y-94560000I-35000J0D01*
G01*
X224600000Y-94560000D01*
G75*
G02*
X224565000Y-94525000I0J35000D01*
G01*
X224565000Y-94315000D01*
G75*
G02*
X224600000Y-94280000I35000J0D01*
G01*
G37*
G36*
G01*
X224600000Y-94780000D02*
X226000000Y-94780000D01*
G75*
G02*
X226035000Y-94815000I0J-35000D01*
G01*
X226035000Y-95025000D01*
G75*
G02*
X226000000Y-95060000I-35000J0D01*
G01*
X224600000Y-95060000D01*
G75*
G02*
X224565000Y-95025000I0J35000D01*
G01*
X224565000Y-94815000D01*
G75*
G02*
X224600000Y-94780000I35000J0D01*
G01*
G37*
G36*
G01*
X224600000Y-95280000D02*
X226000000Y-95280000D01*
G75*
G02*
X226035000Y-95315000I0J-35000D01*
G01*
X226035000Y-95525000D01*
G75*
G02*
X226000000Y-95560000I-35000J0D01*
G01*
X224600000Y-95560000D01*
G75*
G02*
X224565000Y-95525000I0J35000D01*
G01*
X224565000Y-95315000D01*
G75*
G02*
X224600000Y-95280000I35000J0D01*
G01*
G37*
G36*
G01*
X224600000Y-95780000D02*
X226000000Y-95780000D01*
G75*
G02*
X226035000Y-95815000I0J-35000D01*
G01*
X226035000Y-96025000D01*
G75*
G02*
X226000000Y-96060000I-35000J0D01*
G01*
X224600000Y-96060000D01*
G75*
G02*
X224565000Y-96025000I0J35000D01*
G01*
X224565000Y-95815000D01*
G75*
G02*
X224600000Y-95780000I35000J0D01*
G01*
G37*
G36*
G01*
X224600000Y-96280000D02*
X226000000Y-96280000D01*
G75*
G02*
X226035000Y-96315000I0J-35000D01*
G01*
X226035000Y-96525000D01*
G75*
G02*
X226000000Y-96560000I-35000J0D01*
G01*
X224600000Y-96560000D01*
G75*
G02*
X224565000Y-96525000I0J35000D01*
G01*
X224565000Y-96315000D01*
G75*
G02*
X224600000Y-96280000I35000J0D01*
G01*
G37*
G36*
G01*
X224600000Y-96780000D02*
X226000000Y-96780000D01*
G75*
G02*
X226035000Y-96815000I0J-35000D01*
G01*
X226035000Y-97025000D01*
G75*
G02*
X226000000Y-97060000I-35000J0D01*
G01*
X224600000Y-97060000D01*
G75*
G02*
X224565000Y-97025000I0J35000D01*
G01*
X224565000Y-96815000D01*
G75*
G02*
X224600000Y-96780000I35000J0D01*
G01*
G37*
G36*
G01*
X224600000Y-97280000D02*
X226000000Y-97280000D01*
G75*
G02*
X226035000Y-97315000I0J-35000D01*
G01*
X226035000Y-97525000D01*
G75*
G02*
X226000000Y-97560000I-35000J0D01*
G01*
X224600000Y-97560000D01*
G75*
G02*
X224565000Y-97525000I0J35000D01*
G01*
X224565000Y-97315000D01*
G75*
G02*
X224600000Y-97280000I35000J0D01*
G01*
G37*
G36*
G01*
X224600000Y-97780000D02*
X226000000Y-97780000D01*
G75*
G02*
X226035000Y-97815000I0J-35000D01*
G01*
X226035000Y-98025000D01*
G75*
G02*
X226000000Y-98060000I-35000J0D01*
G01*
X224600000Y-98060000D01*
G75*
G02*
X224565000Y-98025000I0J35000D01*
G01*
X224565000Y-97815000D01*
G75*
G02*
X224600000Y-97780000I35000J0D01*
G01*
G37*
G36*
G01*
X224600000Y-98280000D02*
X226000000Y-98280000D01*
G75*
G02*
X226035000Y-98315000I0J-35000D01*
G01*
X226035000Y-98525000D01*
G75*
G02*
X226000000Y-98560000I-35000J0D01*
G01*
X224600000Y-98560000D01*
G75*
G02*
X224565000Y-98525000I0J35000D01*
G01*
X224565000Y-98315000D01*
G75*
G02*
X224600000Y-98280000I35000J0D01*
G01*
G37*
G36*
G01*
X224600000Y-98780000D02*
X226000000Y-98780000D01*
G75*
G02*
X226035000Y-98815000I0J-35000D01*
G01*
X226035000Y-99025000D01*
G75*
G02*
X226000000Y-99060000I-35000J0D01*
G01*
X224600000Y-99060000D01*
G75*
G02*
X224565000Y-99025000I0J35000D01*
G01*
X224565000Y-98815000D01*
G75*
G02*
X224600000Y-98780000I35000J0D01*
G01*
G37*
G36*
G01*
X203260000Y-98780000D02*
X204660000Y-98780000D01*
G75*
G02*
X204695000Y-98815000I0J-35000D01*
G01*
X204695000Y-99025000D01*
G75*
G02*
X204660000Y-99060000I-35000J0D01*
G01*
X203260000Y-99060000D01*
G75*
G02*
X203225000Y-99025000I0J35000D01*
G01*
X203225000Y-98815000D01*
G75*
G02*
X203260000Y-98780000I35000J0D01*
G01*
G37*
G36*
G01*
X203260000Y-98280000D02*
X204660000Y-98280000D01*
G75*
G02*
X204695000Y-98315000I0J-35000D01*
G01*
X204695000Y-98525000D01*
G75*
G02*
X204660000Y-98560000I-35000J0D01*
G01*
X203260000Y-98560000D01*
G75*
G02*
X203225000Y-98525000I0J35000D01*
G01*
X203225000Y-98315000D01*
G75*
G02*
X203260000Y-98280000I35000J0D01*
G01*
G37*
G36*
G01*
X203260000Y-97780000D02*
X204660000Y-97780000D01*
G75*
G02*
X204695000Y-97815000I0J-35000D01*
G01*
X204695000Y-98025000D01*
G75*
G02*
X204660000Y-98060000I-35000J0D01*
G01*
X203260000Y-98060000D01*
G75*
G02*
X203225000Y-98025000I0J35000D01*
G01*
X203225000Y-97815000D01*
G75*
G02*
X203260000Y-97780000I35000J0D01*
G01*
G37*
G36*
G01*
X203260000Y-97280000D02*
X204660000Y-97280000D01*
G75*
G02*
X204695000Y-97315000I0J-35000D01*
G01*
X204695000Y-97525000D01*
G75*
G02*
X204660000Y-97560000I-35000J0D01*
G01*
X203260000Y-97560000D01*
G75*
G02*
X203225000Y-97525000I0J35000D01*
G01*
X203225000Y-97315000D01*
G75*
G02*
X203260000Y-97280000I35000J0D01*
G01*
G37*
G36*
G01*
X203260000Y-96780000D02*
X204660000Y-96780000D01*
G75*
G02*
X204695000Y-96815000I0J-35000D01*
G01*
X204695000Y-97025000D01*
G75*
G02*
X204660000Y-97060000I-35000J0D01*
G01*
X203260000Y-97060000D01*
G75*
G02*
X203225000Y-97025000I0J35000D01*
G01*
X203225000Y-96815000D01*
G75*
G02*
X203260000Y-96780000I35000J0D01*
G01*
G37*
G36*
G01*
X203260000Y-96280000D02*
X204660000Y-96280000D01*
G75*
G02*
X204695000Y-96315000I0J-35000D01*
G01*
X204695000Y-96525000D01*
G75*
G02*
X204660000Y-96560000I-35000J0D01*
G01*
X203260000Y-96560000D01*
G75*
G02*
X203225000Y-96525000I0J35000D01*
G01*
X203225000Y-96315000D01*
G75*
G02*
X203260000Y-96280000I35000J0D01*
G01*
G37*
G36*
G01*
X203260000Y-95780000D02*
X204660000Y-95780000D01*
G75*
G02*
X204695000Y-95815000I0J-35000D01*
G01*
X204695000Y-96025000D01*
G75*
G02*
X204660000Y-96060000I-35000J0D01*
G01*
X203260000Y-96060000D01*
G75*
G02*
X203225000Y-96025000I0J35000D01*
G01*
X203225000Y-95815000D01*
G75*
G02*
X203260000Y-95780000I35000J0D01*
G01*
G37*
G36*
G01*
X203260000Y-95280000D02*
X204660000Y-95280000D01*
G75*
G02*
X204695000Y-95315000I0J-35000D01*
G01*
X204695000Y-95525000D01*
G75*
G02*
X204660000Y-95560000I-35000J0D01*
G01*
X203260000Y-95560000D01*
G75*
G02*
X203225000Y-95525000I0J35000D01*
G01*
X203225000Y-95315000D01*
G75*
G02*
X203260000Y-95280000I35000J0D01*
G01*
G37*
G36*
G01*
X203260000Y-94780000D02*
X204660000Y-94780000D01*
G75*
G02*
X204695000Y-94815000I0J-35000D01*
G01*
X204695000Y-95025000D01*
G75*
G02*
X204660000Y-95060000I-35000J0D01*
G01*
X203260000Y-95060000D01*
G75*
G02*
X203225000Y-95025000I0J35000D01*
G01*
X203225000Y-94815000D01*
G75*
G02*
X203260000Y-94780000I35000J0D01*
G01*
G37*
G36*
G01*
X203260000Y-94280000D02*
X204660000Y-94280000D01*
G75*
G02*
X204695000Y-94315000I0J-35000D01*
G01*
X204695000Y-94525000D01*
G75*
G02*
X204660000Y-94560000I-35000J0D01*
G01*
X203260000Y-94560000D01*
G75*
G02*
X203225000Y-94525000I0J35000D01*
G01*
X203225000Y-94315000D01*
G75*
G02*
X203260000Y-94280000I35000J0D01*
G01*
G37*
G36*
G01*
X203260000Y-93780000D02*
X204660000Y-93780000D01*
G75*
G02*
X204695000Y-93815000I0J-35000D01*
G01*
X204695000Y-94025000D01*
G75*
G02*
X204660000Y-94060000I-35000J0D01*
G01*
X203260000Y-94060000D01*
G75*
G02*
X203225000Y-94025000I0J35000D01*
G01*
X203225000Y-93815000D01*
G75*
G02*
X203260000Y-93780000I35000J0D01*
G01*
G37*
G36*
G01*
X203260000Y-93280000D02*
X204660000Y-93280000D01*
G75*
G02*
X204695000Y-93315000I0J-35000D01*
G01*
X204695000Y-93525000D01*
G75*
G02*
X204660000Y-93560000I-35000J0D01*
G01*
X203260000Y-93560000D01*
G75*
G02*
X203225000Y-93525000I0J35000D01*
G01*
X203225000Y-93315000D01*
G75*
G02*
X203260000Y-93280000I35000J0D01*
G01*
G37*
G36*
G01*
X203260000Y-92780000D02*
X204660000Y-92780000D01*
G75*
G02*
X204695000Y-92815000I0J-35000D01*
G01*
X204695000Y-93025000D01*
G75*
G02*
X204660000Y-93060000I-35000J0D01*
G01*
X203260000Y-93060000D01*
G75*
G02*
X203225000Y-93025000I0J35000D01*
G01*
X203225000Y-92815000D01*
G75*
G02*
X203260000Y-92780000I35000J0D01*
G01*
G37*
G36*
G01*
X203260000Y-92280000D02*
X204660000Y-92280000D01*
G75*
G02*
X204695000Y-92315000I0J-35000D01*
G01*
X204695000Y-92525000D01*
G75*
G02*
X204660000Y-92560000I-35000J0D01*
G01*
X203260000Y-92560000D01*
G75*
G02*
X203225000Y-92525000I0J35000D01*
G01*
X203225000Y-92315000D01*
G75*
G02*
X203260000Y-92280000I35000J0D01*
G01*
G37*
G36*
G01*
X203260000Y-91780000D02*
X204660000Y-91780000D01*
G75*
G02*
X204695000Y-91815000I0J-35000D01*
G01*
X204695000Y-92025000D01*
G75*
G02*
X204660000Y-92060000I-35000J0D01*
G01*
X203260000Y-92060000D01*
G75*
G02*
X203225000Y-92025000I0J35000D01*
G01*
X203225000Y-91815000D01*
G75*
G02*
X203260000Y-91780000I35000J0D01*
G01*
G37*
G36*
G01*
X203260000Y-91280000D02*
X204660000Y-91280000D01*
G75*
G02*
X204695000Y-91315000I0J-35000D01*
G01*
X204695000Y-91525000D01*
G75*
G02*
X204660000Y-91560000I-35000J0D01*
G01*
X203260000Y-91560000D01*
G75*
G02*
X203225000Y-91525000I0J35000D01*
G01*
X203225000Y-91315000D01*
G75*
G02*
X203260000Y-91280000I35000J0D01*
G01*
G37*
G36*
G01*
X203260000Y-90780000D02*
X204660000Y-90780000D01*
G75*
G02*
X204695000Y-90815000I0J-35000D01*
G01*
X204695000Y-91025000D01*
G75*
G02*
X204660000Y-91060000I-35000J0D01*
G01*
X203260000Y-91060000D01*
G75*
G02*
X203225000Y-91025000I0J35000D01*
G01*
X203225000Y-90815000D01*
G75*
G02*
X203260000Y-90780000I35000J0D01*
G01*
G37*
G36*
G01*
X203260000Y-90280000D02*
X204660000Y-90280000D01*
G75*
G02*
X204695000Y-90315000I0J-35000D01*
G01*
X204695000Y-90525000D01*
G75*
G02*
X204660000Y-90560000I-35000J0D01*
G01*
X203260000Y-90560000D01*
G75*
G02*
X203225000Y-90525000I0J35000D01*
G01*
X203225000Y-90315000D01*
G75*
G02*
X203260000Y-90280000I35000J0D01*
G01*
G37*
G36*
G01*
X203260000Y-89780000D02*
X204660000Y-89780000D01*
G75*
G02*
X204695000Y-89815000I0J-35000D01*
G01*
X204695000Y-90025000D01*
G75*
G02*
X204660000Y-90060000I-35000J0D01*
G01*
X203260000Y-90060000D01*
G75*
G02*
X203225000Y-90025000I0J35000D01*
G01*
X203225000Y-89815000D01*
G75*
G02*
X203260000Y-89780000I35000J0D01*
G01*
G37*
G36*
G01*
X203260000Y-89280000D02*
X204660000Y-89280000D01*
G75*
G02*
X204695000Y-89315000I0J-35000D01*
G01*
X204695000Y-89525000D01*
G75*
G02*
X204660000Y-89560000I-35000J0D01*
G01*
X203260000Y-89560000D01*
G75*
G02*
X203225000Y-89525000I0J35000D01*
G01*
X203225000Y-89315000D01*
G75*
G02*
X203260000Y-89280000I35000J0D01*
G01*
G37*
G36*
G01*
X203260000Y-88780000D02*
X204660000Y-88780000D01*
G75*
G02*
X204695000Y-88815000I0J-35000D01*
G01*
X204695000Y-89025000D01*
G75*
G02*
X204660000Y-89060000I-35000J0D01*
G01*
X203260000Y-89060000D01*
G75*
G02*
X203225000Y-89025000I0J35000D01*
G01*
X203225000Y-88815000D01*
G75*
G02*
X203260000Y-88780000I35000J0D01*
G01*
G37*
G36*
G01*
X203260000Y-88280000D02*
X204660000Y-88280000D01*
G75*
G02*
X204695000Y-88315000I0J-35000D01*
G01*
X204695000Y-88525000D01*
G75*
G02*
X204660000Y-88560000I-35000J0D01*
G01*
X203260000Y-88560000D01*
G75*
G02*
X203225000Y-88525000I0J35000D01*
G01*
X203225000Y-88315000D01*
G75*
G02*
X203260000Y-88280000I35000J0D01*
G01*
G37*
G36*
G01*
X203260000Y-87780000D02*
X204660000Y-87780000D01*
G75*
G02*
X204695000Y-87815000I0J-35000D01*
G01*
X204695000Y-88025000D01*
G75*
G02*
X204660000Y-88060000I-35000J0D01*
G01*
X203260000Y-88060000D01*
G75*
G02*
X203225000Y-88025000I0J35000D01*
G01*
X203225000Y-87815000D01*
G75*
G02*
X203260000Y-87780000I35000J0D01*
G01*
G37*
G36*
G01*
X203260000Y-87280000D02*
X204660000Y-87280000D01*
G75*
G02*
X204695000Y-87315000I0J-35000D01*
G01*
X204695000Y-87525000D01*
G75*
G02*
X204660000Y-87560000I-35000J0D01*
G01*
X203260000Y-87560000D01*
G75*
G02*
X203225000Y-87525000I0J35000D01*
G01*
X203225000Y-87315000D01*
G75*
G02*
X203260000Y-87280000I35000J0D01*
G01*
G37*
G36*
G01*
X203260000Y-86780000D02*
X204660000Y-86780000D01*
G75*
G02*
X204695000Y-86815000I0J-35000D01*
G01*
X204695000Y-87025000D01*
G75*
G02*
X204660000Y-87060000I-35000J0D01*
G01*
X203260000Y-87060000D01*
G75*
G02*
X203225000Y-87025000I0J35000D01*
G01*
X203225000Y-86815000D01*
G75*
G02*
X203260000Y-86780000I35000J0D01*
G01*
G37*
G36*
G01*
X203260000Y-86280000D02*
X204660000Y-86280000D01*
G75*
G02*
X204695000Y-86315000I0J-35000D01*
G01*
X204695000Y-86525000D01*
G75*
G02*
X204660000Y-86560000I-35000J0D01*
G01*
X203260000Y-86560000D01*
G75*
G02*
X203225000Y-86525000I0J35000D01*
G01*
X203225000Y-86315000D01*
G75*
G02*
X203260000Y-86280000I35000J0D01*
G01*
G37*
G36*
G01*
X203260000Y-85780000D02*
X204660000Y-85780000D01*
G75*
G02*
X204695000Y-85815000I0J-35000D01*
G01*
X204695000Y-86025000D01*
G75*
G02*
X204660000Y-86060000I-35000J0D01*
G01*
X203260000Y-86060000D01*
G75*
G02*
X203225000Y-86025000I0J35000D01*
G01*
X203225000Y-85815000D01*
G75*
G02*
X203260000Y-85780000I35000J0D01*
G01*
G37*
G36*
G01*
X203260000Y-85280000D02*
X204660000Y-85280000D01*
G75*
G02*
X204695000Y-85315000I0J-35000D01*
G01*
X204695000Y-85525000D01*
G75*
G02*
X204660000Y-85560000I-35000J0D01*
G01*
X203260000Y-85560000D01*
G75*
G02*
X203225000Y-85525000I0J35000D01*
G01*
X203225000Y-85315000D01*
G75*
G02*
X203260000Y-85280000I35000J0D01*
G01*
G37*
G36*
G01*
X203260000Y-84780000D02*
X204660000Y-84780000D01*
G75*
G02*
X204695000Y-84815000I0J-35000D01*
G01*
X204695000Y-85025000D01*
G75*
G02*
X204660000Y-85060000I-35000J0D01*
G01*
X203260000Y-85060000D01*
G75*
G02*
X203225000Y-85025000I0J35000D01*
G01*
X203225000Y-84815000D01*
G75*
G02*
X203260000Y-84780000I35000J0D01*
G01*
G37*
G36*
G01*
X203260000Y-84280000D02*
X204660000Y-84280000D01*
G75*
G02*
X204695000Y-84315000I0J-35000D01*
G01*
X204695000Y-84525000D01*
G75*
G02*
X204660000Y-84560000I-35000J0D01*
G01*
X203260000Y-84560000D01*
G75*
G02*
X203225000Y-84525000I0J35000D01*
G01*
X203225000Y-84315000D01*
G75*
G02*
X203260000Y-84280000I35000J0D01*
G01*
G37*
G36*
G01*
X203260000Y-83780000D02*
X204660000Y-83780000D01*
G75*
G02*
X204695000Y-83815000I0J-35000D01*
G01*
X204695000Y-84025000D01*
G75*
G02*
X204660000Y-84060000I-35000J0D01*
G01*
X203260000Y-84060000D01*
G75*
G02*
X203225000Y-84025000I0J35000D01*
G01*
X203225000Y-83815000D01*
G75*
G02*
X203260000Y-83780000I35000J0D01*
G01*
G37*
G36*
G01*
X203260000Y-83280000D02*
X204660000Y-83280000D01*
G75*
G02*
X204695000Y-83315000I0J-35000D01*
G01*
X204695000Y-83525000D01*
G75*
G02*
X204660000Y-83560000I-35000J0D01*
G01*
X203260000Y-83560000D01*
G75*
G02*
X203225000Y-83525000I0J35000D01*
G01*
X203225000Y-83315000D01*
G75*
G02*
X203260000Y-83280000I35000J0D01*
G01*
G37*
G36*
G01*
X203260000Y-82780000D02*
X204660000Y-82780000D01*
G75*
G02*
X204695000Y-82815000I0J-35000D01*
G01*
X204695000Y-83025000D01*
G75*
G02*
X204660000Y-83060000I-35000J0D01*
G01*
X203260000Y-83060000D01*
G75*
G02*
X203225000Y-83025000I0J35000D01*
G01*
X203225000Y-82815000D01*
G75*
G02*
X203260000Y-82780000I35000J0D01*
G01*
G37*
G36*
G01*
X203260000Y-82280000D02*
X204660000Y-82280000D01*
G75*
G02*
X204695000Y-82315000I0J-35000D01*
G01*
X204695000Y-82525000D01*
G75*
G02*
X204660000Y-82560000I-35000J0D01*
G01*
X203260000Y-82560000D01*
G75*
G02*
X203225000Y-82525000I0J35000D01*
G01*
X203225000Y-82315000D01*
G75*
G02*
X203260000Y-82280000I35000J0D01*
G01*
G37*
G36*
G01*
X203260000Y-81780000D02*
X204660000Y-81780000D01*
G75*
G02*
X204695000Y-81815000I0J-35000D01*
G01*
X204695000Y-82025000D01*
G75*
G02*
X204660000Y-82060000I-35000J0D01*
G01*
X203260000Y-82060000D01*
G75*
G02*
X203225000Y-82025000I0J35000D01*
G01*
X203225000Y-81815000D01*
G75*
G02*
X203260000Y-81780000I35000J0D01*
G01*
G37*
G36*
G01*
X203260000Y-81280000D02*
X204660000Y-81280000D01*
G75*
G02*
X204695000Y-81315000I0J-35000D01*
G01*
X204695000Y-81525000D01*
G75*
G02*
X204660000Y-81560000I-35000J0D01*
G01*
X203260000Y-81560000D01*
G75*
G02*
X203225000Y-81525000I0J35000D01*
G01*
X203225000Y-81315000D01*
G75*
G02*
X203260000Y-81280000I35000J0D01*
G01*
G37*
%TD*%
D18*
%TO.C,SW6*%
X148425000Y-94270000D03*
X148425000Y-98770000D03*
X156375000Y-98770000D03*
X156375000Y-94270000D03*
%TD*%
%TO.C,SW5*%
X169075000Y-98770000D03*
X169075000Y-94270000D03*
X161125000Y-94270000D03*
X161125000Y-98770000D03*
%TD*%
%TO.C,SW4*%
X234775000Y-55860000D03*
X234775000Y-60360000D03*
X242725000Y-60360000D03*
X242725000Y-55860000D03*
%TD*%
%TO.C,SW2*%
X234775000Y-64750000D03*
X234775000Y-69250000D03*
X242725000Y-69250000D03*
X242725000Y-64750000D03*
%TD*%
%TO.C,R32*%
G36*
G01*
X164230000Y-72440001D02*
X164230000Y-71539999D01*
G75*
G02*
X164479999Y-71290000I249999J0D01*
G01*
X165005001Y-71290000D01*
G75*
G02*
X165255000Y-71539999I0J-249999D01*
G01*
X165255000Y-72440001D01*
G75*
G02*
X165005001Y-72690000I-249999J0D01*
G01*
X164479999Y-72690000D01*
G75*
G02*
X164230000Y-72440001I0J249999D01*
G01*
G37*
G36*
G01*
X162405000Y-72440001D02*
X162405000Y-71539999D01*
G75*
G02*
X162654999Y-71290000I249999J0D01*
G01*
X163180001Y-71290000D01*
G75*
G02*
X163430000Y-71539999I0J-249999D01*
G01*
X163430000Y-72440001D01*
G75*
G02*
X163180001Y-72690000I-249999J0D01*
G01*
X162654999Y-72690000D01*
G75*
G02*
X162405000Y-72440001I0J249999D01*
G01*
G37*
%TD*%
%TO.C,R31*%
G36*
G01*
X145765000Y-94095000D02*
X146315000Y-94095000D01*
G75*
G02*
X146515000Y-94295000I0J-200000D01*
G01*
X146515000Y-94695000D01*
G75*
G02*
X146315000Y-94895000I-200000J0D01*
G01*
X145765000Y-94895000D01*
G75*
G02*
X145565000Y-94695000I0J200000D01*
G01*
X145565000Y-94295000D01*
G75*
G02*
X145765000Y-94095000I200000J0D01*
G01*
G37*
G36*
G01*
X145765000Y-92445000D02*
X146315000Y-92445000D01*
G75*
G02*
X146515000Y-92645000I0J-200000D01*
G01*
X146515000Y-93045000D01*
G75*
G02*
X146315000Y-93245000I-200000J0D01*
G01*
X145765000Y-93245000D01*
G75*
G02*
X145565000Y-93045000I0J200000D01*
G01*
X145565000Y-92645000D01*
G75*
G02*
X145765000Y-92445000I200000J0D01*
G01*
G37*
%TD*%
%TO.C,R30*%
G36*
G01*
X144355000Y-76280000D02*
X144355000Y-76830000D01*
G75*
G02*
X144155000Y-77030000I-200000J0D01*
G01*
X143755000Y-77030000D01*
G75*
G02*
X143555000Y-76830000I0J200000D01*
G01*
X143555000Y-76280000D01*
G75*
G02*
X143755000Y-76080000I200000J0D01*
G01*
X144155000Y-76080000D01*
G75*
G02*
X144355000Y-76280000I0J-200000D01*
G01*
G37*
G36*
G01*
X146005000Y-76280000D02*
X146005000Y-76830000D01*
G75*
G02*
X145805000Y-77030000I-200000J0D01*
G01*
X145405000Y-77030000D01*
G75*
G02*
X145205000Y-76830000I0J200000D01*
G01*
X145205000Y-76280000D01*
G75*
G02*
X145405000Y-76080000I200000J0D01*
G01*
X145805000Y-76080000D01*
G75*
G02*
X146005000Y-76280000I0J-200000D01*
G01*
G37*
%TD*%
%TO.C,R29*%
G36*
G01*
X144355000Y-78880000D02*
X144355000Y-79430000D01*
G75*
G02*
X144155000Y-79630000I-200000J0D01*
G01*
X143755000Y-79630000D01*
G75*
G02*
X143555000Y-79430000I0J200000D01*
G01*
X143555000Y-78880000D01*
G75*
G02*
X143755000Y-78680000I200000J0D01*
G01*
X144155000Y-78680000D01*
G75*
G02*
X144355000Y-78880000I0J-200000D01*
G01*
G37*
G36*
G01*
X146005000Y-78880000D02*
X146005000Y-79430000D01*
G75*
G02*
X145805000Y-79630000I-200000J0D01*
G01*
X145405000Y-79630000D01*
G75*
G02*
X145205000Y-79430000I0J200000D01*
G01*
X145205000Y-78880000D01*
G75*
G02*
X145405000Y-78680000I200000J0D01*
G01*
X145805000Y-78680000D01*
G75*
G02*
X146005000Y-78880000I0J-200000D01*
G01*
G37*
%TD*%
%TO.C,R28*%
G36*
G01*
X123320001Y-77127500D02*
X122419999Y-77127500D01*
G75*
G02*
X122170000Y-76877501I0J249999D01*
G01*
X122170000Y-76352499D01*
G75*
G02*
X122419999Y-76102500I249999J0D01*
G01*
X123320001Y-76102500D01*
G75*
G02*
X123570000Y-76352499I0J-249999D01*
G01*
X123570000Y-76877501D01*
G75*
G02*
X123320001Y-77127500I-249999J0D01*
G01*
G37*
G36*
G01*
X123320001Y-78952500D02*
X122419999Y-78952500D01*
G75*
G02*
X122170000Y-78702501I0J249999D01*
G01*
X122170000Y-78177499D01*
G75*
G02*
X122419999Y-77927500I249999J0D01*
G01*
X123320001Y-77927500D01*
G75*
G02*
X123570000Y-78177499I0J-249999D01*
G01*
X123570000Y-78702501D01*
G75*
G02*
X123320001Y-78952500I-249999J0D01*
G01*
G37*
%TD*%
%TO.C,R27*%
G36*
G01*
X127130001Y-77127500D02*
X126229999Y-77127500D01*
G75*
G02*
X125980000Y-76877501I0J249999D01*
G01*
X125980000Y-76352499D01*
G75*
G02*
X126229999Y-76102500I249999J0D01*
G01*
X127130001Y-76102500D01*
G75*
G02*
X127380000Y-76352499I0J-249999D01*
G01*
X127380000Y-76877501D01*
G75*
G02*
X127130001Y-77127500I-249999J0D01*
G01*
G37*
G36*
G01*
X127130001Y-78952500D02*
X126229999Y-78952500D01*
G75*
G02*
X125980000Y-78702501I0J249999D01*
G01*
X125980000Y-78177499D01*
G75*
G02*
X126229999Y-77927500I249999J0D01*
G01*
X127130001Y-77927500D01*
G75*
G02*
X127380000Y-78177499I0J-249999D01*
G01*
X127380000Y-78702501D01*
G75*
G02*
X127130001Y-78952500I-249999J0D01*
G01*
G37*
%TD*%
%TO.C,R26*%
G36*
G01*
X159015000Y-94515000D02*
X158465000Y-94515000D01*
G75*
G02*
X158265000Y-94315000I0J200000D01*
G01*
X158265000Y-93915000D01*
G75*
G02*
X158465000Y-93715000I200000J0D01*
G01*
X159015000Y-93715000D01*
G75*
G02*
X159215000Y-93915000I0J-200000D01*
G01*
X159215000Y-94315000D01*
G75*
G02*
X159015000Y-94515000I-200000J0D01*
G01*
G37*
G36*
G01*
X159015000Y-96165000D02*
X158465000Y-96165000D01*
G75*
G02*
X158265000Y-95965000I0J200000D01*
G01*
X158265000Y-95565000D01*
G75*
G02*
X158465000Y-95365000I200000J0D01*
G01*
X159015000Y-95365000D01*
G75*
G02*
X159215000Y-95565000I0J-200000D01*
G01*
X159215000Y-95965000D01*
G75*
G02*
X159015000Y-96165000I-200000J0D01*
G01*
G37*
%TD*%
%TO.C,R25*%
G36*
G01*
X185860001Y-69140000D02*
X184959999Y-69140000D01*
G75*
G02*
X184710000Y-68890001I0J249999D01*
G01*
X184710000Y-68364999D01*
G75*
G02*
X184959999Y-68115000I249999J0D01*
G01*
X185860001Y-68115000D01*
G75*
G02*
X186110000Y-68364999I0J-249999D01*
G01*
X186110000Y-68890001D01*
G75*
G02*
X185860001Y-69140000I-249999J0D01*
G01*
G37*
G36*
G01*
X185860001Y-70965000D02*
X184959999Y-70965000D01*
G75*
G02*
X184710000Y-70715001I0J249999D01*
G01*
X184710000Y-70189999D01*
G75*
G02*
X184959999Y-69940000I249999J0D01*
G01*
X185860001Y-69940000D01*
G75*
G02*
X186110000Y-70189999I0J-249999D01*
G01*
X186110000Y-70715001D01*
G75*
G02*
X185860001Y-70965000I-249999J0D01*
G01*
G37*
%TD*%
%TO.C,R24*%
G36*
G01*
X127050001Y-65640000D02*
X126149999Y-65640000D01*
G75*
G02*
X125900000Y-65390001I0J249999D01*
G01*
X125900000Y-64864999D01*
G75*
G02*
X126149999Y-64615000I249999J0D01*
G01*
X127050001Y-64615000D01*
G75*
G02*
X127300000Y-64864999I0J-249999D01*
G01*
X127300000Y-65390001D01*
G75*
G02*
X127050001Y-65640000I-249999J0D01*
G01*
G37*
G36*
G01*
X127050001Y-67465000D02*
X126149999Y-67465000D01*
G75*
G02*
X125900000Y-67215001I0J249999D01*
G01*
X125900000Y-66689999D01*
G75*
G02*
X126149999Y-66440000I249999J0D01*
G01*
X127050001Y-66440000D01*
G75*
G02*
X127300000Y-66689999I0J-249999D01*
G01*
X127300000Y-67215001D01*
G75*
G02*
X127050001Y-67465000I-249999J0D01*
G01*
G37*
%TD*%
%TO.C,R23*%
G36*
G01*
X134370000Y-50305000D02*
X134370000Y-50675000D01*
G75*
G02*
X134235000Y-50810000I-135000J0D01*
G01*
X133965000Y-50810000D01*
G75*
G02*
X133830000Y-50675000I0J135000D01*
G01*
X133830000Y-50305000D01*
G75*
G02*
X133965000Y-50170000I135000J0D01*
G01*
X134235000Y-50170000D01*
G75*
G02*
X134370000Y-50305000I0J-135000D01*
G01*
G37*
G36*
G01*
X135390000Y-50305000D02*
X135390000Y-50675000D01*
G75*
G02*
X135255000Y-50810000I-135000J0D01*
G01*
X134985000Y-50810000D01*
G75*
G02*
X134850000Y-50675000I0J135000D01*
G01*
X134850000Y-50305000D01*
G75*
G02*
X134985000Y-50170000I135000J0D01*
G01*
X135255000Y-50170000D01*
G75*
G02*
X135390000Y-50305000I0J-135000D01*
G01*
G37*
%TD*%
%TO.C,R22*%
G36*
G01*
X235180000Y-62955000D02*
X235180000Y-62585000D01*
G75*
G02*
X235315000Y-62450000I135000J0D01*
G01*
X235585000Y-62450000D01*
G75*
G02*
X235720000Y-62585000I0J-135000D01*
G01*
X235720000Y-62955000D01*
G75*
G02*
X235585000Y-63090000I-135000J0D01*
G01*
X235315000Y-63090000D01*
G75*
G02*
X235180000Y-62955000I0J135000D01*
G01*
G37*
G36*
G01*
X234160000Y-62955000D02*
X234160000Y-62585000D01*
G75*
G02*
X234295000Y-62450000I135000J0D01*
G01*
X234565000Y-62450000D01*
G75*
G02*
X234700000Y-62585000I0J-135000D01*
G01*
X234700000Y-62955000D01*
G75*
G02*
X234565000Y-63090000I-135000J0D01*
G01*
X234295000Y-63090000D01*
G75*
G02*
X234160000Y-62955000I0J135000D01*
G01*
G37*
%TD*%
%TO.C,R21*%
G36*
G01*
X243645000Y-50730000D02*
X244015000Y-50730000D01*
G75*
G02*
X244150000Y-50865000I0J-135000D01*
G01*
X244150000Y-51135000D01*
G75*
G02*
X244015000Y-51270000I-135000J0D01*
G01*
X243645000Y-51270000D01*
G75*
G02*
X243510000Y-51135000I0J135000D01*
G01*
X243510000Y-50865000D01*
G75*
G02*
X243645000Y-50730000I135000J0D01*
G01*
G37*
G36*
G01*
X243645000Y-49710000D02*
X244015000Y-49710000D01*
G75*
G02*
X244150000Y-49845000I0J-135000D01*
G01*
X244150000Y-50115000D01*
G75*
G02*
X244015000Y-50250000I-135000J0D01*
G01*
X243645000Y-50250000D01*
G75*
G02*
X243510000Y-50115000I0J135000D01*
G01*
X243510000Y-49845000D01*
G75*
G02*
X243645000Y-49710000I135000J0D01*
G01*
G37*
%TD*%
%TO.C,R20*%
G36*
G01*
X234755000Y-34220000D02*
X235125000Y-34220000D01*
G75*
G02*
X235260000Y-34355000I0J-135000D01*
G01*
X235260000Y-34625000D01*
G75*
G02*
X235125000Y-34760000I-135000J0D01*
G01*
X234755000Y-34760000D01*
G75*
G02*
X234620000Y-34625000I0J135000D01*
G01*
X234620000Y-34355000D01*
G75*
G02*
X234755000Y-34220000I135000J0D01*
G01*
G37*
G36*
G01*
X234755000Y-33200000D02*
X235125000Y-33200000D01*
G75*
G02*
X235260000Y-33335000I0J-135000D01*
G01*
X235260000Y-33605000D01*
G75*
G02*
X235125000Y-33740000I-135000J0D01*
G01*
X234755000Y-33740000D01*
G75*
G02*
X234620000Y-33605000I0J135000D01*
G01*
X234620000Y-33335000D01*
G75*
G02*
X234755000Y-33200000I135000J0D01*
G01*
G37*
%TD*%
%TO.C,R19*%
G36*
G01*
X235340000Y-53950001D02*
X235340000Y-53049999D01*
G75*
G02*
X235589999Y-52800000I249999J0D01*
G01*
X236115001Y-52800000D01*
G75*
G02*
X236365000Y-53049999I0J-249999D01*
G01*
X236365000Y-53950001D01*
G75*
G02*
X236115001Y-54200000I-249999J0D01*
G01*
X235589999Y-54200000D01*
G75*
G02*
X235340000Y-53950001I0J249999D01*
G01*
G37*
G36*
G01*
X233515000Y-53950001D02*
X233515000Y-53049999D01*
G75*
G02*
X233764999Y-52800000I249999J0D01*
G01*
X234290001Y-52800000D01*
G75*
G02*
X234540000Y-53049999I0J-249999D01*
G01*
X234540000Y-53950001D01*
G75*
G02*
X234290001Y-54200000I-249999J0D01*
G01*
X233764999Y-54200000D01*
G75*
G02*
X233515000Y-53950001I0J249999D01*
G01*
G37*
%TD*%
%TO.C,R18*%
G36*
G01*
X236395000Y-33740000D02*
X236025000Y-33740000D01*
G75*
G02*
X235890000Y-33605000I0J135000D01*
G01*
X235890000Y-33335000D01*
G75*
G02*
X236025000Y-33200000I135000J0D01*
G01*
X236395000Y-33200000D01*
G75*
G02*
X236530000Y-33335000I0J-135000D01*
G01*
X236530000Y-33605000D01*
G75*
G02*
X236395000Y-33740000I-135000J0D01*
G01*
G37*
G36*
G01*
X236395000Y-34760000D02*
X236025000Y-34760000D01*
G75*
G02*
X235890000Y-34625000I0J135000D01*
G01*
X235890000Y-34355000D01*
G75*
G02*
X236025000Y-34220000I135000J0D01*
G01*
X236395000Y-34220000D01*
G75*
G02*
X236530000Y-34355000I0J-135000D01*
G01*
X236530000Y-34625000D01*
G75*
G02*
X236395000Y-34760000I-135000J0D01*
G01*
G37*
%TD*%
%TO.C,R17*%
G36*
G01*
X233855000Y-33740000D02*
X233485000Y-33740000D01*
G75*
G02*
X233350000Y-33605000I0J135000D01*
G01*
X233350000Y-33335000D01*
G75*
G02*
X233485000Y-33200000I135000J0D01*
G01*
X233855000Y-33200000D01*
G75*
G02*
X233990000Y-33335000I0J-135000D01*
G01*
X233990000Y-33605000D01*
G75*
G02*
X233855000Y-33740000I-135000J0D01*
G01*
G37*
G36*
G01*
X233855000Y-34760000D02*
X233485000Y-34760000D01*
G75*
G02*
X233350000Y-34625000I0J135000D01*
G01*
X233350000Y-34355000D01*
G75*
G02*
X233485000Y-34220000I135000J0D01*
G01*
X233855000Y-34220000D01*
G75*
G02*
X233990000Y-34355000I0J-135000D01*
G01*
X233990000Y-34625000D01*
G75*
G02*
X233855000Y-34760000I-135000J0D01*
G01*
G37*
%TD*%
%TO.C,R16*%
G36*
G01*
X191520000Y-112535000D02*
X191520000Y-112905000D01*
G75*
G02*
X191385000Y-113040000I-135000J0D01*
G01*
X191115000Y-113040000D01*
G75*
G02*
X190980000Y-112905000I0J135000D01*
G01*
X190980000Y-112535000D01*
G75*
G02*
X191115000Y-112400000I135000J0D01*
G01*
X191385000Y-112400000D01*
G75*
G02*
X191520000Y-112535000I0J-135000D01*
G01*
G37*
G36*
G01*
X192540000Y-112535000D02*
X192540000Y-112905000D01*
G75*
G02*
X192405000Y-113040000I-135000J0D01*
G01*
X192135000Y-113040000D01*
G75*
G02*
X192000000Y-112905000I0J135000D01*
G01*
X192000000Y-112535000D01*
G75*
G02*
X192135000Y-112400000I135000J0D01*
G01*
X192405000Y-112400000D01*
G75*
G02*
X192540000Y-112535000I0J-135000D01*
G01*
G37*
%TD*%
%TO.C,R15*%
G36*
G01*
X212505000Y-53305000D02*
X212505000Y-52755000D01*
G75*
G02*
X212705000Y-52555000I200000J0D01*
G01*
X213105000Y-52555000D01*
G75*
G02*
X213305000Y-52755000I0J-200000D01*
G01*
X213305000Y-53305000D01*
G75*
G02*
X213105000Y-53505000I-200000J0D01*
G01*
X212705000Y-53505000D01*
G75*
G02*
X212505000Y-53305000I0J200000D01*
G01*
G37*
G36*
G01*
X210855000Y-53305000D02*
X210855000Y-52755000D01*
G75*
G02*
X211055000Y-52555000I200000J0D01*
G01*
X211455000Y-52555000D01*
G75*
G02*
X211655000Y-52755000I0J-200000D01*
G01*
X211655000Y-53305000D01*
G75*
G02*
X211455000Y-53505000I-200000J0D01*
G01*
X211055000Y-53505000D01*
G75*
G02*
X210855000Y-53305000I0J200000D01*
G01*
G37*
%TD*%
%TO.C,R14*%
G36*
G01*
X219275000Y-52755000D02*
X219275000Y-53305000D01*
G75*
G02*
X219075000Y-53505000I-200000J0D01*
G01*
X218675000Y-53505000D01*
G75*
G02*
X218475000Y-53305000I0J200000D01*
G01*
X218475000Y-52755000D01*
G75*
G02*
X218675000Y-52555000I200000J0D01*
G01*
X219075000Y-52555000D01*
G75*
G02*
X219275000Y-52755000I0J-200000D01*
G01*
G37*
G36*
G01*
X220925000Y-52755000D02*
X220925000Y-53305000D01*
G75*
G02*
X220725000Y-53505000I-200000J0D01*
G01*
X220325000Y-53505000D01*
G75*
G02*
X220125000Y-53305000I0J200000D01*
G01*
X220125000Y-52755000D01*
G75*
G02*
X220325000Y-52555000I200000J0D01*
G01*
X220725000Y-52555000D01*
G75*
G02*
X220925000Y-52755000I0J-200000D01*
G01*
G37*
%TD*%
%TO.C,R13*%
G36*
G01*
X210995000Y-103590000D02*
X210625000Y-103590000D01*
G75*
G02*
X210490000Y-103455000I0J135000D01*
G01*
X210490000Y-103185000D01*
G75*
G02*
X210625000Y-103050000I135000J0D01*
G01*
X210995000Y-103050000D01*
G75*
G02*
X211130000Y-103185000I0J-135000D01*
G01*
X211130000Y-103455000D01*
G75*
G02*
X210995000Y-103590000I-135000J0D01*
G01*
G37*
G36*
G01*
X210995000Y-104610000D02*
X210625000Y-104610000D01*
G75*
G02*
X210490000Y-104475000I0J135000D01*
G01*
X210490000Y-104205000D01*
G75*
G02*
X210625000Y-104070000I135000J0D01*
G01*
X210995000Y-104070000D01*
G75*
G02*
X211130000Y-104205000I0J-135000D01*
G01*
X211130000Y-104475000D01*
G75*
G02*
X210995000Y-104610000I-135000J0D01*
G01*
G37*
%TD*%
%TO.C,R12*%
G36*
G01*
X223935000Y-53305000D02*
X223935000Y-52755000D01*
G75*
G02*
X224135000Y-52555000I200000J0D01*
G01*
X224535000Y-52555000D01*
G75*
G02*
X224735000Y-52755000I0J-200000D01*
G01*
X224735000Y-53305000D01*
G75*
G02*
X224535000Y-53505000I-200000J0D01*
G01*
X224135000Y-53505000D01*
G75*
G02*
X223935000Y-53305000I0J200000D01*
G01*
G37*
G36*
G01*
X222285000Y-53305000D02*
X222285000Y-52755000D01*
G75*
G02*
X222485000Y-52555000I200000J0D01*
G01*
X222885000Y-52555000D01*
G75*
G02*
X223085000Y-52755000I0J-200000D01*
G01*
X223085000Y-53305000D01*
G75*
G02*
X222885000Y-53505000I-200000J0D01*
G01*
X222485000Y-53505000D01*
G75*
G02*
X222285000Y-53305000I0J200000D01*
G01*
G37*
%TD*%
%TO.C,R11*%
G36*
G01*
X176345000Y-53580000D02*
X176715000Y-53580000D01*
G75*
G02*
X176850000Y-53715000I0J-135000D01*
G01*
X176850000Y-53985000D01*
G75*
G02*
X176715000Y-54120000I-135000J0D01*
G01*
X176345000Y-54120000D01*
G75*
G02*
X176210000Y-53985000I0J135000D01*
G01*
X176210000Y-53715000D01*
G75*
G02*
X176345000Y-53580000I135000J0D01*
G01*
G37*
G36*
G01*
X176345000Y-52560000D02*
X176715000Y-52560000D01*
G75*
G02*
X176850000Y-52695000I0J-135000D01*
G01*
X176850000Y-52965000D01*
G75*
G02*
X176715000Y-53100000I-135000J0D01*
G01*
X176345000Y-53100000D01*
G75*
G02*
X176210000Y-52965000I0J135000D01*
G01*
X176210000Y-52695000D01*
G75*
G02*
X176345000Y-52560000I135000J0D01*
G01*
G37*
%TD*%
%TO.C,R10*%
G36*
G01*
X195765000Y-51830000D02*
X195395000Y-51830000D01*
G75*
G02*
X195260000Y-51695000I0J135000D01*
G01*
X195260000Y-51425000D01*
G75*
G02*
X195395000Y-51290000I135000J0D01*
G01*
X195765000Y-51290000D01*
G75*
G02*
X195900000Y-51425000I0J-135000D01*
G01*
X195900000Y-51695000D01*
G75*
G02*
X195765000Y-51830000I-135000J0D01*
G01*
G37*
G36*
G01*
X195765000Y-52850000D02*
X195395000Y-52850000D01*
G75*
G02*
X195260000Y-52715000I0J135000D01*
G01*
X195260000Y-52445000D01*
G75*
G02*
X195395000Y-52310000I135000J0D01*
G01*
X195765000Y-52310000D01*
G75*
G02*
X195900000Y-52445000I0J-135000D01*
G01*
X195900000Y-52715000D01*
G75*
G02*
X195765000Y-52850000I-135000J0D01*
G01*
G37*
%TD*%
%TO.C,R9*%
G36*
G01*
X155705000Y-116780000D02*
X156075000Y-116780000D01*
G75*
G02*
X156210000Y-116915000I0J-135000D01*
G01*
X156210000Y-117185000D01*
G75*
G02*
X156075000Y-117320000I-135000J0D01*
G01*
X155705000Y-117320000D01*
G75*
G02*
X155570000Y-117185000I0J135000D01*
G01*
X155570000Y-116915000D01*
G75*
G02*
X155705000Y-116780000I135000J0D01*
G01*
G37*
G36*
G01*
X155705000Y-115760000D02*
X156075000Y-115760000D01*
G75*
G02*
X156210000Y-115895000I0J-135000D01*
G01*
X156210000Y-116165000D01*
G75*
G02*
X156075000Y-116300000I-135000J0D01*
G01*
X155705000Y-116300000D01*
G75*
G02*
X155570000Y-116165000I0J135000D01*
G01*
X155570000Y-115895000D01*
G75*
G02*
X155705000Y-115760000I135000J0D01*
G01*
G37*
%TD*%
%TO.C,R8*%
G36*
G01*
X155705000Y-107240000D02*
X156075000Y-107240000D01*
G75*
G02*
X156210000Y-107375000I0J-135000D01*
G01*
X156210000Y-107645000D01*
G75*
G02*
X156075000Y-107780000I-135000J0D01*
G01*
X155705000Y-107780000D01*
G75*
G02*
X155570000Y-107645000I0J135000D01*
G01*
X155570000Y-107375000D01*
G75*
G02*
X155705000Y-107240000I135000J0D01*
G01*
G37*
G36*
G01*
X155705000Y-106220000D02*
X156075000Y-106220000D01*
G75*
G02*
X156210000Y-106355000I0J-135000D01*
G01*
X156210000Y-106625000D01*
G75*
G02*
X156075000Y-106760000I-135000J0D01*
G01*
X155705000Y-106760000D01*
G75*
G02*
X155570000Y-106625000I0J135000D01*
G01*
X155570000Y-106355000D01*
G75*
G02*
X155705000Y-106220000I135000J0D01*
G01*
G37*
%TD*%
%TO.C,R7*%
G36*
G01*
X155705000Y-114240000D02*
X156075000Y-114240000D01*
G75*
G02*
X156210000Y-114375000I0J-135000D01*
G01*
X156210000Y-114645000D01*
G75*
G02*
X156075000Y-114780000I-135000J0D01*
G01*
X155705000Y-114780000D01*
G75*
G02*
X155570000Y-114645000I0J135000D01*
G01*
X155570000Y-114375000D01*
G75*
G02*
X155705000Y-114240000I135000J0D01*
G01*
G37*
G36*
G01*
X155705000Y-113220000D02*
X156075000Y-113220000D01*
G75*
G02*
X156210000Y-113355000I0J-135000D01*
G01*
X156210000Y-113625000D01*
G75*
G02*
X156075000Y-113760000I-135000J0D01*
G01*
X155705000Y-113760000D01*
G75*
G02*
X155570000Y-113625000I0J135000D01*
G01*
X155570000Y-113355000D01*
G75*
G02*
X155705000Y-113220000I135000J0D01*
G01*
G37*
%TD*%
%TO.C,R6*%
G36*
G01*
X155705000Y-104830000D02*
X156075000Y-104830000D01*
G75*
G02*
X156210000Y-104965000I0J-135000D01*
G01*
X156210000Y-105235000D01*
G75*
G02*
X156075000Y-105370000I-135000J0D01*
G01*
X155705000Y-105370000D01*
G75*
G02*
X155570000Y-105235000I0J135000D01*
G01*
X155570000Y-104965000D01*
G75*
G02*
X155705000Y-104830000I135000J0D01*
G01*
G37*
G36*
G01*
X155705000Y-103810000D02*
X156075000Y-103810000D01*
G75*
G02*
X156210000Y-103945000I0J-135000D01*
G01*
X156210000Y-104215000D01*
G75*
G02*
X156075000Y-104350000I-135000J0D01*
G01*
X155705000Y-104350000D01*
G75*
G02*
X155570000Y-104215000I0J135000D01*
G01*
X155570000Y-103945000D01*
G75*
G02*
X155705000Y-103810000I135000J0D01*
G01*
G37*
%TD*%
%TO.C,R5*%
G36*
G01*
X162310000Y-118315000D02*
X162310000Y-118685000D01*
G75*
G02*
X162175000Y-118820000I-135000J0D01*
G01*
X161905000Y-118820000D01*
G75*
G02*
X161770000Y-118685000I0J135000D01*
G01*
X161770000Y-118315000D01*
G75*
G02*
X161905000Y-118180000I135000J0D01*
G01*
X162175000Y-118180000D01*
G75*
G02*
X162310000Y-118315000I0J-135000D01*
G01*
G37*
G36*
G01*
X163330000Y-118315000D02*
X163330000Y-118685000D01*
G75*
G02*
X163195000Y-118820000I-135000J0D01*
G01*
X162925000Y-118820000D01*
G75*
G02*
X162790000Y-118685000I0J135000D01*
G01*
X162790000Y-118315000D01*
G75*
G02*
X162925000Y-118180000I135000J0D01*
G01*
X163195000Y-118180000D01*
G75*
G02*
X163330000Y-118315000I0J-135000D01*
G01*
G37*
%TD*%
%TO.C,R4*%
G36*
G01*
X161040000Y-108725000D02*
X161040000Y-109095000D01*
G75*
G02*
X160905000Y-109230000I-135000J0D01*
G01*
X160635000Y-109230000D01*
G75*
G02*
X160500000Y-109095000I0J135000D01*
G01*
X160500000Y-108725000D01*
G75*
G02*
X160635000Y-108590000I135000J0D01*
G01*
X160905000Y-108590000D01*
G75*
G02*
X161040000Y-108725000I0J-135000D01*
G01*
G37*
G36*
G01*
X162060000Y-108725000D02*
X162060000Y-109095000D01*
G75*
G02*
X161925000Y-109230000I-135000J0D01*
G01*
X161655000Y-109230000D01*
G75*
G02*
X161520000Y-109095000I0J135000D01*
G01*
X161520000Y-108725000D01*
G75*
G02*
X161655000Y-108590000I135000J0D01*
G01*
X161925000Y-108590000D01*
G75*
G02*
X162060000Y-108725000I0J-135000D01*
G01*
G37*
%TD*%
%TO.C,R3*%
G36*
G01*
X167505000Y-112490000D02*
X167135000Y-112490000D01*
G75*
G02*
X167000000Y-112355000I0J135000D01*
G01*
X167000000Y-112085000D01*
G75*
G02*
X167135000Y-111950000I135000J0D01*
G01*
X167505000Y-111950000D01*
G75*
G02*
X167640000Y-112085000I0J-135000D01*
G01*
X167640000Y-112355000D01*
G75*
G02*
X167505000Y-112490000I-135000J0D01*
G01*
G37*
G36*
G01*
X167505000Y-113510000D02*
X167135000Y-113510000D01*
G75*
G02*
X167000000Y-113375000I0J135000D01*
G01*
X167000000Y-113105000D01*
G75*
G02*
X167135000Y-112970000I135000J0D01*
G01*
X167505000Y-112970000D01*
G75*
G02*
X167640000Y-113105000I0J-135000D01*
G01*
X167640000Y-113375000D01*
G75*
G02*
X167505000Y-113510000I-135000J0D01*
G01*
G37*
%TD*%
%TO.C,R2*%
G36*
G01*
X94614999Y-84410000D02*
X95865001Y-84410000D01*
G75*
G02*
X96115000Y-84659999I0J-249999D01*
G01*
X96115000Y-85285001D01*
G75*
G02*
X95865001Y-85535000I-249999J0D01*
G01*
X94614999Y-85535000D01*
G75*
G02*
X94365000Y-85285001I0J249999D01*
G01*
X94365000Y-84659999D01*
G75*
G02*
X94614999Y-84410000I249999J0D01*
G01*
G37*
G36*
G01*
X94614999Y-81485000D02*
X95865001Y-81485000D01*
G75*
G02*
X96115000Y-81734999I0J-249999D01*
G01*
X96115000Y-82360001D01*
G75*
G02*
X95865001Y-82610000I-249999J0D01*
G01*
X94614999Y-82610000D01*
G75*
G02*
X94365000Y-82360001I0J249999D01*
G01*
X94365000Y-81734999D01*
G75*
G02*
X94614999Y-81485000I249999J0D01*
G01*
G37*
%TD*%
%TO.C,R1*%
G36*
G01*
X167505000Y-102320000D02*
X167135000Y-102320000D01*
G75*
G02*
X167000000Y-102185000I0J135000D01*
G01*
X167000000Y-101915000D01*
G75*
G02*
X167135000Y-101780000I135000J0D01*
G01*
X167505000Y-101780000D01*
G75*
G02*
X167640000Y-101915000I0J-135000D01*
G01*
X167640000Y-102185000D01*
G75*
G02*
X167505000Y-102320000I-135000J0D01*
G01*
G37*
G36*
G01*
X167505000Y-103340000D02*
X167135000Y-103340000D01*
G75*
G02*
X167000000Y-103205000I0J135000D01*
G01*
X167000000Y-102935000D01*
G75*
G02*
X167135000Y-102800000I135000J0D01*
G01*
X167505000Y-102800000D01*
G75*
G02*
X167640000Y-102935000I0J-135000D01*
G01*
X167640000Y-103205000D01*
G75*
G02*
X167505000Y-103340000I-135000J0D01*
G01*
G37*
%TD*%
D19*
%TO.C,J16*%
X81615000Y-74285000D03*
X81615000Y-72365000D03*
D20*
X84765000Y-74625000D03*
X84765000Y-73975000D03*
X84765000Y-73325000D03*
X84765000Y-72675000D03*
X84765000Y-72025000D03*
D13*
X84885000Y-76225000D03*
X84865000Y-70475000D03*
D21*
X83565000Y-76325000D03*
X83565000Y-70375000D03*
D22*
X82815000Y-70595000D03*
X82815000Y-76075000D03*
%TD*%
%TO.C,D8*%
G36*
G01*
X164280000Y-75901250D02*
X164280000Y-74988750D01*
G75*
G02*
X164523750Y-74745000I243750J0D01*
G01*
X165011250Y-74745000D01*
G75*
G02*
X165255000Y-74988750I0J-243750D01*
G01*
X165255000Y-75901250D01*
G75*
G02*
X165011250Y-76145000I-243750J0D01*
G01*
X164523750Y-76145000D01*
G75*
G02*
X164280000Y-75901250I0J243750D01*
G01*
G37*
G36*
G01*
X162405000Y-75901250D02*
X162405000Y-74988750D01*
G75*
G02*
X162648750Y-74745000I243750J0D01*
G01*
X163136250Y-74745000D01*
G75*
G02*
X163380000Y-74988750I0J-243750D01*
G01*
X163380000Y-75901250D01*
G75*
G02*
X163136250Y-76145000I-243750J0D01*
G01*
X162648750Y-76145000D01*
G75*
G02*
X162405000Y-75901250I0J243750D01*
G01*
G37*
%TD*%
%TO.C,D7*%
G36*
G01*
X119516250Y-77077500D02*
X118603750Y-77077500D01*
G75*
G02*
X118360000Y-76833750I0J243750D01*
G01*
X118360000Y-76346250D01*
G75*
G02*
X118603750Y-76102500I243750J0D01*
G01*
X119516250Y-76102500D01*
G75*
G02*
X119760000Y-76346250I0J-243750D01*
G01*
X119760000Y-76833750D01*
G75*
G02*
X119516250Y-77077500I-243750J0D01*
G01*
G37*
G36*
G01*
X119516250Y-78952500D02*
X118603750Y-78952500D01*
G75*
G02*
X118360000Y-78708750I0J243750D01*
G01*
X118360000Y-78221250D01*
G75*
G02*
X118603750Y-77977500I243750J0D01*
G01*
X119516250Y-77977500D01*
G75*
G02*
X119760000Y-78221250I0J-243750D01*
G01*
X119760000Y-78708750D01*
G75*
G02*
X119516250Y-78952500I-243750J0D01*
G01*
G37*
%TD*%
%TO.C,D6*%
G36*
G01*
X115706250Y-77077500D02*
X114793750Y-77077500D01*
G75*
G02*
X114550000Y-76833750I0J243750D01*
G01*
X114550000Y-76346250D01*
G75*
G02*
X114793750Y-76102500I243750J0D01*
G01*
X115706250Y-76102500D01*
G75*
G02*
X115950000Y-76346250I0J-243750D01*
G01*
X115950000Y-76833750D01*
G75*
G02*
X115706250Y-77077500I-243750J0D01*
G01*
G37*
G36*
G01*
X115706250Y-78952500D02*
X114793750Y-78952500D01*
G75*
G02*
X114550000Y-78708750I0J243750D01*
G01*
X114550000Y-78221250D01*
G75*
G02*
X114793750Y-77977500I243750J0D01*
G01*
X115706250Y-77977500D01*
G75*
G02*
X115950000Y-78221250I0J-243750D01*
G01*
X115950000Y-78708750D01*
G75*
G02*
X115706250Y-78952500I-243750J0D01*
G01*
G37*
%TD*%
%TO.C,D5*%
G36*
G01*
X183326250Y-69090000D02*
X182413750Y-69090000D01*
G75*
G02*
X182170000Y-68846250I0J243750D01*
G01*
X182170000Y-68358750D01*
G75*
G02*
X182413750Y-68115000I243750J0D01*
G01*
X183326250Y-68115000D01*
G75*
G02*
X183570000Y-68358750I0J-243750D01*
G01*
X183570000Y-68846250D01*
G75*
G02*
X183326250Y-69090000I-243750J0D01*
G01*
G37*
G36*
G01*
X183326250Y-70965000D02*
X182413750Y-70965000D01*
G75*
G02*
X182170000Y-70721250I0J243750D01*
G01*
X182170000Y-70233750D01*
G75*
G02*
X182413750Y-69990000I243750J0D01*
G01*
X183326250Y-69990000D01*
G75*
G02*
X183570000Y-70233750I0J-243750D01*
G01*
X183570000Y-70721250D01*
G75*
G02*
X183326250Y-70965000I-243750J0D01*
G01*
G37*
%TD*%
D23*
%TO.C,D4*%
X130000000Y-63730000D03*
X130000000Y-67730000D03*
%TD*%
%TO.C,D3*%
G36*
G01*
X240840000Y-53043750D02*
X240840000Y-53956250D01*
G75*
G02*
X240596250Y-54200000I-243750J0D01*
G01*
X240108750Y-54200000D01*
G75*
G02*
X239865000Y-53956250I0J243750D01*
G01*
X239865000Y-53043750D01*
G75*
G02*
X240108750Y-52800000I243750J0D01*
G01*
X240596250Y-52800000D01*
G75*
G02*
X240840000Y-53043750I0J-243750D01*
G01*
G37*
G36*
G01*
X242715000Y-53043750D02*
X242715000Y-53956250D01*
G75*
G02*
X242471250Y-54200000I-243750J0D01*
G01*
X241983750Y-54200000D01*
G75*
G02*
X241740000Y-53956250I0J243750D01*
G01*
X241740000Y-53043750D01*
G75*
G02*
X241983750Y-52800000I243750J0D01*
G01*
X242471250Y-52800000D01*
G75*
G02*
X242715000Y-53043750I0J-243750D01*
G01*
G37*
%TD*%
%TO.C,D2*%
G36*
G01*
X97323750Y-83960000D02*
X98236250Y-83960000D01*
G75*
G02*
X98480000Y-84203750I0J-243750D01*
G01*
X98480000Y-84691250D01*
G75*
G02*
X98236250Y-84935000I-243750J0D01*
G01*
X97323750Y-84935000D01*
G75*
G02*
X97080000Y-84691250I0J243750D01*
G01*
X97080000Y-84203750D01*
G75*
G02*
X97323750Y-83960000I243750J0D01*
G01*
G37*
G36*
G01*
X97323750Y-82085000D02*
X98236250Y-82085000D01*
G75*
G02*
X98480000Y-82328750I0J-243750D01*
G01*
X98480000Y-82816250D01*
G75*
G02*
X98236250Y-83060000I-243750J0D01*
G01*
X97323750Y-83060000D01*
G75*
G02*
X97080000Y-82816250I0J243750D01*
G01*
X97080000Y-82328750D01*
G75*
G02*
X97323750Y-82085000I243750J0D01*
G01*
G37*
%TD*%
D24*
%TO.C,D1*%
X104670000Y-105100000D03*
X108670000Y-105100000D03*
%TD*%
%TO.C,C40*%
G36*
G01*
X159695000Y-84840000D02*
X159695000Y-85340000D01*
G75*
G02*
X159470000Y-85565000I-225000J0D01*
G01*
X159020000Y-85565000D01*
G75*
G02*
X158795000Y-85340000I0J225000D01*
G01*
X158795000Y-84840000D01*
G75*
G02*
X159020000Y-84615000I225000J0D01*
G01*
X159470000Y-84615000D01*
G75*
G02*
X159695000Y-84840000I0J-225000D01*
G01*
G37*
G36*
G01*
X161245000Y-84840000D02*
X161245000Y-85340000D01*
G75*
G02*
X161020000Y-85565000I-225000J0D01*
G01*
X160570000Y-85565000D01*
G75*
G02*
X160345000Y-85340000I0J225000D01*
G01*
X160345000Y-84840000D01*
G75*
G02*
X160570000Y-84615000I225000J0D01*
G01*
X161020000Y-84615000D01*
G75*
G02*
X161245000Y-84840000I0J-225000D01*
G01*
G37*
%TD*%
%TO.C,C39*%
G36*
G01*
X154615000Y-84840000D02*
X154615000Y-85340000D01*
G75*
G02*
X154390000Y-85565000I-225000J0D01*
G01*
X153940000Y-85565000D01*
G75*
G02*
X153715000Y-85340000I0J225000D01*
G01*
X153715000Y-84840000D01*
G75*
G02*
X153940000Y-84615000I225000J0D01*
G01*
X154390000Y-84615000D01*
G75*
G02*
X154615000Y-84840000I0J-225000D01*
G01*
G37*
G36*
G01*
X156165000Y-84840000D02*
X156165000Y-85340000D01*
G75*
G02*
X155940000Y-85565000I-225000J0D01*
G01*
X155490000Y-85565000D01*
G75*
G02*
X155265000Y-85340000I0J225000D01*
G01*
X155265000Y-84840000D01*
G75*
G02*
X155490000Y-84615000I225000J0D01*
G01*
X155940000Y-84615000D01*
G75*
G02*
X156165000Y-84840000I0J-225000D01*
G01*
G37*
%TD*%
%TO.C,C38*%
G36*
G01*
X143680000Y-73460000D02*
X143340000Y-73460000D01*
G75*
G02*
X143200000Y-73320000I0J140000D01*
G01*
X143200000Y-73040000D01*
G75*
G02*
X143340000Y-72900000I140000J0D01*
G01*
X143680000Y-72900000D01*
G75*
G02*
X143820000Y-73040000I0J-140000D01*
G01*
X143820000Y-73320000D01*
G75*
G02*
X143680000Y-73460000I-140000J0D01*
G01*
G37*
G36*
G01*
X143680000Y-74420000D02*
X143340000Y-74420000D01*
G75*
G02*
X143200000Y-74280000I0J140000D01*
G01*
X143200000Y-74000000D01*
G75*
G02*
X143340000Y-73860000I140000J0D01*
G01*
X143680000Y-73860000D01*
G75*
G02*
X143820000Y-74000000I0J-140000D01*
G01*
X143820000Y-74280000D01*
G75*
G02*
X143680000Y-74420000I-140000J0D01*
G01*
G37*
%TD*%
%TO.C,C37*%
G36*
G01*
X158910000Y-65530000D02*
X158570000Y-65530000D01*
G75*
G02*
X158430000Y-65390000I0J140000D01*
G01*
X158430000Y-65110000D01*
G75*
G02*
X158570000Y-64970000I140000J0D01*
G01*
X158910000Y-64970000D01*
G75*
G02*
X159050000Y-65110000I0J-140000D01*
G01*
X159050000Y-65390000D01*
G75*
G02*
X158910000Y-65530000I-140000J0D01*
G01*
G37*
G36*
G01*
X158910000Y-66490000D02*
X158570000Y-66490000D01*
G75*
G02*
X158430000Y-66350000I0J140000D01*
G01*
X158430000Y-66070000D01*
G75*
G02*
X158570000Y-65930000I140000J0D01*
G01*
X158910000Y-65930000D01*
G75*
G02*
X159050000Y-66070000I0J-140000D01*
G01*
X159050000Y-66350000D01*
G75*
G02*
X158910000Y-66490000I-140000J0D01*
G01*
G37*
%TD*%
%TO.C,C36*%
G36*
G01*
X161120000Y-64645000D02*
X160170000Y-64645000D01*
G75*
G02*
X159920000Y-64395000I0J250000D01*
G01*
X159920000Y-63895000D01*
G75*
G02*
X160170000Y-63645000I250000J0D01*
G01*
X161120000Y-63645000D01*
G75*
G02*
X161370000Y-63895000I0J-250000D01*
G01*
X161370000Y-64395000D01*
G75*
G02*
X161120000Y-64645000I-250000J0D01*
G01*
G37*
G36*
G01*
X161120000Y-66545000D02*
X160170000Y-66545000D01*
G75*
G02*
X159920000Y-66295000I0J250000D01*
G01*
X159920000Y-65795000D01*
G75*
G02*
X160170000Y-65545000I250000J0D01*
G01*
X161120000Y-65545000D01*
G75*
G02*
X161370000Y-65795000I0J-250000D01*
G01*
X161370000Y-66295000D01*
G75*
G02*
X161120000Y-66545000I-250000J0D01*
G01*
G37*
%TD*%
%TO.C,C35*%
G36*
G01*
X140140000Y-82080000D02*
X140140000Y-81130000D01*
G75*
G02*
X140390000Y-80880000I250000J0D01*
G01*
X140890000Y-80880000D01*
G75*
G02*
X141140000Y-81130000I0J-250000D01*
G01*
X141140000Y-82080000D01*
G75*
G02*
X140890000Y-82330000I-250000J0D01*
G01*
X140390000Y-82330000D01*
G75*
G02*
X140140000Y-82080000I0J250000D01*
G01*
G37*
G36*
G01*
X138240000Y-82080000D02*
X138240000Y-81130000D01*
G75*
G02*
X138490000Y-80880000I250000J0D01*
G01*
X138990000Y-80880000D01*
G75*
G02*
X139240000Y-81130000I0J-250000D01*
G01*
X139240000Y-82080000D01*
G75*
G02*
X138990000Y-82330000I-250000J0D01*
G01*
X138490000Y-82330000D01*
G75*
G02*
X138240000Y-82080000I0J250000D01*
G01*
G37*
%TD*%
%TO.C,C34*%
G36*
G01*
X153000000Y-65000000D02*
X152660000Y-65000000D01*
G75*
G02*
X152520000Y-64860000I0J140000D01*
G01*
X152520000Y-64580000D01*
G75*
G02*
X152660000Y-64440000I140000J0D01*
G01*
X153000000Y-64440000D01*
G75*
G02*
X153140000Y-64580000I0J-140000D01*
G01*
X153140000Y-64860000D01*
G75*
G02*
X153000000Y-65000000I-140000J0D01*
G01*
G37*
G36*
G01*
X153000000Y-65960000D02*
X152660000Y-65960000D01*
G75*
G02*
X152520000Y-65820000I0J140000D01*
G01*
X152520000Y-65540000D01*
G75*
G02*
X152660000Y-65400000I140000J0D01*
G01*
X153000000Y-65400000D01*
G75*
G02*
X153140000Y-65540000I0J-140000D01*
G01*
X153140000Y-65820000D01*
G75*
G02*
X153000000Y-65960000I-140000J0D01*
G01*
G37*
%TD*%
%TO.C,C33*%
G36*
G01*
X227480000Y-105550000D02*
X228430000Y-105550000D01*
G75*
G02*
X228680000Y-105800000I0J-250000D01*
G01*
X228680000Y-106300000D01*
G75*
G02*
X228430000Y-106550000I-250000J0D01*
G01*
X227480000Y-106550000D01*
G75*
G02*
X227230000Y-106300000I0J250000D01*
G01*
X227230000Y-105800000D01*
G75*
G02*
X227480000Y-105550000I250000J0D01*
G01*
G37*
G36*
G01*
X227480000Y-103650000D02*
X228430000Y-103650000D01*
G75*
G02*
X228680000Y-103900000I0J-250000D01*
G01*
X228680000Y-104400000D01*
G75*
G02*
X228430000Y-104650000I-250000J0D01*
G01*
X227480000Y-104650000D01*
G75*
G02*
X227230000Y-104400000I0J250000D01*
G01*
X227230000Y-103900000D01*
G75*
G02*
X227480000Y-103650000I250000J0D01*
G01*
G37*
%TD*%
%TO.C,C32*%
G36*
G01*
X230020000Y-105550000D02*
X230970000Y-105550000D01*
G75*
G02*
X231220000Y-105800000I0J-250000D01*
G01*
X231220000Y-106300000D01*
G75*
G02*
X230970000Y-106550000I-250000J0D01*
G01*
X230020000Y-106550000D01*
G75*
G02*
X229770000Y-106300000I0J250000D01*
G01*
X229770000Y-105800000D01*
G75*
G02*
X230020000Y-105550000I250000J0D01*
G01*
G37*
G36*
G01*
X230020000Y-103650000D02*
X230970000Y-103650000D01*
G75*
G02*
X231220000Y-103900000I0J-250000D01*
G01*
X231220000Y-104400000D01*
G75*
G02*
X230970000Y-104650000I-250000J0D01*
G01*
X230020000Y-104650000D01*
G75*
G02*
X229770000Y-104400000I0J250000D01*
G01*
X229770000Y-103900000D01*
G75*
G02*
X230020000Y-103650000I250000J0D01*
G01*
G37*
%TD*%
%TO.C,C31*%
G36*
G01*
X232560000Y-105550000D02*
X233510000Y-105550000D01*
G75*
G02*
X233760000Y-105800000I0J-250000D01*
G01*
X233760000Y-106300000D01*
G75*
G02*
X233510000Y-106550000I-250000J0D01*
G01*
X232560000Y-106550000D01*
G75*
G02*
X232310000Y-106300000I0J250000D01*
G01*
X232310000Y-105800000D01*
G75*
G02*
X232560000Y-105550000I250000J0D01*
G01*
G37*
G36*
G01*
X232560000Y-103650000D02*
X233510000Y-103650000D01*
G75*
G02*
X233760000Y-103900000I0J-250000D01*
G01*
X233760000Y-104400000D01*
G75*
G02*
X233510000Y-104650000I-250000J0D01*
G01*
X232560000Y-104650000D01*
G75*
G02*
X232310000Y-104400000I0J250000D01*
G01*
X232310000Y-103900000D01*
G75*
G02*
X232560000Y-103650000I250000J0D01*
G01*
G37*
%TD*%
%TO.C,C30*%
G36*
G01*
X196365000Y-105860000D02*
X197315000Y-105860000D01*
G75*
G02*
X197565000Y-106110000I0J-250000D01*
G01*
X197565000Y-106610000D01*
G75*
G02*
X197315000Y-106860000I-250000J0D01*
G01*
X196365000Y-106860000D01*
G75*
G02*
X196115000Y-106610000I0J250000D01*
G01*
X196115000Y-106110000D01*
G75*
G02*
X196365000Y-105860000I250000J0D01*
G01*
G37*
G36*
G01*
X196365000Y-103960000D02*
X197315000Y-103960000D01*
G75*
G02*
X197565000Y-104210000I0J-250000D01*
G01*
X197565000Y-104710000D01*
G75*
G02*
X197315000Y-104960000I-250000J0D01*
G01*
X196365000Y-104960000D01*
G75*
G02*
X196115000Y-104710000I0J250000D01*
G01*
X196115000Y-104210000D01*
G75*
G02*
X196365000Y-103960000I250000J0D01*
G01*
G37*
%TD*%
%TO.C,C29*%
G36*
G01*
X198905000Y-105860000D02*
X199855000Y-105860000D01*
G75*
G02*
X200105000Y-106110000I0J-250000D01*
G01*
X200105000Y-106610000D01*
G75*
G02*
X199855000Y-106860000I-250000J0D01*
G01*
X198905000Y-106860000D01*
G75*
G02*
X198655000Y-106610000I0J250000D01*
G01*
X198655000Y-106110000D01*
G75*
G02*
X198905000Y-105860000I250000J0D01*
G01*
G37*
G36*
G01*
X198905000Y-103960000D02*
X199855000Y-103960000D01*
G75*
G02*
X200105000Y-104210000I0J-250000D01*
G01*
X200105000Y-104710000D01*
G75*
G02*
X199855000Y-104960000I-250000J0D01*
G01*
X198905000Y-104960000D01*
G75*
G02*
X198655000Y-104710000I0J250000D01*
G01*
X198655000Y-104210000D01*
G75*
G02*
X198905000Y-103960000I250000J0D01*
G01*
G37*
%TD*%
%TO.C,C28*%
G36*
G01*
X201445000Y-105860000D02*
X202395000Y-105860000D01*
G75*
G02*
X202645000Y-106110000I0J-250000D01*
G01*
X202645000Y-106610000D01*
G75*
G02*
X202395000Y-106860000I-250000J0D01*
G01*
X201445000Y-106860000D01*
G75*
G02*
X201195000Y-106610000I0J250000D01*
G01*
X201195000Y-106110000D01*
G75*
G02*
X201445000Y-105860000I250000J0D01*
G01*
G37*
G36*
G01*
X201445000Y-103960000D02*
X202395000Y-103960000D01*
G75*
G02*
X202645000Y-104210000I0J-250000D01*
G01*
X202645000Y-104710000D01*
G75*
G02*
X202395000Y-104960000I-250000J0D01*
G01*
X201445000Y-104960000D01*
G75*
G02*
X201195000Y-104710000I0J250000D01*
G01*
X201195000Y-104210000D01*
G75*
G02*
X201445000Y-103960000I250000J0D01*
G01*
G37*
%TD*%
%TO.C,C27*%
G36*
G01*
X229385000Y-77610000D02*
X230335000Y-77610000D01*
G75*
G02*
X230585000Y-77860000I0J-250000D01*
G01*
X230585000Y-78360000D01*
G75*
G02*
X230335000Y-78610000I-250000J0D01*
G01*
X229385000Y-78610000D01*
G75*
G02*
X229135000Y-78360000I0J250000D01*
G01*
X229135000Y-77860000D01*
G75*
G02*
X229385000Y-77610000I250000J0D01*
G01*
G37*
G36*
G01*
X229385000Y-75710000D02*
X230335000Y-75710000D01*
G75*
G02*
X230585000Y-75960000I0J-250000D01*
G01*
X230585000Y-76460000D01*
G75*
G02*
X230335000Y-76710000I-250000J0D01*
G01*
X229385000Y-76710000D01*
G75*
G02*
X229135000Y-76460000I0J250000D01*
G01*
X229135000Y-75960000D01*
G75*
G02*
X229385000Y-75710000I250000J0D01*
G01*
G37*
%TD*%
%TO.C,C26*%
G36*
G01*
X183070000Y-97650000D02*
X183070000Y-97310000D01*
G75*
G02*
X183210000Y-97170000I140000J0D01*
G01*
X183490000Y-97170000D01*
G75*
G02*
X183630000Y-97310000I0J-140000D01*
G01*
X183630000Y-97650000D01*
G75*
G02*
X183490000Y-97790000I-140000J0D01*
G01*
X183210000Y-97790000D01*
G75*
G02*
X183070000Y-97650000I0J140000D01*
G01*
G37*
G36*
G01*
X182110000Y-97650000D02*
X182110000Y-97310000D01*
G75*
G02*
X182250000Y-97170000I140000J0D01*
G01*
X182530000Y-97170000D01*
G75*
G02*
X182670000Y-97310000I0J-140000D01*
G01*
X182670000Y-97650000D01*
G75*
G02*
X182530000Y-97790000I-140000J0D01*
G01*
X182250000Y-97790000D01*
G75*
G02*
X182110000Y-97650000I0J140000D01*
G01*
G37*
%TD*%
%TO.C,C25*%
G36*
G01*
X182220000Y-99594999D02*
X182220000Y-100445001D01*
G75*
G02*
X181970001Y-100695000I-249999J0D01*
G01*
X181069999Y-100695000D01*
G75*
G02*
X180820000Y-100445001I0J249999D01*
G01*
X180820000Y-99594999D01*
G75*
G02*
X181069999Y-99345000I249999J0D01*
G01*
X181970001Y-99345000D01*
G75*
G02*
X182220000Y-99594999I0J-249999D01*
G01*
G37*
G36*
G01*
X184920000Y-99594999D02*
X184920000Y-100445001D01*
G75*
G02*
X184670001Y-100695000I-249999J0D01*
G01*
X183769999Y-100695000D01*
G75*
G02*
X183520000Y-100445001I0J249999D01*
G01*
X183520000Y-99594999D01*
G75*
G02*
X183769999Y-99345000I249999J0D01*
G01*
X184670001Y-99345000D01*
G75*
G02*
X184920000Y-99594999I0J-249999D01*
G01*
G37*
%TD*%
%TO.C,C24*%
G36*
G01*
X176720000Y-97650000D02*
X176720000Y-97310000D01*
G75*
G02*
X176860000Y-97170000I140000J0D01*
G01*
X177140000Y-97170000D01*
G75*
G02*
X177280000Y-97310000I0J-140000D01*
G01*
X177280000Y-97650000D01*
G75*
G02*
X177140000Y-97790000I-140000J0D01*
G01*
X176860000Y-97790000D01*
G75*
G02*
X176720000Y-97650000I0J140000D01*
G01*
G37*
G36*
G01*
X175760000Y-97650000D02*
X175760000Y-97310000D01*
G75*
G02*
X175900000Y-97170000I140000J0D01*
G01*
X176180000Y-97170000D01*
G75*
G02*
X176320000Y-97310000I0J-140000D01*
G01*
X176320000Y-97650000D01*
G75*
G02*
X176180000Y-97790000I-140000J0D01*
G01*
X175900000Y-97790000D01*
G75*
G02*
X175760000Y-97650000I0J140000D01*
G01*
G37*
%TD*%
%TO.C,C23*%
G36*
G01*
X175870000Y-99594999D02*
X175870000Y-100445001D01*
G75*
G02*
X175620001Y-100695000I-249999J0D01*
G01*
X174719999Y-100695000D01*
G75*
G02*
X174470000Y-100445001I0J249999D01*
G01*
X174470000Y-99594999D01*
G75*
G02*
X174719999Y-99345000I249999J0D01*
G01*
X175620001Y-99345000D01*
G75*
G02*
X175870000Y-99594999I0J-249999D01*
G01*
G37*
G36*
G01*
X178570000Y-99594999D02*
X178570000Y-100445001D01*
G75*
G02*
X178320001Y-100695000I-249999J0D01*
G01*
X177419999Y-100695000D01*
G75*
G02*
X177170000Y-100445001I0J249999D01*
G01*
X177170000Y-99594999D01*
G75*
G02*
X177419999Y-99345000I249999J0D01*
G01*
X178320001Y-99345000D01*
G75*
G02*
X178570000Y-99594999I0J-249999D01*
G01*
G37*
%TD*%
%TO.C,C22*%
G36*
G01*
X177990000Y-74790000D02*
X177990000Y-74450000D01*
G75*
G02*
X178130000Y-74310000I140000J0D01*
G01*
X178410000Y-74310000D01*
G75*
G02*
X178550000Y-74450000I0J-140000D01*
G01*
X178550000Y-74790000D01*
G75*
G02*
X178410000Y-74930000I-140000J0D01*
G01*
X178130000Y-74930000D01*
G75*
G02*
X177990000Y-74790000I0J140000D01*
G01*
G37*
G36*
G01*
X177030000Y-74790000D02*
X177030000Y-74450000D01*
G75*
G02*
X177170000Y-74310000I140000J0D01*
G01*
X177450000Y-74310000D01*
G75*
G02*
X177590000Y-74450000I0J-140000D01*
G01*
X177590000Y-74790000D01*
G75*
G02*
X177450000Y-74930000I-140000J0D01*
G01*
X177170000Y-74930000D01*
G75*
G02*
X177030000Y-74790000I0J140000D01*
G01*
G37*
%TD*%
%TO.C,C21*%
G36*
G01*
X189590000Y-114609999D02*
X189590000Y-115910001D01*
G75*
G02*
X189340001Y-116160000I-249999J0D01*
G01*
X188689999Y-116160000D01*
G75*
G02*
X188440000Y-115910001I0J249999D01*
G01*
X188440000Y-114609999D01*
G75*
G02*
X188689999Y-114360000I249999J0D01*
G01*
X189340001Y-114360000D01*
G75*
G02*
X189590000Y-114609999I0J-249999D01*
G01*
G37*
G36*
G01*
X192540000Y-114609999D02*
X192540000Y-115910001D01*
G75*
G02*
X192290001Y-116160000I-249999J0D01*
G01*
X191639999Y-116160000D01*
G75*
G02*
X191390000Y-115910001I0J249999D01*
G01*
X191390000Y-114609999D01*
G75*
G02*
X191639999Y-114360000I249999J0D01*
G01*
X192290001Y-114360000D01*
G75*
G02*
X192540000Y-114609999I0J-249999D01*
G01*
G37*
%TD*%
%TO.C,C20*%
G36*
G01*
X227490000Y-98550000D02*
X227150000Y-98550000D01*
G75*
G02*
X227010000Y-98410000I0J140000D01*
G01*
X227010000Y-98130000D01*
G75*
G02*
X227150000Y-97990000I140000J0D01*
G01*
X227490000Y-97990000D01*
G75*
G02*
X227630000Y-98130000I0J-140000D01*
G01*
X227630000Y-98410000D01*
G75*
G02*
X227490000Y-98550000I-140000J0D01*
G01*
G37*
G36*
G01*
X227490000Y-99510000D02*
X227150000Y-99510000D01*
G75*
G02*
X227010000Y-99370000I0J140000D01*
G01*
X227010000Y-99090000D01*
G75*
G02*
X227150000Y-98950000I140000J0D01*
G01*
X227490000Y-98950000D01*
G75*
G02*
X227630000Y-99090000I0J-140000D01*
G01*
X227630000Y-99370000D01*
G75*
G02*
X227490000Y-99510000I-140000J0D01*
G01*
G37*
%TD*%
%TO.C,C19*%
G36*
G01*
X204260000Y-77625000D02*
X204260000Y-77965000D01*
G75*
G02*
X204120000Y-78105000I-140000J0D01*
G01*
X203840000Y-78105000D01*
G75*
G02*
X203700000Y-77965000I0J140000D01*
G01*
X203700000Y-77625000D01*
G75*
G02*
X203840000Y-77485000I140000J0D01*
G01*
X204120000Y-77485000D01*
G75*
G02*
X204260000Y-77625000I0J-140000D01*
G01*
G37*
G36*
G01*
X205220000Y-77625000D02*
X205220000Y-77965000D01*
G75*
G02*
X205080000Y-78105000I-140000J0D01*
G01*
X204800000Y-78105000D01*
G75*
G02*
X204660000Y-77965000I0J140000D01*
G01*
X204660000Y-77625000D01*
G75*
G02*
X204800000Y-77485000I140000J0D01*
G01*
X205080000Y-77485000D01*
G75*
G02*
X205220000Y-77625000I0J-140000D01*
G01*
G37*
%TD*%
%TO.C,C18*%
G36*
G01*
X204640000Y-52350000D02*
X204300000Y-52350000D01*
G75*
G02*
X204160000Y-52210000I0J140000D01*
G01*
X204160000Y-51930000D01*
G75*
G02*
X204300000Y-51790000I140000J0D01*
G01*
X204640000Y-51790000D01*
G75*
G02*
X204780000Y-51930000I0J-140000D01*
G01*
X204780000Y-52210000D01*
G75*
G02*
X204640000Y-52350000I-140000J0D01*
G01*
G37*
G36*
G01*
X204640000Y-53310000D02*
X204300000Y-53310000D01*
G75*
G02*
X204160000Y-53170000I0J140000D01*
G01*
X204160000Y-52890000D01*
G75*
G02*
X204300000Y-52750000I140000J0D01*
G01*
X204640000Y-52750000D01*
G75*
G02*
X204780000Y-52890000I0J-140000D01*
G01*
X204780000Y-53170000D01*
G75*
G02*
X204640000Y-53310000I-140000J0D01*
G01*
G37*
%TD*%
%TO.C,C17*%
G36*
G01*
X175090000Y-53540000D02*
X175430000Y-53540000D01*
G75*
G02*
X175570000Y-53680000I0J-140000D01*
G01*
X175570000Y-53960000D01*
G75*
G02*
X175430000Y-54100000I-140000J0D01*
G01*
X175090000Y-54100000D01*
G75*
G02*
X174950000Y-53960000I0J140000D01*
G01*
X174950000Y-53680000D01*
G75*
G02*
X175090000Y-53540000I140000J0D01*
G01*
G37*
G36*
G01*
X175090000Y-52580000D02*
X175430000Y-52580000D01*
G75*
G02*
X175570000Y-52720000I0J-140000D01*
G01*
X175570000Y-53000000D01*
G75*
G02*
X175430000Y-53140000I-140000J0D01*
G01*
X175090000Y-53140000D01*
G75*
G02*
X174950000Y-53000000I0J140000D01*
G01*
X174950000Y-52720000D01*
G75*
G02*
X175090000Y-52580000I140000J0D01*
G01*
G37*
%TD*%
%TO.C,C16*%
G36*
G01*
X84890000Y-100160000D02*
X84890000Y-100500000D01*
G75*
G02*
X84750000Y-100640000I-140000J0D01*
G01*
X84470000Y-100640000D01*
G75*
G02*
X84330000Y-100500000I0J140000D01*
G01*
X84330000Y-100160000D01*
G75*
G02*
X84470000Y-100020000I140000J0D01*
G01*
X84750000Y-100020000D01*
G75*
G02*
X84890000Y-100160000I0J-140000D01*
G01*
G37*
G36*
G01*
X85850000Y-100160000D02*
X85850000Y-100500000D01*
G75*
G02*
X85710000Y-100640000I-140000J0D01*
G01*
X85430000Y-100640000D01*
G75*
G02*
X85290000Y-100500000I0J140000D01*
G01*
X85290000Y-100160000D01*
G75*
G02*
X85430000Y-100020000I140000J0D01*
G01*
X85710000Y-100020000D01*
G75*
G02*
X85850000Y-100160000I0J-140000D01*
G01*
G37*
%TD*%
%TO.C,C15*%
G36*
G01*
X84640000Y-98275000D02*
X84640000Y-99225000D01*
G75*
G02*
X84390000Y-99475000I-250000J0D01*
G01*
X83890000Y-99475000D01*
G75*
G02*
X83640000Y-99225000I0J250000D01*
G01*
X83640000Y-98275000D01*
G75*
G02*
X83890000Y-98025000I250000J0D01*
G01*
X84390000Y-98025000D01*
G75*
G02*
X84640000Y-98275000I0J-250000D01*
G01*
G37*
G36*
G01*
X86540000Y-98275000D02*
X86540000Y-99225000D01*
G75*
G02*
X86290000Y-99475000I-250000J0D01*
G01*
X85790000Y-99475000D01*
G75*
G02*
X85540000Y-99225000I0J250000D01*
G01*
X85540000Y-98275000D01*
G75*
G02*
X85790000Y-98025000I250000J0D01*
G01*
X86290000Y-98025000D01*
G75*
G02*
X86540000Y-98275000I0J-250000D01*
G01*
G37*
%TD*%
%TO.C,C14*%
G36*
G01*
X153825000Y-114820000D02*
X152875000Y-114820000D01*
G75*
G02*
X152625000Y-114570000I0J250000D01*
G01*
X152625000Y-114070000D01*
G75*
G02*
X152875000Y-113820000I250000J0D01*
G01*
X153825000Y-113820000D01*
G75*
G02*
X154075000Y-114070000I0J-250000D01*
G01*
X154075000Y-114570000D01*
G75*
G02*
X153825000Y-114820000I-250000J0D01*
G01*
G37*
G36*
G01*
X153825000Y-116720000D02*
X152875000Y-116720000D01*
G75*
G02*
X152625000Y-116470000I0J250000D01*
G01*
X152625000Y-115970000D01*
G75*
G02*
X152875000Y-115720000I250000J0D01*
G01*
X153825000Y-115720000D01*
G75*
G02*
X154075000Y-115970000I0J-250000D01*
G01*
X154075000Y-116470000D01*
G75*
G02*
X153825000Y-116720000I-250000J0D01*
G01*
G37*
%TD*%
%TO.C,C13*%
G36*
G01*
X153825000Y-105920000D02*
X152875000Y-105920000D01*
G75*
G02*
X152625000Y-105670000I0J250000D01*
G01*
X152625000Y-105170000D01*
G75*
G02*
X152875000Y-104920000I250000J0D01*
G01*
X153825000Y-104920000D01*
G75*
G02*
X154075000Y-105170000I0J-250000D01*
G01*
X154075000Y-105670000D01*
G75*
G02*
X153825000Y-105920000I-250000J0D01*
G01*
G37*
G36*
G01*
X153825000Y-107820000D02*
X152875000Y-107820000D01*
G75*
G02*
X152625000Y-107570000I0J250000D01*
G01*
X152625000Y-107070000D01*
G75*
G02*
X152875000Y-106820000I250000J0D01*
G01*
X153825000Y-106820000D01*
G75*
G02*
X154075000Y-107070000I0J-250000D01*
G01*
X154075000Y-107570000D01*
G75*
G02*
X153825000Y-107820000I-250000J0D01*
G01*
G37*
%TD*%
%TO.C,C12*%
G36*
G01*
X91640000Y-100500000D02*
X91640000Y-100160000D01*
G75*
G02*
X91780000Y-100020000I140000J0D01*
G01*
X92060000Y-100020000D01*
G75*
G02*
X92200000Y-100160000I0J-140000D01*
G01*
X92200000Y-100500000D01*
G75*
G02*
X92060000Y-100640000I-140000J0D01*
G01*
X91780000Y-100640000D01*
G75*
G02*
X91640000Y-100500000I0J140000D01*
G01*
G37*
G36*
G01*
X90680000Y-100500000D02*
X90680000Y-100160000D01*
G75*
G02*
X90820000Y-100020000I140000J0D01*
G01*
X91100000Y-100020000D01*
G75*
G02*
X91240000Y-100160000I0J-140000D01*
G01*
X91240000Y-100500000D01*
G75*
G02*
X91100000Y-100640000I-140000J0D01*
G01*
X90820000Y-100640000D01*
G75*
G02*
X90680000Y-100500000I0J140000D01*
G01*
G37*
%TD*%
%TO.C,C11*%
G36*
G01*
X91880000Y-99225000D02*
X91880000Y-98275000D01*
G75*
G02*
X92130000Y-98025000I250000J0D01*
G01*
X92630000Y-98025000D01*
G75*
G02*
X92880000Y-98275000I0J-250000D01*
G01*
X92880000Y-99225000D01*
G75*
G02*
X92630000Y-99475000I-250000J0D01*
G01*
X92130000Y-99475000D01*
G75*
G02*
X91880000Y-99225000I0J250000D01*
G01*
G37*
G36*
G01*
X89980000Y-99225000D02*
X89980000Y-98275000D01*
G75*
G02*
X90230000Y-98025000I250000J0D01*
G01*
X90730000Y-98025000D01*
G75*
G02*
X90980000Y-98275000I0J-250000D01*
G01*
X90980000Y-99225000D01*
G75*
G02*
X90730000Y-99475000I-250000J0D01*
G01*
X90230000Y-99475000D01*
G75*
G02*
X89980000Y-99225000I0J250000D01*
G01*
G37*
%TD*%
%TO.C,C10*%
G36*
G01*
X97990000Y-100500000D02*
X97990000Y-100160000D01*
G75*
G02*
X98130000Y-100020000I140000J0D01*
G01*
X98410000Y-100020000D01*
G75*
G02*
X98550000Y-100160000I0J-140000D01*
G01*
X98550000Y-100500000D01*
G75*
G02*
X98410000Y-100640000I-140000J0D01*
G01*
X98130000Y-100640000D01*
G75*
G02*
X97990000Y-100500000I0J140000D01*
G01*
G37*
G36*
G01*
X97030000Y-100500000D02*
X97030000Y-100160000D01*
G75*
G02*
X97170000Y-100020000I140000J0D01*
G01*
X97450000Y-100020000D01*
G75*
G02*
X97590000Y-100160000I0J-140000D01*
G01*
X97590000Y-100500000D01*
G75*
G02*
X97450000Y-100640000I-140000J0D01*
G01*
X97170000Y-100640000D01*
G75*
G02*
X97030000Y-100500000I0J140000D01*
G01*
G37*
%TD*%
%TO.C,C9*%
G36*
G01*
X98240000Y-99225000D02*
X98240000Y-98275000D01*
G75*
G02*
X98490000Y-98025000I250000J0D01*
G01*
X98990000Y-98025000D01*
G75*
G02*
X99240000Y-98275000I0J-250000D01*
G01*
X99240000Y-99225000D01*
G75*
G02*
X98990000Y-99475000I-250000J0D01*
G01*
X98490000Y-99475000D01*
G75*
G02*
X98240000Y-99225000I0J250000D01*
G01*
G37*
G36*
G01*
X96340000Y-99225000D02*
X96340000Y-98275000D01*
G75*
G02*
X96590000Y-98025000I250000J0D01*
G01*
X97090000Y-98025000D01*
G75*
G02*
X97340000Y-98275000I0J-250000D01*
G01*
X97340000Y-99225000D01*
G75*
G02*
X97090000Y-99475000I-250000J0D01*
G01*
X96590000Y-99475000D01*
G75*
G02*
X96340000Y-99225000I0J250000D01*
G01*
G37*
%TD*%
%TO.C,C8*%
G36*
G01*
X166845000Y-116990000D02*
X167795000Y-116990000D01*
G75*
G02*
X168045000Y-117240000I0J-250000D01*
G01*
X168045000Y-117740000D01*
G75*
G02*
X167795000Y-117990000I-250000J0D01*
G01*
X166845000Y-117990000D01*
G75*
G02*
X166595000Y-117740000I0J250000D01*
G01*
X166595000Y-117240000D01*
G75*
G02*
X166845000Y-116990000I250000J0D01*
G01*
G37*
G36*
G01*
X166845000Y-115090000D02*
X167795000Y-115090000D01*
G75*
G02*
X168045000Y-115340000I0J-250000D01*
G01*
X168045000Y-115840000D01*
G75*
G02*
X167795000Y-116090000I-250000J0D01*
G01*
X166845000Y-116090000D01*
G75*
G02*
X166595000Y-115840000I0J250000D01*
G01*
X166595000Y-115340000D01*
G75*
G02*
X166845000Y-115090000I250000J0D01*
G01*
G37*
%TD*%
%TO.C,C7*%
G36*
G01*
X166845000Y-106820000D02*
X167795000Y-106820000D01*
G75*
G02*
X168045000Y-107070000I0J-250000D01*
G01*
X168045000Y-107570000D01*
G75*
G02*
X167795000Y-107820000I-250000J0D01*
G01*
X166845000Y-107820000D01*
G75*
G02*
X166595000Y-107570000I0J250000D01*
G01*
X166595000Y-107070000D01*
G75*
G02*
X166845000Y-106820000I250000J0D01*
G01*
G37*
G36*
G01*
X166845000Y-104920000D02*
X167795000Y-104920000D01*
G75*
G02*
X168045000Y-105170000I0J-250000D01*
G01*
X168045000Y-105670000D01*
G75*
G02*
X167795000Y-105920000I-250000J0D01*
G01*
X166845000Y-105920000D01*
G75*
G02*
X166595000Y-105670000I0J250000D01*
G01*
X166595000Y-105170000D01*
G75*
G02*
X166845000Y-104920000I250000J0D01*
G01*
G37*
%TD*%
%TO.C,C6*%
G36*
G01*
X104615000Y-85910000D02*
X103665000Y-85910000D01*
G75*
G02*
X103415000Y-85660000I0J250000D01*
G01*
X103415000Y-85160000D01*
G75*
G02*
X103665000Y-84910000I250000J0D01*
G01*
X104615000Y-84910000D01*
G75*
G02*
X104865000Y-85160000I0J-250000D01*
G01*
X104865000Y-85660000D01*
G75*
G02*
X104615000Y-85910000I-250000J0D01*
G01*
G37*
G36*
G01*
X104615000Y-87810000D02*
X103665000Y-87810000D01*
G75*
G02*
X103415000Y-87560000I0J250000D01*
G01*
X103415000Y-87060000D01*
G75*
G02*
X103665000Y-86810000I250000J0D01*
G01*
X104615000Y-86810000D01*
G75*
G02*
X104865000Y-87060000I0J-250000D01*
G01*
X104865000Y-87560000D01*
G75*
G02*
X104615000Y-87810000I-250000J0D01*
G01*
G37*
%TD*%
%TO.C,C5*%
G36*
G01*
X104615000Y-98610000D02*
X103665000Y-98610000D01*
G75*
G02*
X103415000Y-98360000I0J250000D01*
G01*
X103415000Y-97860000D01*
G75*
G02*
X103665000Y-97610000I250000J0D01*
G01*
X104615000Y-97610000D01*
G75*
G02*
X104865000Y-97860000I0J-250000D01*
G01*
X104865000Y-98360000D01*
G75*
G02*
X104615000Y-98610000I-250000J0D01*
G01*
G37*
G36*
G01*
X104615000Y-100510000D02*
X103665000Y-100510000D01*
G75*
G02*
X103415000Y-100260000I0J250000D01*
G01*
X103415000Y-99760000D01*
G75*
G02*
X103665000Y-99510000I250000J0D01*
G01*
X104615000Y-99510000D01*
G75*
G02*
X104865000Y-99760000I0J-250000D01*
G01*
X104865000Y-100260000D01*
G75*
G02*
X104615000Y-100510000I-250000J0D01*
G01*
G37*
%TD*%
%TO.C,C4*%
G36*
G01*
X97980000Y-101830000D02*
X97980000Y-101490000D01*
G75*
G02*
X98120000Y-101350000I140000J0D01*
G01*
X98400000Y-101350000D01*
G75*
G02*
X98540000Y-101490000I0J-140000D01*
G01*
X98540000Y-101830000D01*
G75*
G02*
X98400000Y-101970000I-140000J0D01*
G01*
X98120000Y-101970000D01*
G75*
G02*
X97980000Y-101830000I0J140000D01*
G01*
G37*
G36*
G01*
X97020000Y-101830000D02*
X97020000Y-101490000D01*
G75*
G02*
X97160000Y-101350000I140000J0D01*
G01*
X97440000Y-101350000D01*
G75*
G02*
X97580000Y-101490000I0J-140000D01*
G01*
X97580000Y-101830000D01*
G75*
G02*
X97440000Y-101970000I-140000J0D01*
G01*
X97160000Y-101970000D01*
G75*
G02*
X97020000Y-101830000I0J140000D01*
G01*
G37*
%TD*%
%TO.C,C3*%
G36*
G01*
X89140000Y-112395000D02*
X88640000Y-112395000D01*
G75*
G02*
X88415000Y-112170000I0J225000D01*
G01*
X88415000Y-111720000D01*
G75*
G02*
X88640000Y-111495000I225000J0D01*
G01*
X89140000Y-111495000D01*
G75*
G02*
X89365000Y-111720000I0J-225000D01*
G01*
X89365000Y-112170000D01*
G75*
G02*
X89140000Y-112395000I-225000J0D01*
G01*
G37*
G36*
G01*
X89140000Y-113945000D02*
X88640000Y-113945000D01*
G75*
G02*
X88415000Y-113720000I0J225000D01*
G01*
X88415000Y-113270000D01*
G75*
G02*
X88640000Y-113045000I225000J0D01*
G01*
X89140000Y-113045000D01*
G75*
G02*
X89365000Y-113270000I0J-225000D01*
G01*
X89365000Y-113720000D01*
G75*
G02*
X89140000Y-113945000I-225000J0D01*
G01*
G37*
%TD*%
%TO.C,C2*%
G36*
G01*
X104615000Y-80830000D02*
X103665000Y-80830000D01*
G75*
G02*
X103415000Y-80580000I0J250000D01*
G01*
X103415000Y-80080000D01*
G75*
G02*
X103665000Y-79830000I250000J0D01*
G01*
X104615000Y-79830000D01*
G75*
G02*
X104865000Y-80080000I0J-250000D01*
G01*
X104865000Y-80580000D01*
G75*
G02*
X104615000Y-80830000I-250000J0D01*
G01*
G37*
G36*
G01*
X104615000Y-82730000D02*
X103665000Y-82730000D01*
G75*
G02*
X103415000Y-82480000I0J250000D01*
G01*
X103415000Y-81980000D01*
G75*
G02*
X103665000Y-81730000I250000J0D01*
G01*
X104615000Y-81730000D01*
G75*
G02*
X104865000Y-81980000I0J-250000D01*
G01*
X104865000Y-82480000D01*
G75*
G02*
X104615000Y-82730000I-250000J0D01*
G01*
G37*
%TD*%
%TO.C,C1*%
G36*
G01*
X104615000Y-93530000D02*
X103665000Y-93530000D01*
G75*
G02*
X103415000Y-93280000I0J250000D01*
G01*
X103415000Y-92780000D01*
G75*
G02*
X103665000Y-92530000I250000J0D01*
G01*
X104615000Y-92530000D01*
G75*
G02*
X104865000Y-92780000I0J-250000D01*
G01*
X104865000Y-93280000D01*
G75*
G02*
X104615000Y-93530000I-250000J0D01*
G01*
G37*
G36*
G01*
X104615000Y-95430000D02*
X103665000Y-95430000D01*
G75*
G02*
X103415000Y-95180000I0J250000D01*
G01*
X103415000Y-94680000D01*
G75*
G02*
X103665000Y-94430000I250000J0D01*
G01*
X104615000Y-94430000D01*
G75*
G02*
X104865000Y-94680000I0J-250000D01*
G01*
X104865000Y-95180000D01*
G75*
G02*
X104615000Y-95430000I-250000J0D01*
G01*
G37*
%TD*%
M02*
