%TF.GenerationSoftware,KiCad,Pcbnew,(5.1.10)-1*%
%TF.CreationDate,2024-11-23T17:23:43+01:00*%
%TF.ProjectId,EFES_project,45464553-5f70-4726-9f6a-6563742e6b69,rev?*%
%TF.SameCoordinates,Original*%
%TF.FileFunction,Soldermask,Bot*%
%TF.FilePolarity,Negative*%
%FSLAX46Y46*%
G04 Gerber Fmt 4.6, Leading zero omitted, Abs format (unit mm)*
G04 Created by KiCad (PCBNEW (5.1.10)-1) date 2024-11-23 17:23:43*
%MOMM*%
%LPD*%
G01*
G04 APERTURE LIST*
%ADD10O,1.700000X1.700000*%
%ADD11R,1.700000X1.700000*%
%ADD12C,1.700000*%
%ADD13C,1.500000*%
%ADD14C,3.204000*%
%ADD15C,1.712000*%
%ADD16R,2.000000X1.500000*%
%ADD17O,2.000000X1.500000*%
%ADD18O,5.000000X2.500000*%
%ADD19O,2.500000X5.000000*%
%ADD20O,2.720000X3.240000*%
%ADD21C,1.800000*%
%ADD22R,1.800000X1.800000*%
%ADD23O,1.700000X1.350000*%
%ADD24O,1.500000X1.100000*%
%ADD25C,2.800000*%
%ADD26C,3.000000*%
%ADD27O,4.000000X2.000000*%
%ADD28O,2.000000X4.000000*%
%ADD29R,3.500000X3.500000*%
G04 APERTURE END LIST*
D10*
%TO.C,J14*%
X171450000Y-74930000D03*
X168910000Y-74930000D03*
X171450000Y-72390000D03*
X168910000Y-72390000D03*
X171450000Y-69850000D03*
D11*
X168910000Y-69850000D03*
%TD*%
D12*
%TO.C,J7*%
X227330000Y-34290000D03*
X224790000Y-34290000D03*
X222250000Y-34290000D03*
X219710000Y-34290000D03*
X217170000Y-34290000D03*
X214630000Y-34290000D03*
X227330000Y-36830000D03*
X224790000Y-36830000D03*
X222250000Y-36830000D03*
X219710000Y-36830000D03*
X217170000Y-36830000D03*
G36*
G01*
X215230000Y-37680000D02*
X214030000Y-37680000D01*
G75*
G02*
X213780000Y-37430000I0J250000D01*
G01*
X213780000Y-36230000D01*
G75*
G02*
X214030000Y-35980000I250000J0D01*
G01*
X215230000Y-35980000D01*
G75*
G02*
X215480000Y-36230000I0J-250000D01*
G01*
X215480000Y-37430000D01*
G75*
G02*
X215230000Y-37680000I-250000J0D01*
G01*
G37*
%TD*%
%TO.C,J5*%
X227330000Y-45720000D03*
X224790000Y-45720000D03*
X222250000Y-45720000D03*
X219710000Y-45720000D03*
X217170000Y-45720000D03*
X214630000Y-45720000D03*
X227330000Y-48260000D03*
X224790000Y-48260000D03*
X222250000Y-48260000D03*
X219710000Y-48260000D03*
X217170000Y-48260000D03*
G36*
G01*
X215230000Y-49110000D02*
X214030000Y-49110000D01*
G75*
G02*
X213780000Y-48860000I0J250000D01*
G01*
X213780000Y-47660000D01*
G75*
G02*
X214030000Y-47410000I250000J0D01*
G01*
X215230000Y-47410000D01*
G75*
G02*
X215480000Y-47660000I0J-250000D01*
G01*
X215480000Y-48860000D01*
G75*
G02*
X215230000Y-49110000I-250000J0D01*
G01*
G37*
%TD*%
D10*
%TO.C,J4*%
X191770000Y-106680000D03*
X189230000Y-106680000D03*
X191770000Y-104140000D03*
X189230000Y-104140000D03*
X191770000Y-101600000D03*
X189230000Y-101600000D03*
X191770000Y-99060000D03*
X189230000Y-99060000D03*
X191770000Y-96520000D03*
X189230000Y-96520000D03*
X191770000Y-93980000D03*
X189230000Y-93980000D03*
X191770000Y-91440000D03*
X189230000Y-91440000D03*
X191770000Y-88900000D03*
X189230000Y-88900000D03*
X191770000Y-86360000D03*
X189230000Y-86360000D03*
X191770000Y-83820000D03*
X189230000Y-83820000D03*
X191770000Y-81280000D03*
X189230000Y-81280000D03*
X191770000Y-78740000D03*
X189230000Y-78740000D03*
X191770000Y-76200000D03*
X189230000Y-76200000D03*
X191770000Y-73660000D03*
D11*
X189230000Y-73660000D03*
%TD*%
D13*
%TO.C,Y1*%
X158570000Y-81280000D03*
X153670000Y-81280000D03*
%TD*%
D14*
%TO.C,U18*%
X100750000Y-71650000D03*
X122750000Y-71650000D03*
X122750000Y-49650000D03*
X100750000Y-49650000D03*
D15*
X115560000Y-49150000D03*
X113020000Y-49150000D03*
X110480000Y-49150000D03*
G36*
G01*
X107084000Y-49904000D02*
X107084000Y-48396000D01*
G75*
G02*
X107186000Y-48294000I102000J0D01*
G01*
X108694000Y-48294000D01*
G75*
G02*
X108796000Y-48396000I0J-102000D01*
G01*
X108796000Y-49904000D01*
G75*
G02*
X108694000Y-50006000I-102000J0D01*
G01*
X107186000Y-50006000D01*
G75*
G02*
X107084000Y-49904000I0J102000D01*
G01*
G37*
%TD*%
D16*
%TO.C,U6*%
X106680000Y-80010000D03*
D17*
X106680000Y-82550000D03*
X106680000Y-85090000D03*
X106680000Y-87630000D03*
%TD*%
D16*
%TO.C,U5*%
X106680000Y-92710000D03*
D17*
X106680000Y-95250000D03*
X106680000Y-97790000D03*
X106680000Y-100330000D03*
%TD*%
D18*
%TO.C,SW3*%
X238750000Y-50110000D03*
X238750000Y-45410000D03*
X238750000Y-40710000D03*
%TD*%
D19*
%TO.C,SW1*%
X101210000Y-116530000D03*
X96510000Y-116530000D03*
X91810000Y-116530000D03*
%TD*%
D20*
%TO.C,RV10*%
X150750000Y-35990000D03*
X160350000Y-35990000D03*
D21*
X158050000Y-43490000D03*
X155550000Y-43490000D03*
D22*
X153050000Y-43490000D03*
%TD*%
D20*
%TO.C,RV9*%
X165750000Y-35990000D03*
X175350000Y-35990000D03*
D21*
X173050000Y-43490000D03*
X170550000Y-43490000D03*
D22*
X168050000Y-43490000D03*
%TD*%
%TO.C,RV8*%
X183050000Y-43490000D03*
D21*
X185550000Y-43490000D03*
X188050000Y-43490000D03*
D20*
X190350000Y-35990000D03*
X180750000Y-35990000D03*
%TD*%
%TO.C,RV7*%
X195750000Y-35990000D03*
X205350000Y-35990000D03*
D21*
X203050000Y-43490000D03*
X200550000Y-43490000D03*
D22*
X198050000Y-43490000D03*
%TD*%
D20*
%TO.C,RV6*%
X90750000Y-35990000D03*
X100350000Y-35990000D03*
D21*
X98050000Y-43490000D03*
X95550000Y-43490000D03*
D22*
X93050000Y-43490000D03*
%TD*%
D20*
%TO.C,RV5*%
X105750000Y-35990000D03*
X115350000Y-35990000D03*
D21*
X113050000Y-43490000D03*
X110550000Y-43490000D03*
D22*
X108050000Y-43490000D03*
%TD*%
D20*
%TO.C,RV4*%
X120750000Y-35990000D03*
X130350000Y-35990000D03*
D21*
X128050000Y-43490000D03*
X125550000Y-43490000D03*
D22*
X123050000Y-43490000D03*
%TD*%
D20*
%TO.C,RV3*%
X135750000Y-35990000D03*
X145350000Y-35990000D03*
D21*
X143050000Y-43490000D03*
X140550000Y-43490000D03*
D22*
X138050000Y-43490000D03*
%TD*%
D20*
%TO.C,RV2*%
X129200000Y-98870000D03*
X138800000Y-98870000D03*
D21*
X136500000Y-106370000D03*
X134000000Y-106370000D03*
D22*
X131500000Y-106370000D03*
%TD*%
D20*
%TO.C,RV1*%
X115200000Y-98870000D03*
X124800000Y-98870000D03*
D21*
X122500000Y-106370000D03*
X120000000Y-106370000D03*
D22*
X117500000Y-106370000D03*
%TD*%
D10*
%TO.C,J19*%
X96520000Y-92710000D03*
X96520000Y-95250000D03*
X93980000Y-92710000D03*
X93980000Y-95250000D03*
X91440000Y-92710000D03*
X91440000Y-95250000D03*
X88900000Y-92710000D03*
X88900000Y-95250000D03*
X86360000Y-92710000D03*
X86360000Y-95250000D03*
X83820000Y-92710000D03*
D11*
X83820000Y-95250000D03*
%TD*%
D10*
%TO.C,J18*%
X172710000Y-113990000D03*
D11*
X172710000Y-116530000D03*
%TD*%
D10*
%TO.C,J17*%
X172710000Y-105100000D03*
D11*
X172710000Y-107640000D03*
%TD*%
D23*
%TO.C,J16*%
X81885000Y-76055000D03*
X81885000Y-70595000D03*
D24*
X84885000Y-75745000D03*
X84885000Y-70905000D03*
%TD*%
D10*
%TO.C,J15*%
X167640000Y-90170000D03*
X165100000Y-90170000D03*
X162560000Y-90170000D03*
X160020000Y-90170000D03*
X157480000Y-90170000D03*
X154940000Y-90170000D03*
X152400000Y-90170000D03*
D11*
X149860000Y-90170000D03*
%TD*%
D10*
%TO.C,J13*%
X128260000Y-52060000D03*
D11*
X128260000Y-54600000D03*
%TD*%
D10*
%TO.C,J12*%
X149860000Y-54610000D03*
X152400000Y-54610000D03*
X154940000Y-54610000D03*
D11*
X157480000Y-54610000D03*
%TD*%
D10*
%TO.C,J11*%
X165100000Y-54610000D03*
D11*
X167640000Y-54610000D03*
%TD*%
D25*
%TO.C,J10*%
X92620000Y-64650000D03*
X92620000Y-49650000D03*
X95120000Y-62150000D03*
X95120000Y-52150000D03*
X92620000Y-57150000D03*
D26*
X82620000Y-62150000D03*
X82620000Y-52150000D03*
%TD*%
D10*
%TO.C,J9*%
X198120000Y-67310000D03*
X198120000Y-64770000D03*
X200660000Y-67310000D03*
X200660000Y-64770000D03*
X203200000Y-67310000D03*
X203200000Y-64770000D03*
X205740000Y-67310000D03*
X205740000Y-64770000D03*
X208280000Y-67310000D03*
X208280000Y-64770000D03*
X210820000Y-67310000D03*
X210820000Y-64770000D03*
X213360000Y-67310000D03*
X213360000Y-64770000D03*
X215900000Y-67310000D03*
X215900000Y-64770000D03*
X218440000Y-67310000D03*
X218440000Y-64770000D03*
X220980000Y-67310000D03*
X220980000Y-64770000D03*
X223520000Y-67310000D03*
X223520000Y-64770000D03*
X226060000Y-67310000D03*
X226060000Y-64770000D03*
X228600000Y-67310000D03*
X228600000Y-64770000D03*
X231140000Y-67310000D03*
D11*
X231140000Y-64770000D03*
%TD*%
D10*
%TO.C,J8*%
X237490000Y-73660000D03*
X240030000Y-73660000D03*
X237490000Y-76200000D03*
X240030000Y-76200000D03*
X237490000Y-78740000D03*
X240030000Y-78740000D03*
X237490000Y-81280000D03*
X240030000Y-81280000D03*
X237490000Y-83820000D03*
X240030000Y-83820000D03*
X237490000Y-86360000D03*
X240030000Y-86360000D03*
X237490000Y-88900000D03*
X240030000Y-88900000D03*
X237490000Y-91440000D03*
X240030000Y-91440000D03*
X237490000Y-93980000D03*
X240030000Y-93980000D03*
X237490000Y-96520000D03*
X240030000Y-96520000D03*
X237490000Y-99060000D03*
X240030000Y-99060000D03*
X237490000Y-101600000D03*
X240030000Y-101600000D03*
X237490000Y-104140000D03*
X240030000Y-104140000D03*
X237490000Y-106680000D03*
D11*
X240030000Y-106680000D03*
%TD*%
D10*
%TO.C,J6*%
X231140000Y-113030000D03*
X231140000Y-115570000D03*
X228600000Y-113030000D03*
X228600000Y-115570000D03*
X226060000Y-113030000D03*
X226060000Y-115570000D03*
X223520000Y-113030000D03*
X223520000Y-115570000D03*
X220980000Y-113030000D03*
X220980000Y-115570000D03*
X218440000Y-113030000D03*
X218440000Y-115570000D03*
X215900000Y-113030000D03*
X215900000Y-115570000D03*
X213360000Y-113030000D03*
X213360000Y-115570000D03*
X210820000Y-113030000D03*
X210820000Y-115570000D03*
X208280000Y-113030000D03*
X208280000Y-115570000D03*
X205740000Y-113030000D03*
X205740000Y-115570000D03*
X203200000Y-113030000D03*
X203200000Y-115570000D03*
X200660000Y-113030000D03*
X200660000Y-115570000D03*
X198120000Y-113030000D03*
D11*
X198120000Y-115570000D03*
%TD*%
D27*
%TO.C,J3*%
X139000000Y-117000000D03*
D28*
X134000000Y-112000000D03*
X144000000Y-112000000D03*
X141500000Y-112000000D03*
X136500000Y-112000000D03*
%TD*%
D27*
%TO.C,J2*%
X125000000Y-117000000D03*
D28*
X120000000Y-112000000D03*
X130000000Y-112000000D03*
X127500000Y-112000000D03*
X122500000Y-112000000D03*
%TD*%
%TO.C,J1*%
G36*
G01*
X114795000Y-114240000D02*
X113045000Y-114240000D01*
G75*
G02*
X112170000Y-113365000I0J875000D01*
G01*
X112170000Y-111615000D01*
G75*
G02*
X113045000Y-110740000I875000J0D01*
G01*
X114795000Y-110740000D01*
G75*
G02*
X115670000Y-111615000I0J-875000D01*
G01*
X115670000Y-113365000D01*
G75*
G02*
X114795000Y-114240000I-875000J0D01*
G01*
G37*
G36*
G01*
X110220000Y-116990000D02*
X108220000Y-116990000D01*
G75*
G02*
X107470000Y-116240000I0J750000D01*
G01*
X107470000Y-114740000D01*
G75*
G02*
X108220000Y-113990000I750000J0D01*
G01*
X110220000Y-113990000D01*
G75*
G02*
X110970000Y-114740000I0J-750000D01*
G01*
X110970000Y-116240000D01*
G75*
G02*
X110220000Y-116990000I-750000J0D01*
G01*
G37*
D29*
X109220000Y-109490000D03*
%TD*%
M02*
