M48
; DRILL file {KiCad (5.1.10)-1} date 11/23/24 17:23:36
; FORMAT={-:-/ absolute / inch / decimal}
; #@! TF.CreationDate,2024-11-23T17:23:36+01:00
; #@! TF.GenerationSoftware,Kicad,Pcbnew,(5.1.10)-1
; #@! TF.FileFunction,Plated,1,2,PTH
FMAT,2
INCH
T1C0.0157
T2C0.0256
T3C0.0276
T4C0.0315
T5C0.0394
T6C0.0433
T7C0.0551
T8C0.0709
T9C0.0787
%
G90
G05
T1
X3.1996Y-4.4378
X3.2996Y-3.1378
X3.7496Y-4.0878
X3.7996Y-4.2878
X3.8996Y-3.7378
X4.3496Y-3.8878
X4.3996Y-4.1378
X4.5996Y-4.0378
X4.9996Y-3.3878
X5.0496Y-2.8378
X5.2746Y-1.9378
X5.3496Y-2.8378
X5.3496Y-3.0878
X5.3996Y-3.0378
X5.6Y-2.95
X5.6Y-3.05
X5.6496Y-3.2378
X5.9246Y-2.7628
X5.9246Y-2.9378
X5.95Y-2.9
X5.9746Y-3.0878
X5.9996Y-4.3378
X6.0246Y-3.0878
X6.0496Y-2.5378
X6.1996Y-3.3878
X6.1996Y-4.0378
X6.1996Y-4.0378
X6.3045Y-4.4927
X6.3496Y-4.5878
X6.3996Y-4.2878
X6.4496Y-3.0378
X6.4496Y-4.2378
X6.5996Y-3.2378
X6.6996Y-4.3378
X6.7246Y-4.0378
X6.8996Y-4.0378
X6.9996Y-3.6378
X7.0996Y-3.6878
X7.0996Y-4.0378
X7.0996Y-4.4378
X7.15Y-3.15
X7.2246Y-2.9628
X7.2496Y-3.3878
X7.2996Y-3.6378
X7.3496Y-2.0378
X7.3496Y-3.4378
X7.3496Y-3.5378
X7.35Y-3.15
X7.45Y-2.2
X7.55Y-2.15
X7.8496Y-3.6878
X7.8496Y-3.9378
X7.8996Y-2.0378
X8.0496Y-2.3128
X8.0496Y-2.9378
X8.0996Y-3.2878
X8.0996Y-3.5378
X8.0996Y-3.8378
X8.1496Y-3.1878
X8.1496Y-3.3378
X8.1496Y-3.5878
X8.1639Y-2.7735
X8.1949Y-4.0878
X8.1996Y-3.1878
X8.2496Y-3.8378
X8.2496Y-3.8878
X8.2996Y-3.8878
X8.2996Y-4.1378
X8.3996Y-3.8878
X8.4313Y-2.9878
X8.4496Y-3.1878
X8.4496Y-3.5378
X8.4746Y-2.1378
X8.5081Y-2.9378
X8.5297Y-3.0378
X8.5496Y-2.8378
X8.5496Y-3.1878
X8.5996Y-3.8878
X8.6496Y-2.8378
X8.6996Y-1.6878
X8.6996Y-2.2878
X8.6996Y-2.7878
X8.6996Y-3.8378
X8.7496Y-3.5378
X8.7496Y-3.7378
X8.7496Y-4.0878
X8.7996Y-3.2378
X8.7996Y-3.6878
X8.7996Y-3.8378
X8.7996Y-4.0378
X8.8011Y-2.9893
X8.8167Y-3.5378
X8.8246Y-2.2878
X8.8496Y-2.9878
X8.8996Y-3.9378
X8.9496Y-2.3878
X8.9496Y-3.4705
X8.9496Y-3.5295
X8.9965Y-2.2846
X8.9996Y-2.0878
X8.9996Y-3.9378
X9.0496Y-2.2878
X9.0496Y-2.4878
X9.0746Y-2.1128
X9.1996Y-2.9878
X9.2496Y-1.3878
X9.2496Y-4.3378
X9.3496Y-2.2878
X9.3496Y-2.4878
X9.4996Y-2.4878
T3
X4.2Y-3.15
X4.2Y-3.25
X4.2Y-3.35
X4.2Y-3.45
X4.2Y-3.65
X4.2Y-3.75
X4.2Y-3.85
X4.2Y-3.95
T4
X6.05Y-3.2
X6.2429Y-3.2
T5
X3.3Y-3.65
X3.3Y-3.75
X3.4Y-3.65
X3.4Y-3.75
X3.5Y-3.65
X3.5Y-3.75
X3.6Y-3.65
X3.6Y-3.75
X3.6634Y-1.7122
X3.7Y-3.65
X3.7Y-3.75
X3.7618Y-1.7122
X3.8Y-3.65
X3.8Y-3.75
X3.8602Y-1.7122
X4.2496Y-1.935
X4.2539Y-1.7122
X4.3496Y-1.935
X4.3524Y-1.7122
X4.4496Y-1.935
X4.4508Y-1.7122
X4.5496Y-1.935
X4.626Y-4.1878
X4.7244Y-4.1878
X4.8228Y-4.1878
X4.8445Y-1.7122
X4.9429Y-1.7122
X5.0413Y-1.7122
X5.0496Y-2.0496
X5.0496Y-2.1496
X5.1772Y-4.1878
X5.2756Y-4.1878
X5.374Y-4.1878
X5.435Y-1.7122
X5.5335Y-1.7122
X5.6319Y-1.7122
X5.9Y-2.15
X5.9Y-3.55
X6.0Y-2.15
X6.0Y-3.55
X6.0256Y-1.7122
X6.1Y-2.15
X6.1Y-3.55
X6.124Y-1.7122
X6.2Y-2.15
X6.2Y-3.55
X6.2224Y-1.7122
X6.3Y-3.55
X6.4Y-3.55
X6.5Y-2.15
X6.5Y-3.55
X6.6Y-2.15
X6.6Y-3.55
X6.6161Y-1.7122
X6.65Y-2.75
X6.65Y-2.85
X6.65Y-2.95
X6.7146Y-1.7122
X6.75Y-2.75
X6.75Y-2.85
X6.75Y-2.95
X6.7996Y-4.1378
X6.7996Y-4.2378
X6.7996Y-4.4878
X6.7996Y-4.5878
X6.813Y-1.7122
X7.2067Y-1.7122
X7.3051Y-1.7122
X7.4035Y-1.7122
X7.45Y-2.9
X7.45Y-3.0
X7.45Y-3.1
X7.45Y-3.2
X7.45Y-3.3
X7.45Y-3.4
X7.45Y-3.5
X7.45Y-3.6
X7.45Y-3.7
X7.45Y-3.8
X7.45Y-3.9
X7.45Y-4.0
X7.45Y-4.1
X7.45Y-4.2
X7.55Y-2.9
X7.55Y-3.0
X7.55Y-3.1
X7.55Y-3.2
X7.55Y-3.3
X7.55Y-3.4
X7.55Y-3.5
X7.55Y-3.6
X7.55Y-3.7
X7.55Y-3.8
X7.55Y-3.9
X7.55Y-4.0
X7.55Y-4.1
X7.55Y-4.2
X7.7972Y-1.7122
X7.8Y-2.55
X7.8Y-2.65
X7.8Y-4.45
X7.8Y-4.55
X7.8957Y-1.7122
X7.9Y-2.55
X7.9Y-2.65
X7.9Y-4.45
X7.9Y-4.55
X7.9941Y-1.7122
X8.0Y-2.55
X8.0Y-2.65
X8.0Y-4.45
X8.0Y-4.55
X8.1Y-2.55
X8.1Y-2.65
X8.1Y-4.45
X8.1Y-4.55
X8.2Y-2.55
X8.2Y-2.65
X8.2Y-4.45
X8.2Y-4.55
X8.3Y-2.55
X8.3Y-2.65
X8.3Y-4.45
X8.3Y-4.55
X8.4Y-2.55
X8.4Y-2.65
X8.4Y-4.45
X8.4Y-4.55
X8.45Y-1.35
X8.45Y-1.45
X8.45Y-1.8
X8.45Y-1.9
X8.5Y-2.55
X8.5Y-2.65
X8.5Y-4.45
X8.5Y-4.55
X8.55Y-1.35
X8.55Y-1.45
X8.55Y-1.8
X8.55Y-1.9
X8.6Y-2.55
X8.6Y-2.65
X8.6Y-4.45
X8.6Y-4.55
X8.65Y-1.35
X8.65Y-1.45
X8.65Y-1.8
X8.65Y-1.9
X8.7Y-2.55
X8.7Y-2.65
X8.7Y-4.45
X8.7Y-4.55
X8.75Y-1.35
X8.75Y-1.45
X8.75Y-1.8
X8.75Y-1.9
X8.8Y-2.55
X8.8Y-2.65
X8.8Y-4.45
X8.8Y-4.55
X8.85Y-1.35
X8.85Y-1.45
X8.85Y-1.8
X8.85Y-1.9
X8.9Y-2.55
X8.9Y-2.65
X8.9Y-4.45
X8.9Y-4.55
X8.95Y-1.35
X8.95Y-1.45
X8.95Y-1.8
X8.95Y-1.9
X9.0Y-2.55
X9.0Y-2.65
X9.0Y-4.45
X9.0Y-4.55
X9.1Y-2.55
X9.1Y-2.65
X9.1Y-4.45
X9.1Y-4.55
X9.35Y-2.9
X9.35Y-3.0
X9.35Y-3.1
X9.35Y-3.2
X9.35Y-3.3
X9.35Y-3.4
X9.35Y-3.5
X9.35Y-3.6
X9.35Y-3.7
X9.35Y-3.8
X9.35Y-3.9
X9.35Y-4.0
X9.35Y-4.1
X9.35Y-4.2
X9.45Y-2.9
X9.45Y-3.0
X9.45Y-3.1
X9.45Y-3.2
X9.45Y-3.3
X9.45Y-3.4
X9.45Y-3.5
X9.45Y-3.6
X9.45Y-3.7
X9.45Y-3.8
X9.45Y-3.9
X9.45Y-4.0
X9.45Y-4.1
X9.45Y-4.2
T7
X3.2528Y-2.0531
X3.2528Y-2.4469
X3.6465Y-1.9547
X3.6465Y-2.25
X3.6465Y-2.5453
X3.7449Y-2.0531
X3.7449Y-2.4469
T8
X4.7244Y-4.4094
X4.8228Y-4.4094
X4.9213Y-4.6063
X5.0197Y-4.4094
X5.1181Y-4.4094
X5.2756Y-4.4094
X5.374Y-4.4094
X5.4724Y-4.6063
X5.5709Y-4.4094
X5.6693Y-4.4094
T9
X3.6146Y-4.5878
X3.7996Y-4.5878
X3.9665Y-1.9547
X3.9665Y-2.8209
X3.9846Y-4.5878
X4.8327Y-1.9547
X4.8327Y-2.8209
X9.3996Y-1.6028
X9.3996Y-1.7878
X9.3996Y-1.9728
T2
G00X3.3341Y-2.7915
M15
G01X3.3498Y-2.7915
M16
G05
G00X3.3341Y-2.9821
M15
G01X3.3498Y-2.9821
M16
G05
T3
G00X3.214Y-2.7793
M15
G01X3.2337Y-2.7793
M16
G05
G00X3.214Y-2.9943
M15
G01X3.2337Y-2.9943
M16
G05
T5
G00X4.2606Y-4.3106
M15
G01X4.3394Y-4.3106
M16
G05
G00X4.2606Y-4.5469
M15
G01X4.3394Y-4.5469
M16
G05
G00X4.485Y-4.4681
M15
G01X4.485Y-4.3894
M16
G05
T6
G00X3.5728Y-1.4307
M15
G01X3.5728Y-1.4031
M16
G05
G00X3.9508Y-1.4307
M15
G01X3.9508Y-1.4031
M16
G05
G00X4.1634Y-1.4307
M15
G01X4.1634Y-1.4031
M16
G05
G00X4.5354Y-3.9063
M15
G01X4.5354Y-3.8787
M16
G05
G00X4.5413Y-1.4307
M15
G01X4.5413Y-1.4031
M16
G05
G00X4.7539Y-1.4307
M15
G01X4.7539Y-1.4031
M16
G05
G00X4.9134Y-3.9063
M15
G01X4.9134Y-3.8787
M16
G05
G00X5.0866Y-3.9063
M15
G01X5.0866Y-3.8787
M16
G05
G00X5.1319Y-1.4307
M15
G01X5.1319Y-1.4031
M16
G05
G00X5.3445Y-1.4307
M15
G01X5.3445Y-1.4031
M16
G05
G00X5.4646Y-3.9063
M15
G01X5.4646Y-3.8787
M16
G05
G00X5.7224Y-1.4307
M15
G01X5.7224Y-1.4031
M16
G05
G00X5.935Y-1.4307
M15
G01X5.935Y-1.4031
M16
G05
G00X6.313Y-1.4307
M15
G01X6.313Y-1.4031
M16
G05
G00X6.5256Y-1.4307
M15
G01X6.5256Y-1.4031
M16
G05
G00X6.9035Y-1.4307
M15
G01X6.9035Y-1.4031
M16
G05
G00X7.1161Y-1.4307
M15
G01X7.1161Y-1.4031
M16
G05
G00X7.4941Y-1.4307
M15
G01X7.4941Y-1.4031
M16
G05
G00X7.7067Y-1.4307
M15
G01X7.7067Y-1.4031
M16
G05
G00X8.0846Y-1.4307
M15
G01X8.0846Y-1.4031
M16
G05
T0
M30
